M48
; DRILL file {KiCad (6.0.9)} date Tue Dec 20 15:04:57 2022
; FORMAT={-:-/ absolute / metric / decimal}
; #@! TF.CreationDate,2022-12-20T15:04:57+09:00
; #@! TF.GenerationSoftware,Kicad,Pcbnew,(6.0.9)
; #@! TF.FileFunction,NonPlated,1,2,NPTH
FMAT,2
METRIC
; #@! TA.AperFunction,NonPlated,NPTH,ComponentDrill
T1C1.700
; #@! TA.AperFunction,NonPlated,NPTH,ComponentDrill
T2C2.200
; #@! TA.AperFunction,NonPlated,NPTH,ComponentDrill
T3C3.000
; #@! TA.AperFunction,NonPlated,NPTH,ComponentDrill
T4C4.000
%
G90
G05
T1
X29.78Y-98.18
X32.11Y-115.41
X32.13Y-149.86
X34.36Y-132.67
X40.78Y-98.18
X43.11Y-115.41
X43.13Y-149.86
X45.36Y-132.67
X47.99Y-98.18
X52.55Y-115.41
X52.59Y-149.885
X57.06Y-132.65
X58.99Y-98.18
X63.55Y-115.41
X63.59Y-149.885
X66.25Y-98.16
X68.06Y-132.65
X70.77Y-115.4
X70.81Y-149.89
X75.3Y-132.65
X77.25Y-98.16
X81.77Y-115.4
X81.81Y-149.89
X84.46Y-98.18
X86.3Y-132.65
X88.99Y-115.39
X89.05Y-149.89
X93.52Y-132.65
X95.46Y-98.18
X99.99Y-115.39
X100.05Y-149.89
X102.69Y-98.18
X104.52Y-132.65
X107.21Y-115.4
X111.74Y-132.66
X113.69Y-98.18
X116.25Y-149.91
X118.21Y-115.4
X120.94Y-98.18
X122.74Y-132.66
X125.41Y-115.4
X127.25Y-149.91
X129.98Y-132.66
X131.94Y-98.18
X136.41Y-115.4
X139.17Y-98.16
X140.98Y-132.66
X143.65Y-115.41
X148.22Y-132.66
X150.17Y-98.16
X152.49Y-149.92
X154.65Y-115.41
X157.4Y-98.16
X159.22Y-132.66
X161.89Y-115.4
X163.49Y-149.92
X166.46Y-132.64
X168.4Y-98.16
X172.89Y-115.4
X175.6Y-98.16
X177.46Y-132.64
X179.78Y-149.89
X180.1Y-115.4
X184.7Y-132.64
X186.6Y-98.16
X190.78Y-149.89
X191.1Y-115.4
X193.83Y-98.16
X195.7Y-132.64
X198.01Y-149.89
X198.32Y-115.41
X202.92Y-132.64
X204.83Y-98.16
X209.01Y-149.89
X209.32Y-115.41
X212.08Y-98.18
X213.92Y-132.64
X216.24Y-149.9
X216.54Y-115.41
X221.14Y-132.64
X223.08Y-98.18
X227.24Y-149.9
X227.54Y-115.41
X230.31Y-98.18
X232.14Y-132.64
X234.45Y-149.895
X241.31Y-98.18
X243.72Y-115.4
X245.45Y-149.895
X246.15Y-132.6
X250.7Y-98.15
X252.71Y-149.89
X254.72Y-115.4
X257.15Y-132.6
X261.7Y-98.15
X263.71Y-149.89
T2
X25.61Y-158.47
X51.25Y-128.35
X69.45Y-78.0
X77.85Y-68.99
X77.88Y-83.84
X139.85Y-150.05
X173.13Y-68.63
X239.0Y-127.65
X267.94Y-68.54
X267.94Y-87.02
X267.94Y-158.47
T3
X30.28Y-101.88
X32.61Y-119.11
X32.63Y-153.56
X34.86Y-136.37
X35.28Y-104.08
X37.61Y-121.31
X37.63Y-155.76
X39.86Y-138.57
X48.49Y-101.88
X53.05Y-119.11
X53.09Y-153.585
X53.49Y-104.08
X57.56Y-136.35
X58.05Y-121.31
X58.09Y-155.785
X62.56Y-138.55
X66.75Y-101.86
X71.27Y-119.1
X71.31Y-153.59
X71.75Y-104.06
X75.8Y-136.35
X76.27Y-121.3
X76.31Y-155.79
X80.8Y-138.55
X84.96Y-101.88
X89.49Y-119.09
X89.55Y-153.59
X89.96Y-104.08
X94.02Y-136.35
X94.49Y-121.29
X94.55Y-155.79
X99.02Y-138.55
X103.19Y-101.88
X107.71Y-119.1
X108.19Y-104.08
X112.24Y-136.36
X112.71Y-121.3
X116.75Y-153.61
X117.24Y-138.56
X121.44Y-101.88
X121.75Y-155.81
X125.91Y-119.1
X126.44Y-104.08
X130.48Y-136.36
X130.91Y-121.3
X135.48Y-138.56
X139.67Y-101.86
X144.15Y-119.11
X144.67Y-104.06
X148.72Y-136.36
X149.15Y-121.31
X152.99Y-153.62
X153.72Y-138.56
X157.9Y-101.86
X157.99Y-155.82
X162.39Y-119.1
X162.9Y-104.06
X166.96Y-136.34
X167.39Y-121.3
X171.96Y-138.54
X176.1Y-101.86
X180.28Y-153.59
X180.6Y-119.1
X181.1Y-104.06
X185.2Y-136.34
X185.28Y-155.79
X185.6Y-121.3
X190.2Y-138.54
X194.33Y-101.86
X198.51Y-153.59
X198.82Y-119.11
X199.33Y-104.06
X203.42Y-136.34
X203.51Y-155.79
X203.82Y-121.31
X208.42Y-138.54
X212.58Y-101.88
X216.74Y-153.6
X217.04Y-119.11
X217.58Y-104.08
X221.64Y-136.34
X221.74Y-155.8
X222.04Y-121.31
X226.64Y-138.54
X230.81Y-101.88
X234.95Y-153.595
X235.81Y-104.08
X239.95Y-155.795
X244.22Y-119.1
X246.65Y-136.3
X249.22Y-121.3
X251.2Y-101.85
X251.65Y-138.5
X253.21Y-153.59
X256.2Y-104.05
X258.21Y-155.79
T4
X35.28Y-98.18
X37.61Y-115.41
X37.63Y-149.86
X39.86Y-132.67
X53.49Y-98.18
X58.05Y-115.41
X58.09Y-149.885
X62.56Y-132.65
X71.75Y-98.16
X76.27Y-115.4
X76.31Y-149.89
X80.8Y-132.65
X89.96Y-98.18
X94.49Y-115.39
X94.55Y-149.89
X99.02Y-132.65
X108.19Y-98.18
X112.71Y-115.4
X117.24Y-132.66
X121.75Y-149.91
X126.44Y-98.18
X130.91Y-115.4
X135.48Y-132.66
X144.67Y-98.16
X149.15Y-115.41
X153.72Y-132.66
X157.99Y-149.92
X162.9Y-98.16
X167.39Y-115.4
X171.96Y-132.64
X181.1Y-98.16
X185.28Y-149.89
X185.6Y-115.4
X190.2Y-132.64
X199.33Y-98.16
X203.51Y-149.89
X203.82Y-115.41
X208.42Y-132.64
X217.58Y-98.18
X221.74Y-149.9
X222.04Y-115.41
X226.64Y-132.64
X235.81Y-98.18
X239.95Y-149.895
X249.22Y-115.4
X251.65Y-132.6
X256.2Y-98.15
X258.21Y-149.89
T0
M30
