%TF.GenerationSoftware,KiCad,Pcbnew,(6.0.9)*%
%TF.CreationDate,2022-12-20T15:05:08+09:00*%
%TF.ProjectId,meow48,6d656f77-3438-42e6-9b69-6361645f7063,rev?*%
%TF.SameCoordinates,Original*%
%TF.FileFunction,Drillmap*%
%TF.FilePolarity,Positive*%
%FSLAX45Y45*%
G04 Gerber Fmt 4.5, Leading zero omitted, Abs format (unit mm)*
G04 Created by KiCad (PCBNEW (6.0.9)) date 2022-12-20 15:05:08*
%MOMM*%
%LPD*%
G01*
G04 APERTURE LIST*
%ADD10C,0.100000*%
%ADD11C,0.200000*%
%ADD12C,0.170000*%
%ADD13C,0.220000*%
%ADD14C,0.300000*%
%ADD15C,0.400000*%
G04 APERTURE END LIST*
D10*
X2505000Y-6589382D02*
G75*
G03*
X2293037Y-6793000I-4172J-207791D01*
G01*
X27060618Y-6800000D02*
G75*
G03*
X26853655Y-6589382I-208788J1830D01*
G01*
X26853655Y-16115028D02*
G75*
G03*
X27060618Y-15908075I5J206958D01*
G01*
X2293037Y-6793000D02*
X2293037Y-15907000D01*
X27060618Y-15908075D02*
X27060618Y-6800000D01*
X2500000Y-16115037D02*
X26853655Y-16115037D01*
X26853655Y-6589382D02*
X2505000Y-6589382D01*
X2293043Y-15907000D02*
G75*
G03*
X2500000Y-16115037I207497J-540D01*
G01*
D11*
D12*
X2893000Y-9733000D02*
X3063000Y-9903000D01*
X3063000Y-9733000D02*
X2893000Y-9903000D01*
X3126000Y-11456000D02*
X3296000Y-11626000D01*
X3296000Y-11456000D02*
X3126000Y-11626000D01*
X3128000Y-14901000D02*
X3298000Y-15071000D01*
X3298000Y-14901000D02*
X3128000Y-15071000D01*
X3351000Y-13182000D02*
X3521000Y-13352000D01*
X3521000Y-13182000D02*
X3351000Y-13352000D01*
X3993000Y-9733000D02*
X4163000Y-9903000D01*
X4163000Y-9733000D02*
X3993000Y-9903000D01*
X4226000Y-11456000D02*
X4396000Y-11626000D01*
X4396000Y-11456000D02*
X4226000Y-11626000D01*
X4228000Y-14901000D02*
X4398000Y-15071000D01*
X4398000Y-14901000D02*
X4228000Y-15071000D01*
X4451000Y-13182000D02*
X4621000Y-13352000D01*
X4621000Y-13182000D02*
X4451000Y-13352000D01*
X4714000Y-9733000D02*
X4884000Y-9903000D01*
X4884000Y-9733000D02*
X4714000Y-9903000D01*
X5170000Y-11456000D02*
X5340000Y-11626000D01*
X5340000Y-11456000D02*
X5170000Y-11626000D01*
X5174000Y-14903500D02*
X5344000Y-15073500D01*
X5344000Y-14903500D02*
X5174000Y-15073500D01*
X5621000Y-13180000D02*
X5791000Y-13350000D01*
X5791000Y-13180000D02*
X5621000Y-13350000D01*
X5814000Y-9733000D02*
X5984000Y-9903000D01*
X5984000Y-9733000D02*
X5814000Y-9903000D01*
X6270000Y-11456000D02*
X6440000Y-11626000D01*
X6440000Y-11456000D02*
X6270000Y-11626000D01*
X6274000Y-14903500D02*
X6444000Y-15073500D01*
X6444000Y-14903500D02*
X6274000Y-15073500D01*
X6540000Y-9731000D02*
X6710000Y-9901000D01*
X6710000Y-9731000D02*
X6540000Y-9901000D01*
X6721000Y-13180000D02*
X6891000Y-13350000D01*
X6891000Y-13180000D02*
X6721000Y-13350000D01*
X6992000Y-11455000D02*
X7162000Y-11625000D01*
X7162000Y-11455000D02*
X6992000Y-11625000D01*
X6996000Y-14904000D02*
X7166000Y-15074000D01*
X7166000Y-14904000D02*
X6996000Y-15074000D01*
X7445000Y-13180000D02*
X7615000Y-13350000D01*
X7615000Y-13180000D02*
X7445000Y-13350000D01*
X7640000Y-9731000D02*
X7810000Y-9901000D01*
X7810000Y-9731000D02*
X7640000Y-9901000D01*
X8092000Y-11455000D02*
X8262000Y-11625000D01*
X8262000Y-11455000D02*
X8092000Y-11625000D01*
X8096000Y-14904000D02*
X8266000Y-15074000D01*
X8266000Y-14904000D02*
X8096000Y-15074000D01*
X8361000Y-9733000D02*
X8531000Y-9903000D01*
X8531000Y-9733000D02*
X8361000Y-9903000D01*
X8545000Y-13180000D02*
X8715000Y-13350000D01*
X8715000Y-13180000D02*
X8545000Y-13350000D01*
X8814000Y-11454000D02*
X8984000Y-11624000D01*
X8984000Y-11454000D02*
X8814000Y-11624000D01*
X8820000Y-14904000D02*
X8990000Y-15074000D01*
X8990000Y-14904000D02*
X8820000Y-15074000D01*
X9267000Y-13180000D02*
X9437000Y-13350000D01*
X9437000Y-13180000D02*
X9267000Y-13350000D01*
X9461000Y-9733000D02*
X9631000Y-9903000D01*
X9631000Y-9733000D02*
X9461000Y-9903000D01*
X9914000Y-11454000D02*
X10084000Y-11624000D01*
X10084000Y-11454000D02*
X9914000Y-11624000D01*
X9920000Y-14904000D02*
X10090000Y-15074000D01*
X10090000Y-14904000D02*
X9920000Y-15074000D01*
X10184000Y-9733000D02*
X10354000Y-9903000D01*
X10354000Y-9733000D02*
X10184000Y-9903000D01*
X10367000Y-13180000D02*
X10537000Y-13350000D01*
X10537000Y-13180000D02*
X10367000Y-13350000D01*
X10636000Y-11455000D02*
X10806000Y-11625000D01*
X10806000Y-11455000D02*
X10636000Y-11625000D01*
X11089000Y-13181000D02*
X11259000Y-13351000D01*
X11259000Y-13181000D02*
X11089000Y-13351000D01*
X11284000Y-9733000D02*
X11454000Y-9903000D01*
X11454000Y-9733000D02*
X11284000Y-9903000D01*
X11540000Y-14906000D02*
X11710000Y-15076000D01*
X11710000Y-14906000D02*
X11540000Y-15076000D01*
X11736000Y-11455000D02*
X11906000Y-11625000D01*
X11906000Y-11455000D02*
X11736000Y-11625000D01*
X12009000Y-9733000D02*
X12179000Y-9903000D01*
X12179000Y-9733000D02*
X12009000Y-9903000D01*
X12189000Y-13181000D02*
X12359000Y-13351000D01*
X12359000Y-13181000D02*
X12189000Y-13351000D01*
X12456000Y-11455000D02*
X12626000Y-11625000D01*
X12626000Y-11455000D02*
X12456000Y-11625000D01*
X12640000Y-14906000D02*
X12810000Y-15076000D01*
X12810000Y-14906000D02*
X12640000Y-15076000D01*
X12913000Y-13181000D02*
X13083000Y-13351000D01*
X13083000Y-13181000D02*
X12913000Y-13351000D01*
X13109000Y-9733000D02*
X13279000Y-9903000D01*
X13279000Y-9733000D02*
X13109000Y-9903000D01*
X13556000Y-11455000D02*
X13726000Y-11625000D01*
X13726000Y-11455000D02*
X13556000Y-11625000D01*
X13832000Y-9731000D02*
X14002000Y-9901000D01*
X14002000Y-9731000D02*
X13832000Y-9901000D01*
X14013000Y-13181000D02*
X14183000Y-13351000D01*
X14183000Y-13181000D02*
X14013000Y-13351000D01*
X14280000Y-11456000D02*
X14450000Y-11626000D01*
X14450000Y-11456000D02*
X14280000Y-11626000D01*
X14737000Y-13181000D02*
X14907000Y-13351000D01*
X14907000Y-13181000D02*
X14737000Y-13351000D01*
X14932000Y-9731000D02*
X15102000Y-9901000D01*
X15102000Y-9731000D02*
X14932000Y-9901000D01*
X15164000Y-14907000D02*
X15334000Y-15077000D01*
X15334000Y-14907000D02*
X15164000Y-15077000D01*
X15380000Y-11456000D02*
X15550000Y-11626000D01*
X15550000Y-11456000D02*
X15380000Y-11626000D01*
X15655000Y-9731000D02*
X15825000Y-9901000D01*
X15825000Y-9731000D02*
X15655000Y-9901000D01*
X15837000Y-13181000D02*
X16007000Y-13351000D01*
X16007000Y-13181000D02*
X15837000Y-13351000D01*
X16104000Y-11455000D02*
X16274000Y-11625000D01*
X16274000Y-11455000D02*
X16104000Y-11625000D01*
X16264000Y-14907000D02*
X16434000Y-15077000D01*
X16434000Y-14907000D02*
X16264000Y-15077000D01*
X16561000Y-13179000D02*
X16731000Y-13349000D01*
X16731000Y-13179000D02*
X16561000Y-13349000D01*
X16755000Y-9731000D02*
X16925000Y-9901000D01*
X16925000Y-9731000D02*
X16755000Y-9901000D01*
X17204000Y-11455000D02*
X17374000Y-11625000D01*
X17374000Y-11455000D02*
X17204000Y-11625000D01*
X17475000Y-9731000D02*
X17645000Y-9901000D01*
X17645000Y-9731000D02*
X17475000Y-9901000D01*
X17661000Y-13179000D02*
X17831000Y-13349000D01*
X17831000Y-13179000D02*
X17661000Y-13349000D01*
X17893000Y-14904000D02*
X18063000Y-15074000D01*
X18063000Y-14904000D02*
X17893000Y-15074000D01*
X17925000Y-11455000D02*
X18095000Y-11625000D01*
X18095000Y-11455000D02*
X17925000Y-11625000D01*
X18385000Y-13179000D02*
X18555000Y-13349000D01*
X18555000Y-13179000D02*
X18385000Y-13349000D01*
X18575000Y-9731000D02*
X18745000Y-9901000D01*
X18745000Y-9731000D02*
X18575000Y-9901000D01*
X18993000Y-14904000D02*
X19163000Y-15074000D01*
X19163000Y-14904000D02*
X18993000Y-15074000D01*
X19025000Y-11455000D02*
X19195000Y-11625000D01*
X19195000Y-11455000D02*
X19025000Y-11625000D01*
X19298000Y-9731000D02*
X19468000Y-9901000D01*
X19468000Y-9731000D02*
X19298000Y-9901000D01*
X19485000Y-13179000D02*
X19655000Y-13349000D01*
X19655000Y-13179000D02*
X19485000Y-13349000D01*
X19716000Y-14904000D02*
X19886000Y-15074000D01*
X19886000Y-14904000D02*
X19716000Y-15074000D01*
X19747000Y-11456000D02*
X19917000Y-11626000D01*
X19917000Y-11456000D02*
X19747000Y-11626000D01*
X20207000Y-13179000D02*
X20377000Y-13349000D01*
X20377000Y-13179000D02*
X20207000Y-13349000D01*
X20398000Y-9731000D02*
X20568000Y-9901000D01*
X20568000Y-9731000D02*
X20398000Y-9901000D01*
X20816000Y-14904000D02*
X20986000Y-15074000D01*
X20986000Y-14904000D02*
X20816000Y-15074000D01*
X20847000Y-11456000D02*
X21017000Y-11626000D01*
X21017000Y-11456000D02*
X20847000Y-11626000D01*
X21123000Y-9733000D02*
X21293000Y-9903000D01*
X21293000Y-9733000D02*
X21123000Y-9903000D01*
X21307000Y-13179000D02*
X21477000Y-13349000D01*
X21477000Y-13179000D02*
X21307000Y-13349000D01*
X21539000Y-14905000D02*
X21709000Y-15075000D01*
X21709000Y-14905000D02*
X21539000Y-15075000D01*
X21569000Y-11456000D02*
X21739000Y-11626000D01*
X21739000Y-11456000D02*
X21569000Y-11626000D01*
X22029000Y-13179000D02*
X22199000Y-13349000D01*
X22199000Y-13179000D02*
X22029000Y-13349000D01*
X22223000Y-9733000D02*
X22393000Y-9903000D01*
X22393000Y-9733000D02*
X22223000Y-9903000D01*
X22639000Y-14905000D02*
X22809000Y-15075000D01*
X22809000Y-14905000D02*
X22639000Y-15075000D01*
X22669000Y-11456000D02*
X22839000Y-11626000D01*
X22839000Y-11456000D02*
X22669000Y-11626000D01*
X22946000Y-9733000D02*
X23116000Y-9903000D01*
X23116000Y-9733000D02*
X22946000Y-9903000D01*
X23129000Y-13179000D02*
X23299000Y-13349000D01*
X23299000Y-13179000D02*
X23129000Y-13349000D01*
X23360000Y-14904500D02*
X23530000Y-15074500D01*
X23530000Y-14904500D02*
X23360000Y-15074500D01*
X24046000Y-9733000D02*
X24216000Y-9903000D01*
X24216000Y-9733000D02*
X24046000Y-9903000D01*
X24287000Y-11455000D02*
X24457000Y-11625000D01*
X24457000Y-11455000D02*
X24287000Y-11625000D01*
X24460000Y-14904500D02*
X24630000Y-15074500D01*
X24630000Y-14904500D02*
X24460000Y-15074500D01*
X24530000Y-13175000D02*
X24700000Y-13345000D01*
X24700000Y-13175000D02*
X24530000Y-13345000D01*
X24985000Y-9730000D02*
X25155000Y-9900000D01*
X25155000Y-9730000D02*
X24985000Y-9900000D01*
X25186000Y-14904000D02*
X25356000Y-15074000D01*
X25356000Y-14904000D02*
X25186000Y-15074000D01*
X25387000Y-11455000D02*
X25557000Y-11625000D01*
X25557000Y-11455000D02*
X25387000Y-11625000D01*
X25630000Y-13175000D02*
X25800000Y-13345000D01*
X25800000Y-13175000D02*
X25630000Y-13345000D01*
X26085000Y-9730000D02*
X26255000Y-9900000D01*
X26255000Y-9730000D02*
X26085000Y-9900000D01*
X26286000Y-14904000D02*
X26456000Y-15074000D01*
X26456000Y-14904000D02*
X26286000Y-15074000D01*
D13*
X2671000Y-15847000D02*
G75*
G03*
X2671000Y-15847000I-110000J0D01*
G01*
X5235000Y-12835000D02*
G75*
G03*
X5235000Y-12835000I-110000J0D01*
G01*
X7055000Y-7800000D02*
G75*
G03*
X7055000Y-7800000I-110000J0D01*
G01*
X7895000Y-6899000D02*
G75*
G03*
X7895000Y-6899000I-110000J0D01*
G01*
X7898000Y-8384000D02*
G75*
G03*
X7898000Y-8384000I-110000J0D01*
G01*
X14095000Y-15005000D02*
G75*
G03*
X14095000Y-15005000I-110000J0D01*
G01*
X17423000Y-6863000D02*
G75*
G03*
X17423000Y-6863000I-110000J0D01*
G01*
X24010000Y-12765000D02*
G75*
G03*
X24010000Y-12765000I-110000J0D01*
G01*
X26904000Y-6854000D02*
G75*
G03*
X26904000Y-6854000I-110000J0D01*
G01*
X26904000Y-8702000D02*
G75*
G03*
X26904000Y-8702000I-110000J0D01*
G01*
X26904000Y-15847000D02*
G75*
G03*
X26904000Y-15847000I-110000J0D01*
G01*
D14*
X3028000Y-10038000D02*
X3028000Y-10338000D01*
X2878000Y-10188000D02*
X3178000Y-10188000D01*
X3261000Y-11761000D02*
X3261000Y-12061000D01*
X3111000Y-11911000D02*
X3411000Y-11911000D01*
X3263000Y-15206000D02*
X3263000Y-15506000D01*
X3113000Y-15356000D02*
X3413000Y-15356000D01*
X3486000Y-13487000D02*
X3486000Y-13787000D01*
X3336000Y-13637000D02*
X3636000Y-13637000D01*
X3528000Y-10258000D02*
X3528000Y-10558000D01*
X3378000Y-10408000D02*
X3678000Y-10408000D01*
X3761000Y-11981000D02*
X3761000Y-12281000D01*
X3611000Y-12131000D02*
X3911000Y-12131000D01*
X3763000Y-15426000D02*
X3763000Y-15726000D01*
X3613000Y-15576000D02*
X3913000Y-15576000D01*
X3986000Y-13707000D02*
X3986000Y-14007000D01*
X3836000Y-13857000D02*
X4136000Y-13857000D01*
X4849000Y-10038000D02*
X4849000Y-10338000D01*
X4699000Y-10188000D02*
X4999000Y-10188000D01*
X5305000Y-11761000D02*
X5305000Y-12061000D01*
X5155000Y-11911000D02*
X5455000Y-11911000D01*
X5309000Y-15208500D02*
X5309000Y-15508500D01*
X5159000Y-15358500D02*
X5459000Y-15358500D01*
X5349000Y-10258000D02*
X5349000Y-10558000D01*
X5199000Y-10408000D02*
X5499000Y-10408000D01*
X5756000Y-13485000D02*
X5756000Y-13785000D01*
X5606000Y-13635000D02*
X5906000Y-13635000D01*
X5805000Y-11981000D02*
X5805000Y-12281000D01*
X5655000Y-12131000D02*
X5955000Y-12131000D01*
X5809000Y-15428500D02*
X5809000Y-15728500D01*
X5659000Y-15578500D02*
X5959000Y-15578500D01*
X6256000Y-13705000D02*
X6256000Y-14005000D01*
X6106000Y-13855000D02*
X6406000Y-13855000D01*
X6675000Y-10036000D02*
X6675000Y-10336000D01*
X6525000Y-10186000D02*
X6825000Y-10186000D01*
X7127000Y-11760000D02*
X7127000Y-12060000D01*
X6977000Y-11910000D02*
X7277000Y-11910000D01*
X7131000Y-15209000D02*
X7131000Y-15509000D01*
X6981000Y-15359000D02*
X7281000Y-15359000D01*
X7175000Y-10256000D02*
X7175000Y-10556000D01*
X7025000Y-10406000D02*
X7325000Y-10406000D01*
X7580000Y-13485000D02*
X7580000Y-13785000D01*
X7430000Y-13635000D02*
X7730000Y-13635000D01*
X7627000Y-11980000D02*
X7627000Y-12280000D01*
X7477000Y-12130000D02*
X7777000Y-12130000D01*
X7631000Y-15429000D02*
X7631000Y-15729000D01*
X7481000Y-15579000D02*
X7781000Y-15579000D01*
X8080000Y-13705000D02*
X8080000Y-14005000D01*
X7930000Y-13855000D02*
X8230000Y-13855000D01*
X8496000Y-10038000D02*
X8496000Y-10338000D01*
X8346000Y-10188000D02*
X8646000Y-10188000D01*
X8949000Y-11759000D02*
X8949000Y-12059000D01*
X8799000Y-11909000D02*
X9099000Y-11909000D01*
X8955000Y-15209000D02*
X8955000Y-15509000D01*
X8805000Y-15359000D02*
X9105000Y-15359000D01*
X8996000Y-10258000D02*
X8996000Y-10558000D01*
X8846000Y-10408000D02*
X9146000Y-10408000D01*
X9402000Y-13485000D02*
X9402000Y-13785000D01*
X9252000Y-13635000D02*
X9552000Y-13635000D01*
X9449000Y-11979000D02*
X9449000Y-12279000D01*
X9299000Y-12129000D02*
X9599000Y-12129000D01*
X9455000Y-15429000D02*
X9455000Y-15729000D01*
X9305000Y-15579000D02*
X9605000Y-15579000D01*
X9902000Y-13705000D02*
X9902000Y-14005000D01*
X9752000Y-13855000D02*
X10052000Y-13855000D01*
X10319000Y-10038000D02*
X10319000Y-10338000D01*
X10169000Y-10188000D02*
X10469000Y-10188000D01*
X10771000Y-11760000D02*
X10771000Y-12060000D01*
X10621000Y-11910000D02*
X10921000Y-11910000D01*
X10819000Y-10258000D02*
X10819000Y-10558000D01*
X10669000Y-10408000D02*
X10969000Y-10408000D01*
X11224000Y-13486000D02*
X11224000Y-13786000D01*
X11074000Y-13636000D02*
X11374000Y-13636000D01*
X11271000Y-11980000D02*
X11271000Y-12280000D01*
X11121000Y-12130000D02*
X11421000Y-12130000D01*
X11675000Y-15211000D02*
X11675000Y-15511000D01*
X11525000Y-15361000D02*
X11825000Y-15361000D01*
X11724000Y-13706000D02*
X11724000Y-14006000D01*
X11574000Y-13856000D02*
X11874000Y-13856000D01*
X12144000Y-10038000D02*
X12144000Y-10338000D01*
X11994000Y-10188000D02*
X12294000Y-10188000D01*
X12175000Y-15431000D02*
X12175000Y-15731000D01*
X12025000Y-15581000D02*
X12325000Y-15581000D01*
X12591000Y-11760000D02*
X12591000Y-12060000D01*
X12441000Y-11910000D02*
X12741000Y-11910000D01*
X12644000Y-10258000D02*
X12644000Y-10558000D01*
X12494000Y-10408000D02*
X12794000Y-10408000D01*
X13048000Y-13486000D02*
X13048000Y-13786000D01*
X12898000Y-13636000D02*
X13198000Y-13636000D01*
X13091000Y-11980000D02*
X13091000Y-12280000D01*
X12941000Y-12130000D02*
X13241000Y-12130000D01*
X13548000Y-13706000D02*
X13548000Y-14006000D01*
X13398000Y-13856000D02*
X13698000Y-13856000D01*
X13967000Y-10036000D02*
X13967000Y-10336000D01*
X13817000Y-10186000D02*
X14117000Y-10186000D01*
X14415000Y-11761000D02*
X14415000Y-12061000D01*
X14265000Y-11911000D02*
X14565000Y-11911000D01*
X14467000Y-10256000D02*
X14467000Y-10556000D01*
X14317000Y-10406000D02*
X14617000Y-10406000D01*
X14872000Y-13486000D02*
X14872000Y-13786000D01*
X14722000Y-13636000D02*
X15022000Y-13636000D01*
X14915000Y-11981000D02*
X14915000Y-12281000D01*
X14765000Y-12131000D02*
X15065000Y-12131000D01*
X15299000Y-15212000D02*
X15299000Y-15512000D01*
X15149000Y-15362000D02*
X15449000Y-15362000D01*
X15372000Y-13706000D02*
X15372000Y-14006000D01*
X15222000Y-13856000D02*
X15522000Y-13856000D01*
X15790000Y-10036000D02*
X15790000Y-10336000D01*
X15640000Y-10186000D02*
X15940000Y-10186000D01*
X15799000Y-15432000D02*
X15799000Y-15732000D01*
X15649000Y-15582000D02*
X15949000Y-15582000D01*
X16239000Y-11760000D02*
X16239000Y-12060000D01*
X16089000Y-11910000D02*
X16389000Y-11910000D01*
X16290000Y-10256000D02*
X16290000Y-10556000D01*
X16140000Y-10406000D02*
X16440000Y-10406000D01*
X16696000Y-13484000D02*
X16696000Y-13784000D01*
X16546000Y-13634000D02*
X16846000Y-13634000D01*
X16739000Y-11980000D02*
X16739000Y-12280000D01*
X16589000Y-12130000D02*
X16889000Y-12130000D01*
X17196000Y-13704000D02*
X17196000Y-14004000D01*
X17046000Y-13854000D02*
X17346000Y-13854000D01*
X17610000Y-10036000D02*
X17610000Y-10336000D01*
X17460000Y-10186000D02*
X17760000Y-10186000D01*
X18028000Y-15209000D02*
X18028000Y-15509000D01*
X17878000Y-15359000D02*
X18178000Y-15359000D01*
X18060000Y-11760000D02*
X18060000Y-12060000D01*
X17910000Y-11910000D02*
X18210000Y-11910000D01*
X18110000Y-10256000D02*
X18110000Y-10556000D01*
X17960000Y-10406000D02*
X18260000Y-10406000D01*
X18520000Y-13484000D02*
X18520000Y-13784000D01*
X18370000Y-13634000D02*
X18670000Y-13634000D01*
X18528000Y-15429000D02*
X18528000Y-15729000D01*
X18378000Y-15579000D02*
X18678000Y-15579000D01*
X18560000Y-11980000D02*
X18560000Y-12280000D01*
X18410000Y-12130000D02*
X18710000Y-12130000D01*
X19020000Y-13704000D02*
X19020000Y-14004000D01*
X18870000Y-13854000D02*
X19170000Y-13854000D01*
X19433000Y-10036000D02*
X19433000Y-10336000D01*
X19283000Y-10186000D02*
X19583000Y-10186000D01*
X19851000Y-15209000D02*
X19851000Y-15509000D01*
X19701000Y-15359000D02*
X20001000Y-15359000D01*
X19882000Y-11761000D02*
X19882000Y-12061000D01*
X19732000Y-11911000D02*
X20032000Y-11911000D01*
X19933000Y-10256000D02*
X19933000Y-10556000D01*
X19783000Y-10406000D02*
X20083000Y-10406000D01*
X20342000Y-13484000D02*
X20342000Y-13784000D01*
X20192000Y-13634000D02*
X20492000Y-13634000D01*
X20351000Y-15429000D02*
X20351000Y-15729000D01*
X20201000Y-15579000D02*
X20501000Y-15579000D01*
X20382000Y-11981000D02*
X20382000Y-12281000D01*
X20232000Y-12131000D02*
X20532000Y-12131000D01*
X20842000Y-13704000D02*
X20842000Y-14004000D01*
X20692000Y-13854000D02*
X20992000Y-13854000D01*
X21258000Y-10038000D02*
X21258000Y-10338000D01*
X21108000Y-10188000D02*
X21408000Y-10188000D01*
X21674000Y-15210000D02*
X21674000Y-15510000D01*
X21524000Y-15360000D02*
X21824000Y-15360000D01*
X21704000Y-11761000D02*
X21704000Y-12061000D01*
X21554000Y-11911000D02*
X21854000Y-11911000D01*
X21758000Y-10258000D02*
X21758000Y-10558000D01*
X21608000Y-10408000D02*
X21908000Y-10408000D01*
X22164000Y-13484000D02*
X22164000Y-13784000D01*
X22014000Y-13634000D02*
X22314000Y-13634000D01*
X22174000Y-15430000D02*
X22174000Y-15730000D01*
X22024000Y-15580000D02*
X22324000Y-15580000D01*
X22204000Y-11981000D02*
X22204000Y-12281000D01*
X22054000Y-12131000D02*
X22354000Y-12131000D01*
X22664000Y-13704000D02*
X22664000Y-14004000D01*
X22514000Y-13854000D02*
X22814000Y-13854000D01*
X23081000Y-10038000D02*
X23081000Y-10338000D01*
X22931000Y-10188000D02*
X23231000Y-10188000D01*
X23495000Y-15209500D02*
X23495000Y-15509500D01*
X23345000Y-15359500D02*
X23645000Y-15359500D01*
X23581000Y-10258000D02*
X23581000Y-10558000D01*
X23431000Y-10408000D02*
X23731000Y-10408000D01*
X23995000Y-15429500D02*
X23995000Y-15729500D01*
X23845000Y-15579500D02*
X24145000Y-15579500D01*
X24422000Y-11760000D02*
X24422000Y-12060000D01*
X24272000Y-11910000D02*
X24572000Y-11910000D01*
X24665000Y-13480000D02*
X24665000Y-13780000D01*
X24515000Y-13630000D02*
X24815000Y-13630000D01*
X24922000Y-11980000D02*
X24922000Y-12280000D01*
X24772000Y-12130000D02*
X25072000Y-12130000D01*
X25120000Y-10035000D02*
X25120000Y-10335000D01*
X24970000Y-10185000D02*
X25270000Y-10185000D01*
X25165000Y-13700000D02*
X25165000Y-14000000D01*
X25015000Y-13850000D02*
X25315000Y-13850000D01*
X25321000Y-15209000D02*
X25321000Y-15509000D01*
X25171000Y-15359000D02*
X25471000Y-15359000D01*
X25620000Y-10255000D02*
X25620000Y-10555000D01*
X25470000Y-10405000D02*
X25770000Y-10405000D01*
X25821000Y-15429000D02*
X25821000Y-15729000D01*
X25671000Y-15579000D02*
X25971000Y-15579000D01*
D15*
X3669423Y-9959423D02*
X3669423Y-9676577D01*
X3386577Y-9676577D01*
X3386577Y-9959423D01*
X3669423Y-9959423D01*
X3902423Y-11682423D02*
X3902423Y-11399577D01*
X3619577Y-11399577D01*
X3619577Y-11682423D01*
X3902423Y-11682423D01*
X3904423Y-15127423D02*
X3904423Y-14844577D01*
X3621577Y-14844577D01*
X3621577Y-15127423D01*
X3904423Y-15127423D01*
X4127423Y-13408423D02*
X4127423Y-13125577D01*
X3844577Y-13125577D01*
X3844577Y-13408423D01*
X4127423Y-13408423D01*
X5490423Y-9959423D02*
X5490423Y-9676577D01*
X5207577Y-9676577D01*
X5207577Y-9959423D01*
X5490423Y-9959423D01*
X5946423Y-11682423D02*
X5946423Y-11399577D01*
X5663577Y-11399577D01*
X5663577Y-11682423D01*
X5946423Y-11682423D01*
X5950423Y-15129923D02*
X5950423Y-14847077D01*
X5667577Y-14847077D01*
X5667577Y-15129923D01*
X5950423Y-15129923D01*
X6397423Y-13406423D02*
X6397423Y-13123577D01*
X6114577Y-13123577D01*
X6114577Y-13406423D01*
X6397423Y-13406423D01*
X7316423Y-9957423D02*
X7316423Y-9674577D01*
X7033577Y-9674577D01*
X7033577Y-9957423D01*
X7316423Y-9957423D01*
X7768423Y-11681423D02*
X7768423Y-11398577D01*
X7485577Y-11398577D01*
X7485577Y-11681423D01*
X7768423Y-11681423D01*
X7772423Y-15130423D02*
X7772423Y-14847577D01*
X7489577Y-14847577D01*
X7489577Y-15130423D01*
X7772423Y-15130423D01*
X8221423Y-13406423D02*
X8221423Y-13123577D01*
X7938577Y-13123577D01*
X7938577Y-13406423D01*
X8221423Y-13406423D01*
X9137423Y-9959423D02*
X9137423Y-9676577D01*
X8854577Y-9676577D01*
X8854577Y-9959423D01*
X9137423Y-9959423D01*
X9590423Y-11680423D02*
X9590423Y-11397577D01*
X9307577Y-11397577D01*
X9307577Y-11680423D01*
X9590423Y-11680423D01*
X9596423Y-15130423D02*
X9596423Y-14847577D01*
X9313577Y-14847577D01*
X9313577Y-15130423D01*
X9596423Y-15130423D01*
X10043423Y-13406423D02*
X10043423Y-13123577D01*
X9760577Y-13123577D01*
X9760577Y-13406423D01*
X10043423Y-13406423D01*
X10960423Y-9959423D02*
X10960423Y-9676577D01*
X10677577Y-9676577D01*
X10677577Y-9959423D01*
X10960423Y-9959423D01*
X11412423Y-11681423D02*
X11412423Y-11398577D01*
X11129577Y-11398577D01*
X11129577Y-11681423D01*
X11412423Y-11681423D01*
X11865423Y-13407423D02*
X11865423Y-13124577D01*
X11582577Y-13124577D01*
X11582577Y-13407423D01*
X11865423Y-13407423D01*
X12316423Y-15132423D02*
X12316423Y-14849577D01*
X12033577Y-14849577D01*
X12033577Y-15132423D01*
X12316423Y-15132423D01*
X12785423Y-9959423D02*
X12785423Y-9676577D01*
X12502577Y-9676577D01*
X12502577Y-9959423D01*
X12785423Y-9959423D01*
X13232423Y-11681423D02*
X13232423Y-11398577D01*
X12949577Y-11398577D01*
X12949577Y-11681423D01*
X13232423Y-11681423D01*
X13689423Y-13407423D02*
X13689423Y-13124577D01*
X13406577Y-13124577D01*
X13406577Y-13407423D01*
X13689423Y-13407423D01*
X14608423Y-9957423D02*
X14608423Y-9674577D01*
X14325577Y-9674577D01*
X14325577Y-9957423D01*
X14608423Y-9957423D01*
X15056423Y-11682423D02*
X15056423Y-11399577D01*
X14773577Y-11399577D01*
X14773577Y-11682423D01*
X15056423Y-11682423D01*
X15513423Y-13407423D02*
X15513423Y-13124577D01*
X15230577Y-13124577D01*
X15230577Y-13407423D01*
X15513423Y-13407423D01*
X15940423Y-15133423D02*
X15940423Y-14850577D01*
X15657577Y-14850577D01*
X15657577Y-15133423D01*
X15940423Y-15133423D01*
X16431423Y-9957423D02*
X16431423Y-9674577D01*
X16148577Y-9674577D01*
X16148577Y-9957423D01*
X16431423Y-9957423D01*
X16880423Y-11681423D02*
X16880423Y-11398577D01*
X16597577Y-11398577D01*
X16597577Y-11681423D01*
X16880423Y-11681423D01*
X17337423Y-13405423D02*
X17337423Y-13122577D01*
X17054577Y-13122577D01*
X17054577Y-13405423D01*
X17337423Y-13405423D01*
X18251423Y-9957423D02*
X18251423Y-9674577D01*
X17968577Y-9674577D01*
X17968577Y-9957423D01*
X18251423Y-9957423D01*
X18669423Y-15130423D02*
X18669423Y-14847577D01*
X18386577Y-14847577D01*
X18386577Y-15130423D01*
X18669423Y-15130423D01*
X18701423Y-11681423D02*
X18701423Y-11398577D01*
X18418577Y-11398577D01*
X18418577Y-11681423D01*
X18701423Y-11681423D01*
X19161423Y-13405423D02*
X19161423Y-13122577D01*
X18878577Y-13122577D01*
X18878577Y-13405423D01*
X19161423Y-13405423D01*
X20074423Y-9957423D02*
X20074423Y-9674577D01*
X19791577Y-9674577D01*
X19791577Y-9957423D01*
X20074423Y-9957423D01*
X20492423Y-15130423D02*
X20492423Y-14847577D01*
X20209577Y-14847577D01*
X20209577Y-15130423D01*
X20492423Y-15130423D01*
X20523423Y-11682423D02*
X20523423Y-11399577D01*
X20240577Y-11399577D01*
X20240577Y-11682423D01*
X20523423Y-11682423D01*
X20983423Y-13405423D02*
X20983423Y-13122577D01*
X20700577Y-13122577D01*
X20700577Y-13405423D01*
X20983423Y-13405423D01*
X21899423Y-9959423D02*
X21899423Y-9676577D01*
X21616577Y-9676577D01*
X21616577Y-9959423D01*
X21899423Y-9959423D01*
X22315423Y-15131423D02*
X22315423Y-14848577D01*
X22032577Y-14848577D01*
X22032577Y-15131423D01*
X22315423Y-15131423D01*
X22345423Y-11682423D02*
X22345423Y-11399577D01*
X22062577Y-11399577D01*
X22062577Y-11682423D01*
X22345423Y-11682423D01*
X22805423Y-13405423D02*
X22805423Y-13122577D01*
X22522577Y-13122577D01*
X22522577Y-13405423D01*
X22805423Y-13405423D01*
X23722423Y-9959423D02*
X23722423Y-9676577D01*
X23439577Y-9676577D01*
X23439577Y-9959423D01*
X23722423Y-9959423D01*
X24136423Y-15130923D02*
X24136423Y-14848077D01*
X23853577Y-14848077D01*
X23853577Y-15130923D01*
X24136423Y-15130923D01*
X25063423Y-11681423D02*
X25063423Y-11398577D01*
X24780577Y-11398577D01*
X24780577Y-11681423D01*
X25063423Y-11681423D01*
X25306423Y-13401423D02*
X25306423Y-13118577D01*
X25023577Y-13118577D01*
X25023577Y-13401423D01*
X25306423Y-13401423D01*
X25761423Y-9956423D02*
X25761423Y-9673577D01*
X25478577Y-9673577D01*
X25478577Y-9956423D01*
X25761423Y-9956423D01*
X25962423Y-15130423D02*
X25962423Y-14847577D01*
X25679577Y-14847577D01*
X25679577Y-15130423D01*
X25962423Y-15130423D01*
D11*
X2545656Y-16430513D02*
X2545656Y-16230513D01*
X2593275Y-16230513D01*
X2621847Y-16240037D01*
X2640895Y-16259085D01*
X2650418Y-16278133D01*
X2659942Y-16316228D01*
X2659942Y-16344799D01*
X2650418Y-16382894D01*
X2640895Y-16401942D01*
X2621847Y-16420990D01*
X2593275Y-16430513D01*
X2545656Y-16430513D01*
X2745656Y-16430513D02*
X2745656Y-16297180D01*
X2745656Y-16335275D02*
X2755180Y-16316228D01*
X2764704Y-16306704D01*
X2783752Y-16297180D01*
X2802799Y-16297180D01*
X2869466Y-16430513D02*
X2869466Y-16297180D01*
X2869466Y-16230513D02*
X2859942Y-16240037D01*
X2869466Y-16249561D01*
X2878990Y-16240037D01*
X2869466Y-16230513D01*
X2869466Y-16249561D01*
X2993275Y-16430513D02*
X2974228Y-16420990D01*
X2964704Y-16401942D01*
X2964704Y-16230513D01*
X3098037Y-16430513D02*
X3078990Y-16420990D01*
X3069466Y-16401942D01*
X3069466Y-16230513D01*
X3326609Y-16430513D02*
X3326609Y-16230513D01*
X3393275Y-16373371D01*
X3459942Y-16230513D01*
X3459942Y-16430513D01*
X3640894Y-16430513D02*
X3640894Y-16325752D01*
X3631371Y-16306704D01*
X3612323Y-16297180D01*
X3574228Y-16297180D01*
X3555180Y-16306704D01*
X3640894Y-16420990D02*
X3621847Y-16430513D01*
X3574228Y-16430513D01*
X3555180Y-16420990D01*
X3545656Y-16401942D01*
X3545656Y-16382894D01*
X3555180Y-16363847D01*
X3574228Y-16354323D01*
X3621847Y-16354323D01*
X3640894Y-16344799D01*
X3736133Y-16297180D02*
X3736133Y-16497180D01*
X3736133Y-16306704D02*
X3755180Y-16297180D01*
X3793275Y-16297180D01*
X3812323Y-16306704D01*
X3821847Y-16316228D01*
X3831371Y-16335275D01*
X3831371Y-16392418D01*
X3821847Y-16411466D01*
X3812323Y-16420990D01*
X3793275Y-16430513D01*
X3755180Y-16430513D01*
X3736133Y-16420990D01*
X3917085Y-16411466D02*
X3926609Y-16420990D01*
X3917085Y-16430513D01*
X3907561Y-16420990D01*
X3917085Y-16411466D01*
X3917085Y-16430513D01*
X3917085Y-16306704D02*
X3926609Y-16316228D01*
X3917085Y-16325752D01*
X3907561Y-16316228D01*
X3917085Y-16306704D01*
X3917085Y-16325752D01*
D12*
X2118037Y-16675037D02*
X2288037Y-16845037D01*
X2288037Y-16675037D02*
X2118037Y-16845037D01*
D11*
X2650418Y-16850514D02*
X2536133Y-16850514D01*
X2593275Y-16850514D02*
X2593275Y-16650513D01*
X2574228Y-16679085D01*
X2555180Y-16698133D01*
X2536133Y-16707656D01*
X2736133Y-16831466D02*
X2745656Y-16840990D01*
X2736133Y-16850514D01*
X2726609Y-16840990D01*
X2736133Y-16831466D01*
X2736133Y-16850514D01*
X2812323Y-16650513D02*
X2945656Y-16650513D01*
X2859942Y-16850514D01*
X3059942Y-16650513D02*
X3078990Y-16650513D01*
X3098037Y-16660037D01*
X3107561Y-16669561D01*
X3117085Y-16688609D01*
X3126609Y-16726704D01*
X3126609Y-16774323D01*
X3117085Y-16812418D01*
X3107561Y-16831466D01*
X3098037Y-16840990D01*
X3078990Y-16850514D01*
X3059942Y-16850514D01*
X3040894Y-16840990D01*
X3031371Y-16831466D01*
X3021847Y-16812418D01*
X3012323Y-16774323D01*
X3012323Y-16726704D01*
X3021847Y-16688609D01*
X3031371Y-16669561D01*
X3040894Y-16660037D01*
X3059942Y-16650513D01*
X3250418Y-16650513D02*
X3269466Y-16650513D01*
X3288513Y-16660037D01*
X3298037Y-16669561D01*
X3307561Y-16688609D01*
X3317085Y-16726704D01*
X3317085Y-16774323D01*
X3307561Y-16812418D01*
X3298037Y-16831466D01*
X3288513Y-16840990D01*
X3269466Y-16850514D01*
X3250418Y-16850514D01*
X3231371Y-16840990D01*
X3221847Y-16831466D01*
X3212323Y-16812418D01*
X3202799Y-16774323D01*
X3202799Y-16726704D01*
X3212323Y-16688609D01*
X3221847Y-16669561D01*
X3231371Y-16660037D01*
X3250418Y-16650513D01*
X3402799Y-16850514D02*
X3402799Y-16717180D01*
X3402799Y-16736228D02*
X3412323Y-16726704D01*
X3431371Y-16717180D01*
X3459942Y-16717180D01*
X3478990Y-16726704D01*
X3488513Y-16745752D01*
X3488513Y-16850514D01*
X3488513Y-16745752D02*
X3498037Y-16726704D01*
X3517085Y-16717180D01*
X3545656Y-16717180D01*
X3564704Y-16726704D01*
X3574228Y-16745752D01*
X3574228Y-16850514D01*
X3669466Y-16850514D02*
X3669466Y-16717180D01*
X3669466Y-16736228D02*
X3678990Y-16726704D01*
X3698037Y-16717180D01*
X3726609Y-16717180D01*
X3745656Y-16726704D01*
X3755180Y-16745752D01*
X3755180Y-16850514D01*
X3755180Y-16745752D02*
X3764704Y-16726704D01*
X3783752Y-16717180D01*
X3812323Y-16717180D01*
X3831371Y-16726704D01*
X3840894Y-16745752D01*
X3840894Y-16850514D01*
X4231371Y-16640990D02*
X4059942Y-16898133D01*
X4488514Y-16650513D02*
X4507561Y-16650513D01*
X4526609Y-16660037D01*
X4536133Y-16669561D01*
X4545656Y-16688609D01*
X4555180Y-16726704D01*
X4555180Y-16774323D01*
X4545656Y-16812418D01*
X4536133Y-16831466D01*
X4526609Y-16840990D01*
X4507561Y-16850514D01*
X4488514Y-16850514D01*
X4469466Y-16840990D01*
X4459942Y-16831466D01*
X4450418Y-16812418D01*
X4440895Y-16774323D01*
X4440895Y-16726704D01*
X4450418Y-16688609D01*
X4459942Y-16669561D01*
X4469466Y-16660037D01*
X4488514Y-16650513D01*
X4640895Y-16831466D02*
X4650418Y-16840990D01*
X4640895Y-16850514D01*
X4631371Y-16840990D01*
X4640895Y-16831466D01*
X4640895Y-16850514D01*
X4774228Y-16650513D02*
X4793275Y-16650513D01*
X4812323Y-16660037D01*
X4821847Y-16669561D01*
X4831371Y-16688609D01*
X4840895Y-16726704D01*
X4840895Y-16774323D01*
X4831371Y-16812418D01*
X4821847Y-16831466D01*
X4812323Y-16840990D01*
X4793275Y-16850514D01*
X4774228Y-16850514D01*
X4755180Y-16840990D01*
X4745656Y-16831466D01*
X4736133Y-16812418D01*
X4726609Y-16774323D01*
X4726609Y-16726704D01*
X4736133Y-16688609D01*
X4745656Y-16669561D01*
X4755180Y-16660037D01*
X4774228Y-16650513D01*
X5012323Y-16650513D02*
X4974228Y-16650513D01*
X4955180Y-16660037D01*
X4945656Y-16669561D01*
X4926609Y-16698133D01*
X4917085Y-16736228D01*
X4917085Y-16812418D01*
X4926609Y-16831466D01*
X4936133Y-16840990D01*
X4955180Y-16850514D01*
X4993275Y-16850514D01*
X5012323Y-16840990D01*
X5021847Y-16831466D01*
X5031371Y-16812418D01*
X5031371Y-16764799D01*
X5021847Y-16745752D01*
X5012323Y-16736228D01*
X4993275Y-16726704D01*
X4955180Y-16726704D01*
X4936133Y-16736228D01*
X4926609Y-16745752D01*
X4917085Y-16764799D01*
X5202799Y-16650513D02*
X5164704Y-16650513D01*
X5145656Y-16660037D01*
X5136133Y-16669561D01*
X5117085Y-16698133D01*
X5107561Y-16736228D01*
X5107561Y-16812418D01*
X5117085Y-16831466D01*
X5126609Y-16840990D01*
X5145656Y-16850514D01*
X5183752Y-16850514D01*
X5202799Y-16840990D01*
X5212323Y-16831466D01*
X5221847Y-16812418D01*
X5221847Y-16764799D01*
X5212323Y-16745752D01*
X5202799Y-16736228D01*
X5183752Y-16726704D01*
X5145656Y-16726704D01*
X5126609Y-16736228D01*
X5117085Y-16745752D01*
X5107561Y-16764799D01*
X5317085Y-16850514D02*
X5355180Y-16850514D01*
X5374228Y-16840990D01*
X5383752Y-16831466D01*
X5402799Y-16802895D01*
X5412323Y-16764799D01*
X5412323Y-16688609D01*
X5402799Y-16669561D01*
X5393275Y-16660037D01*
X5374228Y-16650513D01*
X5336133Y-16650513D01*
X5317085Y-16660037D01*
X5307561Y-16669561D01*
X5298037Y-16688609D01*
X5298037Y-16736228D01*
X5307561Y-16755275D01*
X5317085Y-16764799D01*
X5336133Y-16774323D01*
X5374228Y-16774323D01*
X5393275Y-16764799D01*
X5402799Y-16755275D01*
X5412323Y-16736228D01*
X5488514Y-16650513D02*
X5488514Y-16688609D01*
X5564704Y-16650513D02*
X5564704Y-16688609D01*
X5859942Y-16926704D02*
X5850418Y-16917180D01*
X5831371Y-16888609D01*
X5821847Y-16869561D01*
X5812323Y-16840990D01*
X5802799Y-16793371D01*
X5802799Y-16755275D01*
X5812323Y-16707656D01*
X5821847Y-16679085D01*
X5831371Y-16660037D01*
X5850418Y-16631466D01*
X5859942Y-16621942D01*
X5945656Y-16850514D02*
X5983752Y-16850514D01*
X6002799Y-16840990D01*
X6012323Y-16831466D01*
X6031371Y-16802895D01*
X6040894Y-16764799D01*
X6040894Y-16688609D01*
X6031371Y-16669561D01*
X6021847Y-16660037D01*
X6002799Y-16650513D01*
X5964704Y-16650513D01*
X5945656Y-16660037D01*
X5936133Y-16669561D01*
X5926609Y-16688609D01*
X5926609Y-16736228D01*
X5936133Y-16755275D01*
X5945656Y-16764799D01*
X5964704Y-16774323D01*
X6002799Y-16774323D01*
X6021847Y-16764799D01*
X6031371Y-16755275D01*
X6040894Y-16736228D01*
X6212323Y-16650513D02*
X6174228Y-16650513D01*
X6155180Y-16660037D01*
X6145656Y-16669561D01*
X6126609Y-16698133D01*
X6117085Y-16736228D01*
X6117085Y-16812418D01*
X6126609Y-16831466D01*
X6136133Y-16840990D01*
X6155180Y-16850514D01*
X6193275Y-16850514D01*
X6212323Y-16840990D01*
X6221847Y-16831466D01*
X6231371Y-16812418D01*
X6231371Y-16764799D01*
X6221847Y-16745752D01*
X6212323Y-16736228D01*
X6193275Y-16726704D01*
X6155180Y-16726704D01*
X6136133Y-16736228D01*
X6126609Y-16745752D01*
X6117085Y-16764799D01*
X6469466Y-16850514D02*
X6469466Y-16650513D01*
X6555180Y-16850514D02*
X6555180Y-16745752D01*
X6545656Y-16726704D01*
X6526609Y-16717180D01*
X6498037Y-16717180D01*
X6478990Y-16726704D01*
X6469466Y-16736228D01*
X6678990Y-16850514D02*
X6659942Y-16840990D01*
X6650418Y-16831466D01*
X6640894Y-16812418D01*
X6640894Y-16755275D01*
X6650418Y-16736228D01*
X6659942Y-16726704D01*
X6678990Y-16717180D01*
X6707561Y-16717180D01*
X6726609Y-16726704D01*
X6736133Y-16736228D01*
X6745656Y-16755275D01*
X6745656Y-16812418D01*
X6736133Y-16831466D01*
X6726609Y-16840990D01*
X6707561Y-16850514D01*
X6678990Y-16850514D01*
X6859942Y-16850514D02*
X6840894Y-16840990D01*
X6831371Y-16821942D01*
X6831371Y-16650513D01*
X7012323Y-16840990D02*
X6993275Y-16850514D01*
X6955180Y-16850514D01*
X6936133Y-16840990D01*
X6926609Y-16821942D01*
X6926609Y-16745752D01*
X6936133Y-16726704D01*
X6955180Y-16717180D01*
X6993275Y-16717180D01*
X7012323Y-16726704D01*
X7021847Y-16745752D01*
X7021847Y-16764799D01*
X6926609Y-16783847D01*
X7098037Y-16840990D02*
X7117085Y-16850514D01*
X7155180Y-16850514D01*
X7174228Y-16840990D01*
X7183752Y-16821942D01*
X7183752Y-16812418D01*
X7174228Y-16793371D01*
X7155180Y-16783847D01*
X7126609Y-16783847D01*
X7107561Y-16774323D01*
X7098037Y-16755275D01*
X7098037Y-16745752D01*
X7107561Y-16726704D01*
X7126609Y-16717180D01*
X7155180Y-16717180D01*
X7174228Y-16726704D01*
X7250418Y-16926704D02*
X7259942Y-16917180D01*
X7278990Y-16888609D01*
X7288513Y-16869561D01*
X7298037Y-16840990D01*
X7307561Y-16793371D01*
X7307561Y-16755275D01*
X7298037Y-16707656D01*
X7288513Y-16679085D01*
X7278990Y-16660037D01*
X7259942Y-16631466D01*
X7250418Y-16621942D01*
X7612323Y-16926704D02*
X7602799Y-16917180D01*
X7583752Y-16888609D01*
X7574228Y-16869561D01*
X7564704Y-16840990D01*
X7555180Y-16793371D01*
X7555180Y-16755275D01*
X7564704Y-16707656D01*
X7574228Y-16679085D01*
X7583752Y-16660037D01*
X7602799Y-16631466D01*
X7612323Y-16621942D01*
X7688513Y-16717180D02*
X7688513Y-16850514D01*
X7688513Y-16736228D02*
X7698037Y-16726704D01*
X7717085Y-16717180D01*
X7745656Y-16717180D01*
X7764704Y-16726704D01*
X7774228Y-16745752D01*
X7774228Y-16850514D01*
X7898037Y-16850514D02*
X7878990Y-16840990D01*
X7869466Y-16831466D01*
X7859942Y-16812418D01*
X7859942Y-16755275D01*
X7869466Y-16736228D01*
X7878990Y-16726704D01*
X7898037Y-16717180D01*
X7926609Y-16717180D01*
X7945656Y-16726704D01*
X7955180Y-16736228D01*
X7964704Y-16755275D01*
X7964704Y-16812418D01*
X7955180Y-16831466D01*
X7945656Y-16840990D01*
X7926609Y-16850514D01*
X7898037Y-16850514D01*
X8021847Y-16717180D02*
X8098037Y-16717180D01*
X8050418Y-16650513D02*
X8050418Y-16821942D01*
X8059942Y-16840990D01*
X8078990Y-16850514D01*
X8098037Y-16850514D01*
X8317085Y-16717180D02*
X8317085Y-16917180D01*
X8317085Y-16726704D02*
X8336133Y-16717180D01*
X8374228Y-16717180D01*
X8393275Y-16726704D01*
X8402799Y-16736228D01*
X8412323Y-16755275D01*
X8412323Y-16812418D01*
X8402799Y-16831466D01*
X8393275Y-16840990D01*
X8374228Y-16850514D01*
X8336133Y-16850514D01*
X8317085Y-16840990D01*
X8526609Y-16850514D02*
X8507561Y-16840990D01*
X8498037Y-16821942D01*
X8498037Y-16650513D01*
X8688514Y-16850514D02*
X8688514Y-16745752D01*
X8678990Y-16726704D01*
X8659942Y-16717180D01*
X8621847Y-16717180D01*
X8602799Y-16726704D01*
X8688514Y-16840990D02*
X8669466Y-16850514D01*
X8621847Y-16850514D01*
X8602799Y-16840990D01*
X8593275Y-16821942D01*
X8593275Y-16802895D01*
X8602799Y-16783847D01*
X8621847Y-16774323D01*
X8669466Y-16774323D01*
X8688514Y-16764799D01*
X8755180Y-16717180D02*
X8831371Y-16717180D01*
X8783752Y-16650513D02*
X8783752Y-16821942D01*
X8793275Y-16840990D01*
X8812323Y-16850514D01*
X8831371Y-16850514D01*
X8974228Y-16840990D02*
X8955180Y-16850514D01*
X8917085Y-16850514D01*
X8898037Y-16840990D01*
X8888514Y-16821942D01*
X8888514Y-16745752D01*
X8898037Y-16726704D01*
X8917085Y-16717180D01*
X8955180Y-16717180D01*
X8974228Y-16726704D01*
X8983752Y-16745752D01*
X8983752Y-16764799D01*
X8888514Y-16783847D01*
X9155180Y-16850514D02*
X9155180Y-16650513D01*
X9155180Y-16840990D02*
X9136133Y-16850514D01*
X9098037Y-16850514D01*
X9078990Y-16840990D01*
X9069466Y-16831466D01*
X9059942Y-16812418D01*
X9059942Y-16755275D01*
X9069466Y-16736228D01*
X9078990Y-16726704D01*
X9098037Y-16717180D01*
X9136133Y-16717180D01*
X9155180Y-16726704D01*
X9231371Y-16926704D02*
X9240895Y-16917180D01*
X9259942Y-16888609D01*
X9269466Y-16869561D01*
X9278990Y-16840990D01*
X9288514Y-16793371D01*
X9288514Y-16755275D01*
X9278990Y-16707656D01*
X9269466Y-16679085D01*
X9259942Y-16660037D01*
X9240895Y-16631466D01*
X9231371Y-16621942D01*
X2288037Y-17050037D02*
G75*
G03*
X2288037Y-17050037I-100000J0D01*
G01*
X2536133Y-16959561D02*
X2545656Y-16950037D01*
X2564704Y-16940514D01*
X2612323Y-16940514D01*
X2631371Y-16950037D01*
X2640895Y-16959561D01*
X2650418Y-16978609D01*
X2650418Y-16997656D01*
X2640895Y-17026228D01*
X2526609Y-17140514D01*
X2650418Y-17140514D01*
X2736133Y-17121466D02*
X2745656Y-17130990D01*
X2736133Y-17140514D01*
X2726609Y-17130990D01*
X2736133Y-17121466D01*
X2736133Y-17140514D01*
X2821847Y-16959561D02*
X2831371Y-16950037D01*
X2850418Y-16940514D01*
X2898037Y-16940514D01*
X2917085Y-16950037D01*
X2926609Y-16959561D01*
X2936133Y-16978609D01*
X2936133Y-16997656D01*
X2926609Y-17026228D01*
X2812323Y-17140514D01*
X2936133Y-17140514D01*
X3059942Y-16940514D02*
X3078990Y-16940514D01*
X3098037Y-16950037D01*
X3107561Y-16959561D01*
X3117085Y-16978609D01*
X3126609Y-17016704D01*
X3126609Y-17064323D01*
X3117085Y-17102418D01*
X3107561Y-17121466D01*
X3098037Y-17130990D01*
X3078990Y-17140514D01*
X3059942Y-17140514D01*
X3040894Y-17130990D01*
X3031371Y-17121466D01*
X3021847Y-17102418D01*
X3012323Y-17064323D01*
X3012323Y-17016704D01*
X3021847Y-16978609D01*
X3031371Y-16959561D01*
X3040894Y-16950037D01*
X3059942Y-16940514D01*
X3250418Y-16940514D02*
X3269466Y-16940514D01*
X3288513Y-16950037D01*
X3298037Y-16959561D01*
X3307561Y-16978609D01*
X3317085Y-17016704D01*
X3317085Y-17064323D01*
X3307561Y-17102418D01*
X3298037Y-17121466D01*
X3288513Y-17130990D01*
X3269466Y-17140514D01*
X3250418Y-17140514D01*
X3231371Y-17130990D01*
X3221847Y-17121466D01*
X3212323Y-17102418D01*
X3202799Y-17064323D01*
X3202799Y-17016704D01*
X3212323Y-16978609D01*
X3221847Y-16959561D01*
X3231371Y-16950037D01*
X3250418Y-16940514D01*
X3402799Y-17140514D02*
X3402799Y-17007180D01*
X3402799Y-17026228D02*
X3412323Y-17016704D01*
X3431371Y-17007180D01*
X3459942Y-17007180D01*
X3478990Y-17016704D01*
X3488513Y-17035752D01*
X3488513Y-17140514D01*
X3488513Y-17035752D02*
X3498037Y-17016704D01*
X3517085Y-17007180D01*
X3545656Y-17007180D01*
X3564704Y-17016704D01*
X3574228Y-17035752D01*
X3574228Y-17140514D01*
X3669466Y-17140514D02*
X3669466Y-17007180D01*
X3669466Y-17026228D02*
X3678990Y-17016704D01*
X3698037Y-17007180D01*
X3726609Y-17007180D01*
X3745656Y-17016704D01*
X3755180Y-17035752D01*
X3755180Y-17140514D01*
X3755180Y-17035752D02*
X3764704Y-17016704D01*
X3783752Y-17007180D01*
X3812323Y-17007180D01*
X3831371Y-17016704D01*
X3840894Y-17035752D01*
X3840894Y-17140514D01*
X4231371Y-16930990D02*
X4059942Y-17188133D01*
X4488514Y-16940514D02*
X4507561Y-16940514D01*
X4526609Y-16950037D01*
X4536133Y-16959561D01*
X4545656Y-16978609D01*
X4555180Y-17016704D01*
X4555180Y-17064323D01*
X4545656Y-17102418D01*
X4536133Y-17121466D01*
X4526609Y-17130990D01*
X4507561Y-17140514D01*
X4488514Y-17140514D01*
X4469466Y-17130990D01*
X4459942Y-17121466D01*
X4450418Y-17102418D01*
X4440895Y-17064323D01*
X4440895Y-17016704D01*
X4450418Y-16978609D01*
X4459942Y-16959561D01*
X4469466Y-16950037D01*
X4488514Y-16940514D01*
X4640895Y-17121466D02*
X4650418Y-17130990D01*
X4640895Y-17140514D01*
X4631371Y-17130990D01*
X4640895Y-17121466D01*
X4640895Y-17140514D01*
X4774228Y-16940514D02*
X4793275Y-16940514D01*
X4812323Y-16950037D01*
X4821847Y-16959561D01*
X4831371Y-16978609D01*
X4840895Y-17016704D01*
X4840895Y-17064323D01*
X4831371Y-17102418D01*
X4821847Y-17121466D01*
X4812323Y-17130990D01*
X4793275Y-17140514D01*
X4774228Y-17140514D01*
X4755180Y-17130990D01*
X4745656Y-17121466D01*
X4736133Y-17102418D01*
X4726609Y-17064323D01*
X4726609Y-17016704D01*
X4736133Y-16978609D01*
X4745656Y-16959561D01*
X4755180Y-16950037D01*
X4774228Y-16940514D01*
X4955180Y-17026228D02*
X4936133Y-17016704D01*
X4926609Y-17007180D01*
X4917085Y-16988133D01*
X4917085Y-16978609D01*
X4926609Y-16959561D01*
X4936133Y-16950037D01*
X4955180Y-16940514D01*
X4993275Y-16940514D01*
X5012323Y-16950037D01*
X5021847Y-16959561D01*
X5031371Y-16978609D01*
X5031371Y-16988133D01*
X5021847Y-17007180D01*
X5012323Y-17016704D01*
X4993275Y-17026228D01*
X4955180Y-17026228D01*
X4936133Y-17035752D01*
X4926609Y-17045275D01*
X4917085Y-17064323D01*
X4917085Y-17102418D01*
X4926609Y-17121466D01*
X4936133Y-17130990D01*
X4955180Y-17140514D01*
X4993275Y-17140514D01*
X5012323Y-17130990D01*
X5021847Y-17121466D01*
X5031371Y-17102418D01*
X5031371Y-17064323D01*
X5021847Y-17045275D01*
X5012323Y-17035752D01*
X4993275Y-17026228D01*
X5202799Y-16940514D02*
X5164704Y-16940514D01*
X5145656Y-16950037D01*
X5136133Y-16959561D01*
X5117085Y-16988133D01*
X5107561Y-17026228D01*
X5107561Y-17102418D01*
X5117085Y-17121466D01*
X5126609Y-17130990D01*
X5145656Y-17140514D01*
X5183752Y-17140514D01*
X5202799Y-17130990D01*
X5212323Y-17121466D01*
X5221847Y-17102418D01*
X5221847Y-17054799D01*
X5212323Y-17035752D01*
X5202799Y-17026228D01*
X5183752Y-17016704D01*
X5145656Y-17016704D01*
X5126609Y-17026228D01*
X5117085Y-17035752D01*
X5107561Y-17054799D01*
X5393275Y-16940514D02*
X5355180Y-16940514D01*
X5336133Y-16950037D01*
X5326609Y-16959561D01*
X5307561Y-16988133D01*
X5298037Y-17026228D01*
X5298037Y-17102418D01*
X5307561Y-17121466D01*
X5317085Y-17130990D01*
X5336133Y-17140514D01*
X5374228Y-17140514D01*
X5393275Y-17130990D01*
X5402799Y-17121466D01*
X5412323Y-17102418D01*
X5412323Y-17054799D01*
X5402799Y-17035752D01*
X5393275Y-17026228D01*
X5374228Y-17016704D01*
X5336133Y-17016704D01*
X5317085Y-17026228D01*
X5307561Y-17035752D01*
X5298037Y-17054799D01*
X5488514Y-16940514D02*
X5488514Y-16978609D01*
X5564704Y-16940514D02*
X5564704Y-16978609D01*
X5859942Y-17216704D02*
X5850418Y-17207180D01*
X5831371Y-17178609D01*
X5821847Y-17159561D01*
X5812323Y-17130990D01*
X5802799Y-17083371D01*
X5802799Y-17045275D01*
X5812323Y-16997656D01*
X5821847Y-16969085D01*
X5831371Y-16950037D01*
X5850418Y-16921466D01*
X5859942Y-16911942D01*
X6040894Y-17140514D02*
X5926609Y-17140514D01*
X5983752Y-17140514D02*
X5983752Y-16940514D01*
X5964704Y-16969085D01*
X5945656Y-16988133D01*
X5926609Y-16997656D01*
X6231371Y-17140514D02*
X6117085Y-17140514D01*
X6174228Y-17140514D02*
X6174228Y-16940514D01*
X6155180Y-16969085D01*
X6136133Y-16988133D01*
X6117085Y-16997656D01*
X6469466Y-17140514D02*
X6469466Y-16940514D01*
X6555180Y-17140514D02*
X6555180Y-17035752D01*
X6545656Y-17016704D01*
X6526609Y-17007180D01*
X6498037Y-17007180D01*
X6478990Y-17016704D01*
X6469466Y-17026228D01*
X6678990Y-17140514D02*
X6659942Y-17130990D01*
X6650418Y-17121466D01*
X6640894Y-17102418D01*
X6640894Y-17045275D01*
X6650418Y-17026228D01*
X6659942Y-17016704D01*
X6678990Y-17007180D01*
X6707561Y-17007180D01*
X6726609Y-17016704D01*
X6736133Y-17026228D01*
X6745656Y-17045275D01*
X6745656Y-17102418D01*
X6736133Y-17121466D01*
X6726609Y-17130990D01*
X6707561Y-17140514D01*
X6678990Y-17140514D01*
X6859942Y-17140514D02*
X6840894Y-17130990D01*
X6831371Y-17111942D01*
X6831371Y-16940514D01*
X7012323Y-17130990D02*
X6993275Y-17140514D01*
X6955180Y-17140514D01*
X6936133Y-17130990D01*
X6926609Y-17111942D01*
X6926609Y-17035752D01*
X6936133Y-17016704D01*
X6955180Y-17007180D01*
X6993275Y-17007180D01*
X7012323Y-17016704D01*
X7021847Y-17035752D01*
X7021847Y-17054799D01*
X6926609Y-17073847D01*
X7098037Y-17130990D02*
X7117085Y-17140514D01*
X7155180Y-17140514D01*
X7174228Y-17130990D01*
X7183752Y-17111942D01*
X7183752Y-17102418D01*
X7174228Y-17083371D01*
X7155180Y-17073847D01*
X7126609Y-17073847D01*
X7107561Y-17064323D01*
X7098037Y-17045275D01*
X7098037Y-17035752D01*
X7107561Y-17016704D01*
X7126609Y-17007180D01*
X7155180Y-17007180D01*
X7174228Y-17016704D01*
X7250418Y-17216704D02*
X7259942Y-17207180D01*
X7278990Y-17178609D01*
X7288513Y-17159561D01*
X7298037Y-17130990D01*
X7307561Y-17083371D01*
X7307561Y-17045275D01*
X7298037Y-16997656D01*
X7288513Y-16969085D01*
X7278990Y-16950037D01*
X7259942Y-16921466D01*
X7250418Y-16911942D01*
X7612323Y-17216704D02*
X7602799Y-17207180D01*
X7583752Y-17178609D01*
X7574228Y-17159561D01*
X7564704Y-17130990D01*
X7555180Y-17083371D01*
X7555180Y-17045275D01*
X7564704Y-16997656D01*
X7574228Y-16969085D01*
X7583752Y-16950037D01*
X7602799Y-16921466D01*
X7612323Y-16911942D01*
X7688513Y-17007180D02*
X7688513Y-17140514D01*
X7688513Y-17026228D02*
X7698037Y-17016704D01*
X7717085Y-17007180D01*
X7745656Y-17007180D01*
X7764704Y-17016704D01*
X7774228Y-17035752D01*
X7774228Y-17140514D01*
X7898037Y-17140514D02*
X7878990Y-17130990D01*
X7869466Y-17121466D01*
X7859942Y-17102418D01*
X7859942Y-17045275D01*
X7869466Y-17026228D01*
X7878990Y-17016704D01*
X7898037Y-17007180D01*
X7926609Y-17007180D01*
X7945656Y-17016704D01*
X7955180Y-17026228D01*
X7964704Y-17045275D01*
X7964704Y-17102418D01*
X7955180Y-17121466D01*
X7945656Y-17130990D01*
X7926609Y-17140514D01*
X7898037Y-17140514D01*
X8021847Y-17007180D02*
X8098037Y-17007180D01*
X8050418Y-16940514D02*
X8050418Y-17111942D01*
X8059942Y-17130990D01*
X8078990Y-17140514D01*
X8098037Y-17140514D01*
X8317085Y-17007180D02*
X8317085Y-17207180D01*
X8317085Y-17016704D02*
X8336133Y-17007180D01*
X8374228Y-17007180D01*
X8393275Y-17016704D01*
X8402799Y-17026228D01*
X8412323Y-17045275D01*
X8412323Y-17102418D01*
X8402799Y-17121466D01*
X8393275Y-17130990D01*
X8374228Y-17140514D01*
X8336133Y-17140514D01*
X8317085Y-17130990D01*
X8526609Y-17140514D02*
X8507561Y-17130990D01*
X8498037Y-17111942D01*
X8498037Y-16940514D01*
X8688514Y-17140514D02*
X8688514Y-17035752D01*
X8678990Y-17016704D01*
X8659942Y-17007180D01*
X8621847Y-17007180D01*
X8602799Y-17016704D01*
X8688514Y-17130990D02*
X8669466Y-17140514D01*
X8621847Y-17140514D01*
X8602799Y-17130990D01*
X8593275Y-17111942D01*
X8593275Y-17092895D01*
X8602799Y-17073847D01*
X8621847Y-17064323D01*
X8669466Y-17064323D01*
X8688514Y-17054799D01*
X8755180Y-17007180D02*
X8831371Y-17007180D01*
X8783752Y-16940514D02*
X8783752Y-17111942D01*
X8793275Y-17130990D01*
X8812323Y-17140514D01*
X8831371Y-17140514D01*
X8974228Y-17130990D02*
X8955180Y-17140514D01*
X8917085Y-17140514D01*
X8898037Y-17130990D01*
X8888514Y-17111942D01*
X8888514Y-17035752D01*
X8898037Y-17016704D01*
X8917085Y-17007180D01*
X8955180Y-17007180D01*
X8974228Y-17016704D01*
X8983752Y-17035752D01*
X8983752Y-17054799D01*
X8888514Y-17073847D01*
X9155180Y-17140514D02*
X9155180Y-16940514D01*
X9155180Y-17130990D02*
X9136133Y-17140514D01*
X9098037Y-17140514D01*
X9078990Y-17130990D01*
X9069466Y-17121466D01*
X9059942Y-17102418D01*
X9059942Y-17045275D01*
X9069466Y-17026228D01*
X9078990Y-17016704D01*
X9098037Y-17007180D01*
X9136133Y-17007180D01*
X9155180Y-17016704D01*
X9231371Y-17216704D02*
X9240895Y-17207180D01*
X9259942Y-17178609D01*
X9269466Y-17159561D01*
X9278990Y-17130990D01*
X9288514Y-17083371D01*
X9288514Y-17045275D01*
X9278990Y-16997656D01*
X9269466Y-16969085D01*
X9259942Y-16950037D01*
X9240895Y-16921466D01*
X9231371Y-16911942D01*
X2188037Y-17270037D02*
X2188037Y-17470037D01*
X2088037Y-17370037D02*
X2288037Y-17370037D01*
X2526609Y-17260514D02*
X2650418Y-17260514D01*
X2583752Y-17336704D01*
X2612323Y-17336704D01*
X2631371Y-17346228D01*
X2640895Y-17355752D01*
X2650418Y-17374799D01*
X2650418Y-17422418D01*
X2640895Y-17441466D01*
X2631371Y-17450990D01*
X2612323Y-17460514D01*
X2555180Y-17460514D01*
X2536133Y-17450990D01*
X2526609Y-17441466D01*
X2736133Y-17441466D02*
X2745656Y-17450990D01*
X2736133Y-17460514D01*
X2726609Y-17450990D01*
X2736133Y-17441466D01*
X2736133Y-17460514D01*
X2869466Y-17260514D02*
X2888513Y-17260514D01*
X2907561Y-17270037D01*
X2917085Y-17279561D01*
X2926609Y-17298609D01*
X2936133Y-17336704D01*
X2936133Y-17384323D01*
X2926609Y-17422418D01*
X2917085Y-17441466D01*
X2907561Y-17450990D01*
X2888513Y-17460514D01*
X2869466Y-17460514D01*
X2850418Y-17450990D01*
X2840894Y-17441466D01*
X2831371Y-17422418D01*
X2821847Y-17384323D01*
X2821847Y-17336704D01*
X2831371Y-17298609D01*
X2840894Y-17279561D01*
X2850418Y-17270037D01*
X2869466Y-17260514D01*
X3059942Y-17260514D02*
X3078990Y-17260514D01*
X3098037Y-17270037D01*
X3107561Y-17279561D01*
X3117085Y-17298609D01*
X3126609Y-17336704D01*
X3126609Y-17384323D01*
X3117085Y-17422418D01*
X3107561Y-17441466D01*
X3098037Y-17450990D01*
X3078990Y-17460514D01*
X3059942Y-17460514D01*
X3040894Y-17450990D01*
X3031371Y-17441466D01*
X3021847Y-17422418D01*
X3012323Y-17384323D01*
X3012323Y-17336704D01*
X3021847Y-17298609D01*
X3031371Y-17279561D01*
X3040894Y-17270037D01*
X3059942Y-17260514D01*
X3250418Y-17260514D02*
X3269466Y-17260514D01*
X3288513Y-17270037D01*
X3298037Y-17279561D01*
X3307561Y-17298609D01*
X3317085Y-17336704D01*
X3317085Y-17384323D01*
X3307561Y-17422418D01*
X3298037Y-17441466D01*
X3288513Y-17450990D01*
X3269466Y-17460514D01*
X3250418Y-17460514D01*
X3231371Y-17450990D01*
X3221847Y-17441466D01*
X3212323Y-17422418D01*
X3202799Y-17384323D01*
X3202799Y-17336704D01*
X3212323Y-17298609D01*
X3221847Y-17279561D01*
X3231371Y-17270037D01*
X3250418Y-17260514D01*
X3402799Y-17460514D02*
X3402799Y-17327180D01*
X3402799Y-17346228D02*
X3412323Y-17336704D01*
X3431371Y-17327180D01*
X3459942Y-17327180D01*
X3478990Y-17336704D01*
X3488513Y-17355752D01*
X3488513Y-17460514D01*
X3488513Y-17355752D02*
X3498037Y-17336704D01*
X3517085Y-17327180D01*
X3545656Y-17327180D01*
X3564704Y-17336704D01*
X3574228Y-17355752D01*
X3574228Y-17460514D01*
X3669466Y-17460514D02*
X3669466Y-17327180D01*
X3669466Y-17346228D02*
X3678990Y-17336704D01*
X3698037Y-17327180D01*
X3726609Y-17327180D01*
X3745656Y-17336704D01*
X3755180Y-17355752D01*
X3755180Y-17460514D01*
X3755180Y-17355752D02*
X3764704Y-17336704D01*
X3783752Y-17327180D01*
X3812323Y-17327180D01*
X3831371Y-17336704D01*
X3840894Y-17355752D01*
X3840894Y-17460514D01*
X4231371Y-17250990D02*
X4059942Y-17508133D01*
X4488514Y-17260514D02*
X4507561Y-17260514D01*
X4526609Y-17270037D01*
X4536133Y-17279561D01*
X4545656Y-17298609D01*
X4555180Y-17336704D01*
X4555180Y-17384323D01*
X4545656Y-17422418D01*
X4536133Y-17441466D01*
X4526609Y-17450990D01*
X4507561Y-17460514D01*
X4488514Y-17460514D01*
X4469466Y-17450990D01*
X4459942Y-17441466D01*
X4450418Y-17422418D01*
X4440895Y-17384323D01*
X4440895Y-17336704D01*
X4450418Y-17298609D01*
X4459942Y-17279561D01*
X4469466Y-17270037D01*
X4488514Y-17260514D01*
X4640895Y-17441466D02*
X4650418Y-17450990D01*
X4640895Y-17460514D01*
X4631371Y-17450990D01*
X4640895Y-17441466D01*
X4640895Y-17460514D01*
X4840895Y-17460514D02*
X4726609Y-17460514D01*
X4783752Y-17460514D02*
X4783752Y-17260514D01*
X4764704Y-17289085D01*
X4745656Y-17308133D01*
X4726609Y-17317656D01*
X5031371Y-17460514D02*
X4917085Y-17460514D01*
X4974228Y-17460514D02*
X4974228Y-17260514D01*
X4955180Y-17289085D01*
X4936133Y-17308133D01*
X4917085Y-17317656D01*
X5145656Y-17346228D02*
X5126609Y-17336704D01*
X5117085Y-17327180D01*
X5107561Y-17308133D01*
X5107561Y-17298609D01*
X5117085Y-17279561D01*
X5126609Y-17270037D01*
X5145656Y-17260514D01*
X5183752Y-17260514D01*
X5202799Y-17270037D01*
X5212323Y-17279561D01*
X5221847Y-17298609D01*
X5221847Y-17308133D01*
X5212323Y-17327180D01*
X5202799Y-17336704D01*
X5183752Y-17346228D01*
X5145656Y-17346228D01*
X5126609Y-17355752D01*
X5117085Y-17365275D01*
X5107561Y-17384323D01*
X5107561Y-17422418D01*
X5117085Y-17441466D01*
X5126609Y-17450990D01*
X5145656Y-17460514D01*
X5183752Y-17460514D01*
X5202799Y-17450990D01*
X5212323Y-17441466D01*
X5221847Y-17422418D01*
X5221847Y-17384323D01*
X5212323Y-17365275D01*
X5202799Y-17355752D01*
X5183752Y-17346228D01*
X5412323Y-17460514D02*
X5298037Y-17460514D01*
X5355180Y-17460514D02*
X5355180Y-17260514D01*
X5336133Y-17289085D01*
X5317085Y-17308133D01*
X5298037Y-17317656D01*
X5488514Y-17260514D02*
X5488514Y-17298609D01*
X5564704Y-17260514D02*
X5564704Y-17298609D01*
X5859942Y-17536704D02*
X5850418Y-17527180D01*
X5831371Y-17498609D01*
X5821847Y-17479561D01*
X5812323Y-17450990D01*
X5802799Y-17403371D01*
X5802799Y-17365275D01*
X5812323Y-17317656D01*
X5821847Y-17289085D01*
X5831371Y-17270037D01*
X5850418Y-17241466D01*
X5859942Y-17231942D01*
X5945656Y-17460514D02*
X5983752Y-17460514D01*
X6002799Y-17450990D01*
X6012323Y-17441466D01*
X6031371Y-17412895D01*
X6040894Y-17374799D01*
X6040894Y-17298609D01*
X6031371Y-17279561D01*
X6021847Y-17270037D01*
X6002799Y-17260514D01*
X5964704Y-17260514D01*
X5945656Y-17270037D01*
X5936133Y-17279561D01*
X5926609Y-17298609D01*
X5926609Y-17346228D01*
X5936133Y-17365275D01*
X5945656Y-17374799D01*
X5964704Y-17384323D01*
X6002799Y-17384323D01*
X6021847Y-17374799D01*
X6031371Y-17365275D01*
X6040894Y-17346228D01*
X6212323Y-17260514D02*
X6174228Y-17260514D01*
X6155180Y-17270037D01*
X6145656Y-17279561D01*
X6126609Y-17308133D01*
X6117085Y-17346228D01*
X6117085Y-17422418D01*
X6126609Y-17441466D01*
X6136133Y-17450990D01*
X6155180Y-17460514D01*
X6193275Y-17460514D01*
X6212323Y-17450990D01*
X6221847Y-17441466D01*
X6231371Y-17422418D01*
X6231371Y-17374799D01*
X6221847Y-17355752D01*
X6212323Y-17346228D01*
X6193275Y-17336704D01*
X6155180Y-17336704D01*
X6136133Y-17346228D01*
X6126609Y-17355752D01*
X6117085Y-17374799D01*
X6469466Y-17460514D02*
X6469466Y-17260514D01*
X6555180Y-17460514D02*
X6555180Y-17355752D01*
X6545656Y-17336704D01*
X6526609Y-17327180D01*
X6498037Y-17327180D01*
X6478990Y-17336704D01*
X6469466Y-17346228D01*
X6678990Y-17460514D02*
X6659942Y-17450990D01*
X6650418Y-17441466D01*
X6640894Y-17422418D01*
X6640894Y-17365275D01*
X6650418Y-17346228D01*
X6659942Y-17336704D01*
X6678990Y-17327180D01*
X6707561Y-17327180D01*
X6726609Y-17336704D01*
X6736133Y-17346228D01*
X6745656Y-17365275D01*
X6745656Y-17422418D01*
X6736133Y-17441466D01*
X6726609Y-17450990D01*
X6707561Y-17460514D01*
X6678990Y-17460514D01*
X6859942Y-17460514D02*
X6840894Y-17450990D01*
X6831371Y-17431942D01*
X6831371Y-17260514D01*
X7012323Y-17450990D02*
X6993275Y-17460514D01*
X6955180Y-17460514D01*
X6936133Y-17450990D01*
X6926609Y-17431942D01*
X6926609Y-17355752D01*
X6936133Y-17336704D01*
X6955180Y-17327180D01*
X6993275Y-17327180D01*
X7012323Y-17336704D01*
X7021847Y-17355752D01*
X7021847Y-17374799D01*
X6926609Y-17393847D01*
X7098037Y-17450990D02*
X7117085Y-17460514D01*
X7155180Y-17460514D01*
X7174228Y-17450990D01*
X7183752Y-17431942D01*
X7183752Y-17422418D01*
X7174228Y-17403371D01*
X7155180Y-17393847D01*
X7126609Y-17393847D01*
X7107561Y-17384323D01*
X7098037Y-17365275D01*
X7098037Y-17355752D01*
X7107561Y-17336704D01*
X7126609Y-17327180D01*
X7155180Y-17327180D01*
X7174228Y-17336704D01*
X7250418Y-17536704D02*
X7259942Y-17527180D01*
X7278990Y-17498609D01*
X7288513Y-17479561D01*
X7298037Y-17450990D01*
X7307561Y-17403371D01*
X7307561Y-17365275D01*
X7298037Y-17317656D01*
X7288513Y-17289085D01*
X7278990Y-17270037D01*
X7259942Y-17241466D01*
X7250418Y-17231942D01*
X7612323Y-17536704D02*
X7602799Y-17527180D01*
X7583752Y-17498609D01*
X7574228Y-17479561D01*
X7564704Y-17450990D01*
X7555180Y-17403371D01*
X7555180Y-17365275D01*
X7564704Y-17317656D01*
X7574228Y-17289085D01*
X7583752Y-17270037D01*
X7602799Y-17241466D01*
X7612323Y-17231942D01*
X7688513Y-17327180D02*
X7688513Y-17460514D01*
X7688513Y-17346228D02*
X7698037Y-17336704D01*
X7717085Y-17327180D01*
X7745656Y-17327180D01*
X7764704Y-17336704D01*
X7774228Y-17355752D01*
X7774228Y-17460514D01*
X7898037Y-17460514D02*
X7878990Y-17450990D01*
X7869466Y-17441466D01*
X7859942Y-17422418D01*
X7859942Y-17365275D01*
X7869466Y-17346228D01*
X7878990Y-17336704D01*
X7898037Y-17327180D01*
X7926609Y-17327180D01*
X7945656Y-17336704D01*
X7955180Y-17346228D01*
X7964704Y-17365275D01*
X7964704Y-17422418D01*
X7955180Y-17441466D01*
X7945656Y-17450990D01*
X7926609Y-17460514D01*
X7898037Y-17460514D01*
X8021847Y-17327180D02*
X8098037Y-17327180D01*
X8050418Y-17260514D02*
X8050418Y-17431942D01*
X8059942Y-17450990D01*
X8078990Y-17460514D01*
X8098037Y-17460514D01*
X8317085Y-17327180D02*
X8317085Y-17527180D01*
X8317085Y-17336704D02*
X8336133Y-17327180D01*
X8374228Y-17327180D01*
X8393275Y-17336704D01*
X8402799Y-17346228D01*
X8412323Y-17365275D01*
X8412323Y-17422418D01*
X8402799Y-17441466D01*
X8393275Y-17450990D01*
X8374228Y-17460514D01*
X8336133Y-17460514D01*
X8317085Y-17450990D01*
X8526609Y-17460514D02*
X8507561Y-17450990D01*
X8498037Y-17431942D01*
X8498037Y-17260514D01*
X8688514Y-17460514D02*
X8688514Y-17355752D01*
X8678990Y-17336704D01*
X8659942Y-17327180D01*
X8621847Y-17327180D01*
X8602799Y-17336704D01*
X8688514Y-17450990D02*
X8669466Y-17460514D01*
X8621847Y-17460514D01*
X8602799Y-17450990D01*
X8593275Y-17431942D01*
X8593275Y-17412895D01*
X8602799Y-17393847D01*
X8621847Y-17384323D01*
X8669466Y-17384323D01*
X8688514Y-17374799D01*
X8755180Y-17327180D02*
X8831371Y-17327180D01*
X8783752Y-17260514D02*
X8783752Y-17431942D01*
X8793275Y-17450990D01*
X8812323Y-17460514D01*
X8831371Y-17460514D01*
X8974228Y-17450990D02*
X8955180Y-17460514D01*
X8917085Y-17460514D01*
X8898037Y-17450990D01*
X8888514Y-17431942D01*
X8888514Y-17355752D01*
X8898037Y-17336704D01*
X8917085Y-17327180D01*
X8955180Y-17327180D01*
X8974228Y-17336704D01*
X8983752Y-17355752D01*
X8983752Y-17374799D01*
X8888514Y-17393847D01*
X9155180Y-17460514D02*
X9155180Y-17260514D01*
X9155180Y-17450990D02*
X9136133Y-17460514D01*
X9098037Y-17460514D01*
X9078990Y-17450990D01*
X9069466Y-17441466D01*
X9059942Y-17422418D01*
X9059942Y-17365275D01*
X9069466Y-17346228D01*
X9078990Y-17336704D01*
X9098037Y-17327180D01*
X9136133Y-17327180D01*
X9155180Y-17336704D01*
X9231371Y-17536704D02*
X9240895Y-17527180D01*
X9259942Y-17498609D01*
X9269466Y-17479561D01*
X9278990Y-17450990D01*
X9288514Y-17403371D01*
X9288514Y-17365275D01*
X9278990Y-17317656D01*
X9269466Y-17289085D01*
X9259942Y-17270037D01*
X9240895Y-17241466D01*
X9231371Y-17231942D01*
X2258749Y-17760749D02*
X2258749Y-17619326D01*
X2117326Y-17619326D01*
X2117326Y-17760749D01*
X2258749Y-17760749D01*
X2631371Y-17647180D02*
X2631371Y-17780514D01*
X2583752Y-17570990D02*
X2536133Y-17713847D01*
X2659942Y-17713847D01*
X2736133Y-17761466D02*
X2745656Y-17770990D01*
X2736133Y-17780514D01*
X2726609Y-17770990D01*
X2736133Y-17761466D01*
X2736133Y-17780514D01*
X2869466Y-17580514D02*
X2888513Y-17580514D01*
X2907561Y-17590037D01*
X2917085Y-17599561D01*
X2926609Y-17618609D01*
X2936133Y-17656704D01*
X2936133Y-17704323D01*
X2926609Y-17742418D01*
X2917085Y-17761466D01*
X2907561Y-17770990D01*
X2888513Y-17780514D01*
X2869466Y-17780514D01*
X2850418Y-17770990D01*
X2840894Y-17761466D01*
X2831371Y-17742418D01*
X2821847Y-17704323D01*
X2821847Y-17656704D01*
X2831371Y-17618609D01*
X2840894Y-17599561D01*
X2850418Y-17590037D01*
X2869466Y-17580514D01*
X3059942Y-17580514D02*
X3078990Y-17580514D01*
X3098037Y-17590037D01*
X3107561Y-17599561D01*
X3117085Y-17618609D01*
X3126609Y-17656704D01*
X3126609Y-17704323D01*
X3117085Y-17742418D01*
X3107561Y-17761466D01*
X3098037Y-17770990D01*
X3078990Y-17780514D01*
X3059942Y-17780514D01*
X3040894Y-17770990D01*
X3031371Y-17761466D01*
X3021847Y-17742418D01*
X3012323Y-17704323D01*
X3012323Y-17656704D01*
X3021847Y-17618609D01*
X3031371Y-17599561D01*
X3040894Y-17590037D01*
X3059942Y-17580514D01*
X3250418Y-17580514D02*
X3269466Y-17580514D01*
X3288513Y-17590037D01*
X3298037Y-17599561D01*
X3307561Y-17618609D01*
X3317085Y-17656704D01*
X3317085Y-17704323D01*
X3307561Y-17742418D01*
X3298037Y-17761466D01*
X3288513Y-17770990D01*
X3269466Y-17780514D01*
X3250418Y-17780514D01*
X3231371Y-17770990D01*
X3221847Y-17761466D01*
X3212323Y-17742418D01*
X3202799Y-17704323D01*
X3202799Y-17656704D01*
X3212323Y-17618609D01*
X3221847Y-17599561D01*
X3231371Y-17590037D01*
X3250418Y-17580514D01*
X3402799Y-17780514D02*
X3402799Y-17647180D01*
X3402799Y-17666228D02*
X3412323Y-17656704D01*
X3431371Y-17647180D01*
X3459942Y-17647180D01*
X3478990Y-17656704D01*
X3488513Y-17675752D01*
X3488513Y-17780514D01*
X3488513Y-17675752D02*
X3498037Y-17656704D01*
X3517085Y-17647180D01*
X3545656Y-17647180D01*
X3564704Y-17656704D01*
X3574228Y-17675752D01*
X3574228Y-17780514D01*
X3669466Y-17780514D02*
X3669466Y-17647180D01*
X3669466Y-17666228D02*
X3678990Y-17656704D01*
X3698037Y-17647180D01*
X3726609Y-17647180D01*
X3745656Y-17656704D01*
X3755180Y-17675752D01*
X3755180Y-17780514D01*
X3755180Y-17675752D02*
X3764704Y-17656704D01*
X3783752Y-17647180D01*
X3812323Y-17647180D01*
X3831371Y-17656704D01*
X3840894Y-17675752D01*
X3840894Y-17780514D01*
X4231371Y-17570990D02*
X4059942Y-17828133D01*
X4488514Y-17580514D02*
X4507561Y-17580514D01*
X4526609Y-17590037D01*
X4536133Y-17599561D01*
X4545656Y-17618609D01*
X4555180Y-17656704D01*
X4555180Y-17704323D01*
X4545656Y-17742418D01*
X4536133Y-17761466D01*
X4526609Y-17770990D01*
X4507561Y-17780514D01*
X4488514Y-17780514D01*
X4469466Y-17770990D01*
X4459942Y-17761466D01*
X4450418Y-17742418D01*
X4440895Y-17704323D01*
X4440895Y-17656704D01*
X4450418Y-17618609D01*
X4459942Y-17599561D01*
X4469466Y-17590037D01*
X4488514Y-17580514D01*
X4640895Y-17761466D02*
X4650418Y-17770990D01*
X4640895Y-17780514D01*
X4631371Y-17770990D01*
X4640895Y-17761466D01*
X4640895Y-17780514D01*
X4840895Y-17780514D02*
X4726609Y-17780514D01*
X4783752Y-17780514D02*
X4783752Y-17580514D01*
X4764704Y-17609085D01*
X4745656Y-17628133D01*
X4726609Y-17637656D01*
X5021847Y-17580514D02*
X4926609Y-17580514D01*
X4917085Y-17675752D01*
X4926609Y-17666228D01*
X4945656Y-17656704D01*
X4993275Y-17656704D01*
X5012323Y-17666228D01*
X5021847Y-17675752D01*
X5031371Y-17694799D01*
X5031371Y-17742418D01*
X5021847Y-17761466D01*
X5012323Y-17770990D01*
X4993275Y-17780514D01*
X4945656Y-17780514D01*
X4926609Y-17770990D01*
X4917085Y-17761466D01*
X5098037Y-17580514D02*
X5231371Y-17580514D01*
X5145656Y-17780514D01*
X5402799Y-17580514D02*
X5307561Y-17580514D01*
X5298037Y-17675752D01*
X5307561Y-17666228D01*
X5326609Y-17656704D01*
X5374228Y-17656704D01*
X5393275Y-17666228D01*
X5402799Y-17675752D01*
X5412323Y-17694799D01*
X5412323Y-17742418D01*
X5402799Y-17761466D01*
X5393275Y-17770990D01*
X5374228Y-17780514D01*
X5326609Y-17780514D01*
X5307561Y-17770990D01*
X5298037Y-17761466D01*
X5488514Y-17580514D02*
X5488514Y-17618609D01*
X5564704Y-17580514D02*
X5564704Y-17618609D01*
X5859942Y-17856704D02*
X5850418Y-17847180D01*
X5831371Y-17818609D01*
X5821847Y-17799561D01*
X5812323Y-17770990D01*
X5802799Y-17723371D01*
X5802799Y-17685275D01*
X5812323Y-17637656D01*
X5821847Y-17609085D01*
X5831371Y-17590037D01*
X5850418Y-17561466D01*
X5859942Y-17551942D01*
X6021847Y-17647180D02*
X6021847Y-17780514D01*
X5974228Y-17570990D02*
X5926609Y-17713847D01*
X6050418Y-17713847D01*
X6155180Y-17666228D02*
X6136133Y-17656704D01*
X6126609Y-17647180D01*
X6117085Y-17628133D01*
X6117085Y-17618609D01*
X6126609Y-17599561D01*
X6136133Y-17590037D01*
X6155180Y-17580514D01*
X6193275Y-17580514D01*
X6212323Y-17590037D01*
X6221847Y-17599561D01*
X6231371Y-17618609D01*
X6231371Y-17628133D01*
X6221847Y-17647180D01*
X6212323Y-17656704D01*
X6193275Y-17666228D01*
X6155180Y-17666228D01*
X6136133Y-17675752D01*
X6126609Y-17685275D01*
X6117085Y-17704323D01*
X6117085Y-17742418D01*
X6126609Y-17761466D01*
X6136133Y-17770990D01*
X6155180Y-17780514D01*
X6193275Y-17780514D01*
X6212323Y-17770990D01*
X6221847Y-17761466D01*
X6231371Y-17742418D01*
X6231371Y-17704323D01*
X6221847Y-17685275D01*
X6212323Y-17675752D01*
X6193275Y-17666228D01*
X6469466Y-17780514D02*
X6469466Y-17580514D01*
X6555180Y-17780514D02*
X6555180Y-17675752D01*
X6545656Y-17656704D01*
X6526609Y-17647180D01*
X6498037Y-17647180D01*
X6478990Y-17656704D01*
X6469466Y-17666228D01*
X6678990Y-17780514D02*
X6659942Y-17770990D01*
X6650418Y-17761466D01*
X6640894Y-17742418D01*
X6640894Y-17685275D01*
X6650418Y-17666228D01*
X6659942Y-17656704D01*
X6678990Y-17647180D01*
X6707561Y-17647180D01*
X6726609Y-17656704D01*
X6736133Y-17666228D01*
X6745656Y-17685275D01*
X6745656Y-17742418D01*
X6736133Y-17761466D01*
X6726609Y-17770990D01*
X6707561Y-17780514D01*
X6678990Y-17780514D01*
X6859942Y-17780514D02*
X6840894Y-17770990D01*
X6831371Y-17751942D01*
X6831371Y-17580514D01*
X7012323Y-17770990D02*
X6993275Y-17780514D01*
X6955180Y-17780514D01*
X6936133Y-17770990D01*
X6926609Y-17751942D01*
X6926609Y-17675752D01*
X6936133Y-17656704D01*
X6955180Y-17647180D01*
X6993275Y-17647180D01*
X7012323Y-17656704D01*
X7021847Y-17675752D01*
X7021847Y-17694799D01*
X6926609Y-17713847D01*
X7098037Y-17770990D02*
X7117085Y-17780514D01*
X7155180Y-17780514D01*
X7174228Y-17770990D01*
X7183752Y-17751942D01*
X7183752Y-17742418D01*
X7174228Y-17723371D01*
X7155180Y-17713847D01*
X7126609Y-17713847D01*
X7107561Y-17704323D01*
X7098037Y-17685275D01*
X7098037Y-17675752D01*
X7107561Y-17656704D01*
X7126609Y-17647180D01*
X7155180Y-17647180D01*
X7174228Y-17656704D01*
X7250418Y-17856704D02*
X7259942Y-17847180D01*
X7278990Y-17818609D01*
X7288513Y-17799561D01*
X7298037Y-17770990D01*
X7307561Y-17723371D01*
X7307561Y-17685275D01*
X7298037Y-17637656D01*
X7288513Y-17609085D01*
X7278990Y-17590037D01*
X7259942Y-17561466D01*
X7250418Y-17551942D01*
X7612323Y-17856704D02*
X7602799Y-17847180D01*
X7583752Y-17818609D01*
X7574228Y-17799561D01*
X7564704Y-17770990D01*
X7555180Y-17723371D01*
X7555180Y-17685275D01*
X7564704Y-17637656D01*
X7574228Y-17609085D01*
X7583752Y-17590037D01*
X7602799Y-17561466D01*
X7612323Y-17551942D01*
X7688513Y-17647180D02*
X7688513Y-17780514D01*
X7688513Y-17666228D02*
X7698037Y-17656704D01*
X7717085Y-17647180D01*
X7745656Y-17647180D01*
X7764704Y-17656704D01*
X7774228Y-17675752D01*
X7774228Y-17780514D01*
X7898037Y-17780514D02*
X7878990Y-17770990D01*
X7869466Y-17761466D01*
X7859942Y-17742418D01*
X7859942Y-17685275D01*
X7869466Y-17666228D01*
X7878990Y-17656704D01*
X7898037Y-17647180D01*
X7926609Y-17647180D01*
X7945656Y-17656704D01*
X7955180Y-17666228D01*
X7964704Y-17685275D01*
X7964704Y-17742418D01*
X7955180Y-17761466D01*
X7945656Y-17770990D01*
X7926609Y-17780514D01*
X7898037Y-17780514D01*
X8021847Y-17647180D02*
X8098037Y-17647180D01*
X8050418Y-17580514D02*
X8050418Y-17751942D01*
X8059942Y-17770990D01*
X8078990Y-17780514D01*
X8098037Y-17780514D01*
X8317085Y-17647180D02*
X8317085Y-17847180D01*
X8317085Y-17656704D02*
X8336133Y-17647180D01*
X8374228Y-17647180D01*
X8393275Y-17656704D01*
X8402799Y-17666228D01*
X8412323Y-17685275D01*
X8412323Y-17742418D01*
X8402799Y-17761466D01*
X8393275Y-17770990D01*
X8374228Y-17780514D01*
X8336133Y-17780514D01*
X8317085Y-17770990D01*
X8526609Y-17780514D02*
X8507561Y-17770990D01*
X8498037Y-17751942D01*
X8498037Y-17580514D01*
X8688514Y-17780514D02*
X8688514Y-17675752D01*
X8678990Y-17656704D01*
X8659942Y-17647180D01*
X8621847Y-17647180D01*
X8602799Y-17656704D01*
X8688514Y-17770990D02*
X8669466Y-17780514D01*
X8621847Y-17780514D01*
X8602799Y-17770990D01*
X8593275Y-17751942D01*
X8593275Y-17732895D01*
X8602799Y-17713847D01*
X8621847Y-17704323D01*
X8669466Y-17704323D01*
X8688514Y-17694799D01*
X8755180Y-17647180D02*
X8831371Y-17647180D01*
X8783752Y-17580514D02*
X8783752Y-17751942D01*
X8793275Y-17770990D01*
X8812323Y-17780514D01*
X8831371Y-17780514D01*
X8974228Y-17770990D02*
X8955180Y-17780514D01*
X8917085Y-17780514D01*
X8898037Y-17770990D01*
X8888514Y-17751942D01*
X8888514Y-17675752D01*
X8898037Y-17656704D01*
X8917085Y-17647180D01*
X8955180Y-17647180D01*
X8974228Y-17656704D01*
X8983752Y-17675752D01*
X8983752Y-17694799D01*
X8888514Y-17713847D01*
X9155180Y-17780514D02*
X9155180Y-17580514D01*
X9155180Y-17770990D02*
X9136133Y-17780514D01*
X9098037Y-17780514D01*
X9078990Y-17770990D01*
X9069466Y-17761466D01*
X9059942Y-17742418D01*
X9059942Y-17685275D01*
X9069466Y-17666228D01*
X9078990Y-17656704D01*
X9098037Y-17647180D01*
X9136133Y-17647180D01*
X9155180Y-17656704D01*
X9231371Y-17856704D02*
X9240895Y-17847180D01*
X9259942Y-17818609D01*
X9269466Y-17799561D01*
X9278990Y-17770990D01*
X9288514Y-17723371D01*
X9288514Y-17685275D01*
X9278990Y-17637656D01*
X9269466Y-17609085D01*
X9259942Y-17590037D01*
X9240895Y-17561466D01*
X9231371Y-17551942D01*
M02*
