G04 #@! TF.GenerationSoftware,KiCad,Pcbnew,(6.0.9)*
G04 #@! TF.CreationDate,2022-12-20T15:04:12+09:00*
G04 #@! TF.ProjectId,meow48,6d656f77-3438-42e6-9b69-6361645f7063,rev?*
G04 #@! TF.SameCoordinates,Original*
G04 #@! TF.FileFunction,Profile,NP*
%FSLAX46Y46*%
G04 Gerber Fmt 4.6, Leading zero omitted, Abs format (unit mm)*
G04 Created by KiCad (PCBNEW (6.0.9)) date 2022-12-20 15:04:12*
%MOMM*%
%LPD*%
G01*
G04 APERTURE LIST*
G04 #@! TA.AperFunction,Profile*
%ADD10C,0.100000*%
G04 #@! TD*
G04 #@! TA.AperFunction,Profile*
%ADD11C,0.200000*%
G04 #@! TD*
G04 #@! TA.AperFunction,Profile*
%ADD12C,0.120000*%
G04 #@! TD*
G04 APERTURE END LIST*
D10*
X25050000Y-65893824D02*
G75*
G03*
X22930374Y-67930000I-41720J-2077906D01*
G01*
X270606179Y-68000000D02*
G75*
G03*
X268536553Y-65893821I-2087879J18300D01*
G01*
X268536553Y-161150279D02*
G75*
G03*
X270606179Y-159080748I47J2069579D01*
G01*
X22930374Y-67930000D02*
X22930374Y-159070000D01*
X270606179Y-159080748D02*
X270606179Y-68000000D01*
X25000000Y-161150374D02*
X268536553Y-161150374D01*
X268536553Y-65893821D02*
X25050000Y-65893821D01*
X22930426Y-159070000D02*
G75*
G03*
X25000000Y-161150374I2074974J-5400D01*
G01*
D11*
X239070000Y-106900000D02*
X239070000Y-110800000D01*
X258720000Y-112600000D02*
X258720000Y-118100000D01*
X259370000Y-106900000D02*
X259370000Y-110800000D01*
X234720000Y-112600000D02*
X239720000Y-112600000D01*
X235370000Y-110800000D02*
X235370000Y-106900000D01*
X258720000Y-118100000D02*
X263720000Y-118100000D01*
X259370000Y-110800000D02*
X263070000Y-110800000D01*
X263070000Y-106900000D02*
X259370000Y-106900000D01*
X239070000Y-110800000D02*
X235370000Y-110800000D01*
X239720000Y-112600000D02*
X239720000Y-118100000D01*
X234720000Y-118100000D02*
X234720000Y-112600000D01*
X263720000Y-118100000D02*
X263720000Y-112600000D01*
X263070000Y-106900000D02*
X263070000Y-110800000D01*
X235370000Y-106900000D02*
X239070000Y-106900000D01*
X239720000Y-118100000D02*
X234720000Y-118100000D01*
X263720000Y-112600000D02*
X258720000Y-112600000D01*
X144140000Y-145320000D02*
X144140000Y-141420000D01*
X171840000Y-141420000D02*
X168140000Y-141420000D01*
X148490000Y-147120000D02*
X148490000Y-152620000D01*
X144140000Y-141420000D02*
X147840000Y-141420000D01*
X148490000Y-152620000D02*
X143490000Y-152620000D01*
X172490000Y-147120000D02*
X167490000Y-147120000D01*
X168140000Y-141420000D02*
X168140000Y-145320000D01*
X167490000Y-152620000D02*
X172490000Y-152620000D01*
X143490000Y-147120000D02*
X148490000Y-147120000D01*
X147840000Y-141420000D02*
X147840000Y-145320000D01*
X171840000Y-141420000D02*
X171840000Y-145320000D01*
X168140000Y-145320000D02*
X171840000Y-145320000D01*
X143490000Y-152620000D02*
X143490000Y-147120000D01*
X167490000Y-147120000D02*
X167490000Y-152620000D01*
X172490000Y-152620000D02*
X172490000Y-147120000D01*
X147840000Y-145320000D02*
X144140000Y-145320000D01*
X131900000Y-145310000D02*
X135600000Y-145310000D01*
X131250000Y-147110000D02*
X131250000Y-152610000D01*
X135600000Y-141410000D02*
X131900000Y-141410000D01*
X107900000Y-145310000D02*
X107900000Y-141410000D01*
X112250000Y-147110000D02*
X112250000Y-152610000D01*
X111600000Y-145310000D02*
X107900000Y-145310000D01*
X131900000Y-141410000D02*
X131900000Y-145310000D01*
X135600000Y-141410000D02*
X135600000Y-145310000D01*
X136250000Y-147110000D02*
X131250000Y-147110000D01*
X131250000Y-152610000D02*
X136250000Y-152610000D01*
X111600000Y-141410000D02*
X111600000Y-145310000D01*
X107250000Y-152610000D02*
X107250000Y-147110000D01*
X136250000Y-152610000D02*
X136250000Y-147110000D01*
X107250000Y-147110000D02*
X112250000Y-147110000D01*
X112250000Y-152610000D02*
X107250000Y-152610000D01*
X107900000Y-141410000D02*
X111600000Y-141410000D01*
D12*
X259900000Y-146490000D02*
X259900000Y-143490000D01*
X256500000Y-143490000D02*
X256500000Y-146490000D01*
X256500000Y-146490000D02*
X259900000Y-146490000D01*
X259900000Y-143490000D02*
X256500000Y-143490000D01*
X59700000Y-109500000D02*
X56300000Y-109500000D01*
X56300000Y-109500000D02*
X56300000Y-112500000D01*
X56300000Y-112500000D02*
X59700000Y-112500000D01*
X59700000Y-112500000D02*
X59700000Y-109500000D01*
X146320000Y-95450000D02*
X146320000Y-92450000D01*
X142920000Y-92450000D02*
X142920000Y-95450000D01*
X146320000Y-92450000D02*
X142920000Y-92450000D01*
X142920000Y-95450000D02*
X146320000Y-95450000D01*
X150900000Y-112515000D02*
X150900000Y-109515000D01*
X147500000Y-109515000D02*
X147500000Y-112515000D01*
X147500000Y-112515000D02*
X150900000Y-112515000D01*
X150900000Y-109515000D02*
X147500000Y-109515000D01*
X159690000Y-143555000D02*
X156290000Y-143555000D01*
X156290000Y-143555000D02*
X156290000Y-146555000D01*
X156290000Y-146555000D02*
X159690000Y-146555000D01*
X159690000Y-146555000D02*
X159690000Y-143555000D01*
X100620000Y-129530000D02*
X100620000Y-126530000D01*
X100620000Y-126530000D02*
X97220000Y-126530000D01*
X97220000Y-126530000D02*
X97220000Y-129530000D01*
X97220000Y-129530000D02*
X100620000Y-129530000D01*
X202100000Y-109445000D02*
X202100000Y-112445000D01*
X205500000Y-109445000D02*
X202100000Y-109445000D01*
X205500000Y-112445000D02*
X205500000Y-109445000D01*
X202100000Y-112445000D02*
X205500000Y-112445000D01*
X187300000Y-112465000D02*
X187300000Y-109465000D01*
X183900000Y-109465000D02*
X183900000Y-112465000D01*
X187300000Y-109465000D02*
X183900000Y-109465000D01*
X183900000Y-112465000D02*
X187300000Y-112465000D01*
X205220000Y-143455000D02*
X201820000Y-143455000D01*
X201820000Y-146455000D02*
X205220000Y-146455000D01*
X201820000Y-143455000D02*
X201820000Y-146455000D01*
X205220000Y-146455000D02*
X205220000Y-143455000D01*
X96160000Y-109450000D02*
X92760000Y-109450000D01*
X92760000Y-112450000D02*
X96160000Y-112450000D01*
X92760000Y-109450000D02*
X92760000Y-112450000D01*
X96160000Y-112450000D02*
X96160000Y-109450000D01*
X234080000Y-95520000D02*
X237480000Y-95520000D01*
X237480000Y-92520000D02*
X234080000Y-92520000D01*
X237480000Y-95520000D02*
X237480000Y-92520000D01*
X234080000Y-92520000D02*
X234080000Y-95520000D01*
X228300000Y-129480000D02*
X228300000Y-126480000D01*
X224900000Y-129480000D02*
X228300000Y-129480000D01*
X228300000Y-126480000D02*
X224900000Y-126480000D01*
X224900000Y-126480000D02*
X224900000Y-129480000D01*
X164580000Y-92420000D02*
X161180000Y-92420000D01*
X164580000Y-95420000D02*
X164580000Y-92420000D01*
X161180000Y-95420000D02*
X164580000Y-95420000D01*
X161180000Y-92420000D02*
X161180000Y-95420000D01*
X220270000Y-112490000D02*
X223670000Y-112490000D01*
X223670000Y-112490000D02*
X223670000Y-109490000D01*
X220270000Y-109490000D02*
X220270000Y-112490000D01*
X223670000Y-109490000D02*
X220270000Y-109490000D01*
X170220000Y-129520000D02*
X173620000Y-129520000D01*
X173620000Y-126520000D02*
X170220000Y-126520000D01*
X173620000Y-129520000D02*
X173620000Y-126520000D01*
X170220000Y-126520000D02*
X170220000Y-129520000D01*
X77910000Y-112515000D02*
X77910000Y-109515000D01*
X74510000Y-109515000D02*
X74510000Y-112515000D01*
X77910000Y-109515000D02*
X74510000Y-109515000D01*
X74510000Y-112515000D02*
X77910000Y-112515000D01*
X70030000Y-92470000D02*
X70030000Y-95470000D01*
X70030000Y-95470000D02*
X73430000Y-95470000D01*
X73430000Y-92470000D02*
X70030000Y-92470000D01*
X73430000Y-95470000D02*
X73430000Y-92470000D01*
X238220000Y-143535000D02*
X238220000Y-146535000D01*
X241620000Y-146535000D02*
X241620000Y-143535000D01*
X238220000Y-146535000D02*
X241620000Y-146535000D01*
X241620000Y-143535000D02*
X238220000Y-143535000D01*
X129150000Y-109485000D02*
X129150000Y-112485000D01*
X132550000Y-112485000D02*
X132550000Y-109485000D01*
X129150000Y-112485000D02*
X132550000Y-112485000D01*
X132550000Y-109485000D02*
X129150000Y-109485000D01*
X253410000Y-129515000D02*
X253410000Y-126515000D01*
X250010000Y-126515000D02*
X250010000Y-129515000D01*
X253410000Y-126515000D02*
X250010000Y-126515000D01*
X250010000Y-129515000D02*
X253410000Y-129515000D01*
X183640000Y-143495000D02*
X183640000Y-146495000D01*
X183640000Y-146495000D02*
X187040000Y-146495000D01*
X187040000Y-143495000D02*
X183640000Y-143495000D01*
X187040000Y-146495000D02*
X187040000Y-143495000D01*
X91610000Y-95520000D02*
X91610000Y-92520000D01*
X88210000Y-95520000D02*
X91610000Y-95520000D01*
X91610000Y-92520000D02*
X88210000Y-92520000D01*
X88210000Y-92520000D02*
X88210000Y-95520000D01*
X41500000Y-129505000D02*
X41500000Y-126505000D01*
X41500000Y-126505000D02*
X38100000Y-126505000D01*
X38100000Y-126505000D02*
X38100000Y-129505000D01*
X38100000Y-129505000D02*
X41500000Y-129505000D01*
X188460000Y-129480000D02*
X191860000Y-129480000D01*
X191860000Y-129480000D02*
X191860000Y-126480000D01*
X191860000Y-126480000D02*
X188460000Y-126480000D01*
X188460000Y-126480000D02*
X188460000Y-129480000D01*
X254490000Y-95450000D02*
X257890000Y-95450000D01*
X257890000Y-92450000D02*
X254490000Y-92450000D01*
X254490000Y-92450000D02*
X254490000Y-95450000D01*
X257890000Y-95450000D02*
X257890000Y-92450000D01*
X201030000Y-95470000D02*
X201030000Y-92470000D01*
X197630000Y-92470000D02*
X197630000Y-95470000D01*
X201030000Y-92470000D02*
X197630000Y-92470000D01*
X197630000Y-95470000D02*
X201030000Y-95470000D01*
X220060000Y-143530000D02*
X220060000Y-146530000D01*
X223460000Y-143530000D02*
X220060000Y-143530000D01*
X220060000Y-146530000D02*
X223460000Y-146530000D01*
X223460000Y-146530000D02*
X223460000Y-143530000D01*
X219430000Y-95450000D02*
X219430000Y-92450000D01*
X216030000Y-95450000D02*
X219430000Y-95450000D01*
X219430000Y-92450000D02*
X216030000Y-92450000D01*
X216030000Y-92450000D02*
X216030000Y-95450000D01*
X82460000Y-129530000D02*
X82460000Y-126530000D01*
X82460000Y-126530000D02*
X79060000Y-126530000D01*
X79060000Y-129530000D02*
X82460000Y-129530000D01*
X79060000Y-126530000D02*
X79060000Y-129530000D01*
X35920000Y-112430000D02*
X39320000Y-112430000D01*
X39320000Y-109430000D02*
X35920000Y-109430000D01*
X35920000Y-109430000D02*
X35920000Y-112430000D01*
X39320000Y-112430000D02*
X39320000Y-109430000D01*
X128090000Y-92520000D02*
X124690000Y-92520000D01*
X124690000Y-92520000D02*
X124690000Y-95520000D01*
X128090000Y-95520000D02*
X128090000Y-92520000D01*
X124690000Y-95520000D02*
X128090000Y-95520000D01*
X106440000Y-92470000D02*
X106440000Y-95470000D01*
X109840000Y-92470000D02*
X106440000Y-92470000D01*
X109840000Y-95470000D02*
X109840000Y-92470000D01*
X106440000Y-95470000D02*
X109840000Y-95470000D01*
X137140000Y-126460000D02*
X133740000Y-126460000D01*
X133740000Y-129460000D02*
X137140000Y-129460000D01*
X137140000Y-129460000D02*
X137140000Y-126460000D01*
X133740000Y-126460000D02*
X133740000Y-129460000D01*
X206720000Y-126440000D02*
X206720000Y-129440000D01*
X210120000Y-129440000D02*
X210120000Y-126440000D01*
X206720000Y-129440000D02*
X210120000Y-129440000D01*
X210120000Y-126440000D02*
X206720000Y-126440000D01*
X96300000Y-146440000D02*
X96300000Y-143440000D01*
X92900000Y-143440000D02*
X92900000Y-146440000D01*
X92900000Y-146440000D02*
X96300000Y-146440000D01*
X96300000Y-143440000D02*
X92900000Y-143440000D01*
X152040000Y-126480000D02*
X152040000Y-129480000D01*
X155440000Y-126480000D02*
X152040000Y-126480000D01*
X152040000Y-129480000D02*
X155440000Y-129480000D01*
X155440000Y-129480000D02*
X155440000Y-126480000D01*
X123470000Y-143605000D02*
X120070000Y-143605000D01*
X120070000Y-146605000D02*
X123470000Y-146605000D01*
X120070000Y-143605000D02*
X120070000Y-146605000D01*
X123470000Y-146605000D02*
X123470000Y-143605000D01*
X179400000Y-95435000D02*
X182800000Y-95435000D01*
X182800000Y-95435000D02*
X182800000Y-92435000D01*
X179400000Y-92435000D02*
X179400000Y-95435000D01*
X182800000Y-92435000D02*
X179400000Y-92435000D01*
X35990000Y-146490000D02*
X39390000Y-146490000D01*
X35990000Y-143490000D02*
X35990000Y-146490000D01*
X39390000Y-143490000D02*
X35990000Y-143490000D01*
X39390000Y-146490000D02*
X39390000Y-143490000D01*
X111030000Y-112515000D02*
X114430000Y-112515000D01*
X111030000Y-109515000D02*
X111030000Y-112515000D01*
X114430000Y-112515000D02*
X114430000Y-109515000D01*
X114430000Y-109515000D02*
X111030000Y-109515000D01*
X247450000Y-109455000D02*
X247450000Y-112455000D01*
X247450000Y-112455000D02*
X250850000Y-112455000D01*
X250850000Y-112455000D02*
X250850000Y-109455000D01*
X250850000Y-109455000D02*
X247450000Y-109455000D01*
X115540000Y-129480000D02*
X118940000Y-129480000D01*
X118940000Y-129480000D02*
X118940000Y-126480000D01*
X118940000Y-126480000D02*
X115540000Y-126480000D01*
X115540000Y-126480000D02*
X115540000Y-129480000D01*
X165620000Y-112490000D02*
X169020000Y-112490000D01*
X169020000Y-112490000D02*
X169020000Y-109490000D01*
X165620000Y-109490000D02*
X165620000Y-112490000D01*
X169020000Y-109490000D02*
X165620000Y-109490000D01*
X59780000Y-143530000D02*
X56380000Y-143530000D01*
X56380000Y-143530000D02*
X56380000Y-146530000D01*
X59780000Y-146530000D02*
X59780000Y-143530000D01*
X56380000Y-146530000D02*
X59780000Y-146530000D01*
X64250000Y-129490000D02*
X64250000Y-126490000D01*
X64250000Y-126490000D02*
X60850000Y-126490000D01*
X60850000Y-129490000D02*
X64250000Y-129490000D01*
X60850000Y-126490000D02*
X60850000Y-129490000D01*
X55140000Y-95435000D02*
X55140000Y-92435000D01*
X51740000Y-95435000D02*
X55140000Y-95435000D01*
X55140000Y-92435000D02*
X51740000Y-92435000D01*
X51740000Y-92435000D02*
X51740000Y-95435000D01*
X33560000Y-92485000D02*
X33560000Y-95485000D01*
X36960000Y-92485000D02*
X33560000Y-92485000D01*
X33560000Y-95485000D02*
X36960000Y-95485000D01*
X36960000Y-95485000D02*
X36960000Y-92485000D01*
X74530000Y-146480000D02*
X77930000Y-146480000D01*
X74530000Y-143480000D02*
X74530000Y-146480000D01*
X77930000Y-146480000D02*
X77930000Y-143480000D01*
X77930000Y-143480000D02*
X74530000Y-143480000D01*
M02*
