G04 #@! TF.GenerationSoftware,KiCad,Pcbnew,(6.0.9)*
G04 #@! TF.CreationDate,2022-11-10T16:14:01+09:00*
G04 #@! TF.ProjectId,meow48,6d656f77-3438-42e6-9b69-6361645f7063,rev?*
G04 #@! TF.SameCoordinates,Original*
G04 #@! TF.FileFunction,Paste,Bot*
G04 #@! TF.FilePolarity,Positive*
%FSLAX46Y46*%
G04 Gerber Fmt 4.6, Leading zero omitted, Abs format (unit mm)*
G04 Created by KiCad (PCBNEW (6.0.9)) date 2022-11-10 16:14:01*
%MOMM*%
%LPD*%
G01*
G04 APERTURE LIST*
G04 Aperture macros list*
%AMRoundRect*
0 Rectangle with rounded corners*
0 $1 Rounding radius*
0 $2 $3 $4 $5 $6 $7 $8 $9 X,Y pos of 4 corners*
0 Add a 4 corners polygon primitive as box body*
4,1,4,$2,$3,$4,$5,$6,$7,$8,$9,$2,$3,0*
0 Add four circle primitives for the rounded corners*
1,1,$1+$1,$2,$3*
1,1,$1+$1,$4,$5*
1,1,$1+$1,$6,$7*
1,1,$1+$1,$8,$9*
0 Add four rect primitives between the rounded corners*
20,1,$1+$1,$2,$3,$4,$5,0*
20,1,$1+$1,$4,$5,$6,$7,0*
20,1,$1+$1,$6,$7,$8,$9,0*
20,1,$1+$1,$8,$9,$2,$3,0*%
G04 Aperture macros list end*
%ADD10R,1.700000X3.500000*%
%ADD11R,3.000000X3.500000*%
%ADD12R,0.950000X1.300000*%
%ADD13R,1.500000X2.500000*%
%ADD14R,1.300000X0.950000*%
%ADD15R,1.700000X0.820000*%
%ADD16RoundRect,0.205000X-0.645000X-0.205000X0.645000X-0.205000X0.645000X0.205000X-0.645000X0.205000X0*%
G04 APERTURE END LIST*
D10*
X86790000Y-119090000D03*
D11*
X98040000Y-121290000D03*
D12*
X247930000Y-153665000D03*
X247930000Y-157215000D03*
D10*
X73100000Y-136350000D03*
D11*
X84350000Y-138550000D03*
D10*
X209880000Y-101880000D03*
D11*
X221130000Y-104080000D03*
D10*
X123210000Y-119100000D03*
D11*
X134460000Y-121300000D03*
D10*
X191630000Y-101860000D03*
D11*
X202880000Y-104060000D03*
D10*
X136970000Y-101860000D03*
D11*
X148220000Y-104060000D03*
D12*
X266230000Y-142565000D03*
X266230000Y-146115000D03*
D10*
X146020000Y-136360000D03*
D11*
X157270000Y-138560000D03*
D10*
X68610000Y-153590000D03*
D11*
X79860000Y-155790000D03*
D10*
X195810000Y-153590000D03*
D11*
X207060000Y-155790000D03*
D12*
X211490000Y-153605000D03*
X211490000Y-157155000D03*
D10*
X127780000Y-136360000D03*
D11*
X139030000Y-138560000D03*
D10*
X159690000Y-119100000D03*
D11*
X170940000Y-121300000D03*
D12*
X229730000Y-153635000D03*
X229730000Y-157185000D03*
D13*
X241620000Y-119100000D03*
X252020000Y-121300000D03*
D10*
X91320000Y-136350000D03*
D11*
X102570000Y-138550000D03*
D12*
X211840000Y-119255000D03*
X211840000Y-122805000D03*
D10*
X86850000Y-153590000D03*
D11*
X98100000Y-155790000D03*
D12*
X138920000Y-119205000D03*
X138920000Y-122755000D03*
X102570000Y-153635000D03*
X102570000Y-157185000D03*
D10*
X218940000Y-136340000D03*
D11*
X230190000Y-138540000D03*
D12*
X189130000Y-101945000D03*
X189130000Y-105495000D03*
X134450000Y-101955000D03*
X134450000Y-105505000D03*
D10*
X214040000Y-153600000D03*
D11*
X225290000Y-155800000D03*
D12*
X152670000Y-101995000D03*
X152670000Y-105545000D03*
D10*
X141450000Y-119110000D03*
D11*
X152700000Y-121310000D03*
D12*
X207350000Y-101945000D03*
X207350000Y-105495000D03*
X243850000Y-101985000D03*
X243850000Y-105535000D03*
X47850000Y-136465000D03*
X47850000Y-140015000D03*
D10*
X109540000Y-136360000D03*
D11*
X120790000Y-138560000D03*
D14*
X135545000Y-155800000D03*
X131995000Y-155800000D03*
D12*
X66060000Y-153635000D03*
X66060000Y-157185000D03*
D10*
X248500000Y-101850000D03*
D11*
X259750000Y-104050000D03*
D12*
X193280000Y-153665000D03*
X193280000Y-157215000D03*
X175400000Y-119195000D03*
X175400000Y-122745000D03*
X157140000Y-119185000D03*
X157140000Y-122735000D03*
X125210000Y-136435000D03*
X125210000Y-139985000D03*
D10*
X32160000Y-136370000D03*
D11*
X43410000Y-138570000D03*
D12*
X84330000Y-153635000D03*
X84330000Y-157185000D03*
X102520000Y-119205000D03*
X102520000Y-122755000D03*
D10*
X27580000Y-101880000D03*
D11*
X38830000Y-104080000D03*
D12*
X225590000Y-101935000D03*
X225590000Y-105485000D03*
X45660000Y-119215000D03*
X45660000Y-122765000D03*
X143520000Y-136505000D03*
X143520000Y-140055000D03*
D10*
X173400000Y-101860000D03*
D11*
X184650000Y-104060000D03*
D13*
X150390000Y-153620000D03*
X160790000Y-155820000D03*
D14*
X262955000Y-121260000D03*
X259405000Y-121260000D03*
D10*
X250510000Y-153590000D03*
D11*
X261760000Y-155790000D03*
D10*
X64050000Y-101860000D03*
D11*
X75300000Y-104060000D03*
D12*
X43270000Y-101945000D03*
X43270000Y-105495000D03*
D10*
X82260000Y-101880000D03*
D11*
X93510000Y-104080000D03*
D10*
X177900000Y-119100000D03*
D11*
X189150000Y-121300000D03*
D13*
X114150000Y-153610000D03*
X124550000Y-155810000D03*
D12*
X107000000Y-136435000D03*
X107000000Y-139985000D03*
D10*
X177580000Y-153590000D03*
D11*
X188830000Y-155790000D03*
D10*
X243950000Y-136300000D03*
D11*
X255200000Y-138500000D03*
D12*
X45660000Y-153665000D03*
X45660000Y-157215000D03*
D10*
X100490000Y-101880000D03*
D11*
X111740000Y-104080000D03*
D12*
X88800000Y-136345000D03*
X88800000Y-139895000D03*
D10*
X54860000Y-136350000D03*
D11*
X66110000Y-138550000D03*
D10*
X50390000Y-153585000D03*
D11*
X61640000Y-155785000D03*
D12*
X234650000Y-136435000D03*
X234650000Y-139985000D03*
X97970000Y-101985000D03*
X97970000Y-105535000D03*
X79750000Y-101965000D03*
X79750000Y-105515000D03*
D10*
X228110000Y-101880000D03*
D11*
X239360000Y-104080000D03*
D12*
X264220000Y-101935000D03*
X264220000Y-105485000D03*
D10*
X29910000Y-119110000D03*
D11*
X41160000Y-121310000D03*
D10*
X214340000Y-119110000D03*
D11*
X225590000Y-121310000D03*
D12*
X84280000Y-119205000D03*
X84280000Y-122755000D03*
D10*
X200720000Y-136340000D03*
D11*
X211970000Y-138540000D03*
D12*
X216410000Y-136435000D03*
X216410000Y-139985000D03*
X66080000Y-119215000D03*
X66080000Y-122765000D03*
X70580000Y-136465000D03*
X70580000Y-140015000D03*
X161760000Y-136475000D03*
X161760000Y-140025000D03*
X259700000Y-136405000D03*
X259700000Y-139955000D03*
D10*
X118740000Y-101880000D03*
D11*
X129990000Y-104080000D03*
D10*
X29930000Y-153560000D03*
D11*
X41180000Y-155760000D03*
D12*
X61470000Y-101965000D03*
X61470000Y-105515000D03*
D10*
X164260000Y-136340000D03*
D11*
X175510000Y-138540000D03*
D10*
X45790000Y-101880000D03*
D11*
X57040000Y-104080000D03*
D12*
X116210000Y-101965000D03*
X116210000Y-105515000D03*
D10*
X155200000Y-101860000D03*
D11*
X166450000Y-104060000D03*
D14*
X171725000Y-155820000D03*
X168175000Y-155820000D03*
D12*
X230050000Y-119255000D03*
X230050000Y-122805000D03*
D10*
X105010000Y-119100000D03*
D11*
X116260000Y-121300000D03*
D12*
X179930000Y-136435000D03*
X179930000Y-139985000D03*
X120720000Y-119205000D03*
X120720000Y-122755000D03*
D10*
X196120000Y-119110000D03*
D11*
X207370000Y-121310000D03*
D10*
X232250000Y-153595000D03*
D11*
X243500000Y-155795000D03*
D12*
X170930000Y-101945000D03*
X170930000Y-105495000D03*
X193600000Y-119215000D03*
X193600000Y-122765000D03*
D10*
X50350000Y-119110000D03*
D11*
X61600000Y-121310000D03*
D10*
X68570000Y-119100000D03*
D11*
X79820000Y-121300000D03*
D12*
X198170000Y-136435000D03*
X198170000Y-139985000D03*
D10*
X182500000Y-136340000D03*
D11*
X193750000Y-138540000D03*
D15*
X255650000Y-144240000D03*
X255650000Y-145740000D03*
D16*
X260750000Y-145740000D03*
D15*
X260750000Y-144240000D03*
X55450000Y-110250000D03*
X55450000Y-111750000D03*
D16*
X60550000Y-111750000D03*
D15*
X60550000Y-110250000D03*
X142070000Y-93200000D03*
X142070000Y-94700000D03*
D16*
X147170000Y-94700000D03*
D15*
X147170000Y-93200000D03*
X146650000Y-110265000D03*
X146650000Y-111765000D03*
D16*
X151750000Y-111765000D03*
D15*
X151750000Y-110265000D03*
X155440000Y-144305000D03*
X155440000Y-145805000D03*
D16*
X160540000Y-145805000D03*
D15*
X160540000Y-144305000D03*
X96370000Y-127280000D03*
X96370000Y-128780000D03*
D16*
X101470000Y-128780000D03*
D15*
X101470000Y-127280000D03*
X201250000Y-110195000D03*
X201250000Y-111695000D03*
D16*
X206350000Y-111695000D03*
D15*
X206350000Y-110195000D03*
X183050000Y-110215000D03*
X183050000Y-111715000D03*
D16*
X188150000Y-111715000D03*
D15*
X188150000Y-110215000D03*
X200970000Y-144205000D03*
X200970000Y-145705000D03*
D16*
X206070000Y-145705000D03*
D15*
X206070000Y-144205000D03*
X91910000Y-110200000D03*
X91910000Y-111700000D03*
D16*
X97010000Y-111700000D03*
D15*
X97010000Y-110200000D03*
X233230000Y-93270000D03*
X233230000Y-94770000D03*
D16*
X238330000Y-94770000D03*
D15*
X238330000Y-93270000D03*
X224050000Y-127230000D03*
X224050000Y-128730000D03*
D16*
X229150000Y-128730000D03*
D15*
X229150000Y-127230000D03*
X160330000Y-93170000D03*
X160330000Y-94670000D03*
D16*
X165430000Y-94670000D03*
D15*
X165430000Y-93170000D03*
X219420000Y-110240000D03*
X219420000Y-111740000D03*
D16*
X224520000Y-111740000D03*
D15*
X224520000Y-110240000D03*
X169370000Y-127270000D03*
X169370000Y-128770000D03*
D16*
X174470000Y-128770000D03*
D15*
X174470000Y-127270000D03*
X73660000Y-110265000D03*
X73660000Y-111765000D03*
D16*
X78760000Y-111765000D03*
D15*
X78760000Y-110265000D03*
X69180000Y-93220000D03*
X69180000Y-94720000D03*
D16*
X74280000Y-94720000D03*
D15*
X74280000Y-93220000D03*
X237370000Y-144285000D03*
X237370000Y-145785000D03*
D16*
X242470000Y-145785000D03*
D15*
X242470000Y-144285000D03*
X128300000Y-110235000D03*
X128300000Y-111735000D03*
D16*
X133400000Y-111735000D03*
D15*
X133400000Y-110235000D03*
X249160000Y-127265000D03*
X249160000Y-128765000D03*
D16*
X254260000Y-128765000D03*
D15*
X254260000Y-127265000D03*
X182790000Y-144245000D03*
X182790000Y-145745000D03*
D16*
X187890000Y-145745000D03*
D15*
X187890000Y-144245000D03*
X87360000Y-93270000D03*
X87360000Y-94770000D03*
D16*
X92460000Y-94770000D03*
D15*
X92460000Y-93270000D03*
X37250000Y-127255000D03*
X37250000Y-128755000D03*
D16*
X42350000Y-128755000D03*
D15*
X42350000Y-127255000D03*
X187610000Y-127230000D03*
X187610000Y-128730000D03*
D16*
X192710000Y-128730000D03*
D15*
X192710000Y-127230000D03*
X253640000Y-93200000D03*
X253640000Y-94700000D03*
D16*
X258740000Y-94700000D03*
D15*
X258740000Y-93200000D03*
X196780000Y-93220000D03*
X196780000Y-94720000D03*
D16*
X201880000Y-94720000D03*
D15*
X201880000Y-93220000D03*
X219210000Y-144280000D03*
X219210000Y-145780000D03*
D16*
X224310000Y-145780000D03*
D15*
X224310000Y-144280000D03*
X215180000Y-93200000D03*
X215180000Y-94700000D03*
D16*
X220280000Y-94700000D03*
D15*
X220280000Y-93200000D03*
X78210000Y-127280000D03*
X78210000Y-128780000D03*
D16*
X83310000Y-128780000D03*
D15*
X83310000Y-127280000D03*
X35070000Y-110180000D03*
X35070000Y-111680000D03*
D16*
X40170000Y-111680000D03*
D15*
X40170000Y-110180000D03*
X123840000Y-93270000D03*
X123840000Y-94770000D03*
D16*
X128940000Y-94770000D03*
D15*
X128940000Y-93270000D03*
X105590000Y-93220000D03*
X105590000Y-94720000D03*
D16*
X110690000Y-94720000D03*
D15*
X110690000Y-93220000D03*
X132890000Y-127210000D03*
X132890000Y-128710000D03*
D16*
X137990000Y-128710000D03*
D15*
X137990000Y-127210000D03*
X205870000Y-127190000D03*
X205870000Y-128690000D03*
D16*
X210970000Y-128690000D03*
D15*
X210970000Y-127190000D03*
X92050000Y-144190000D03*
X92050000Y-145690000D03*
D16*
X97150000Y-145690000D03*
D15*
X97150000Y-144190000D03*
X151190000Y-127230000D03*
X151190000Y-128730000D03*
D16*
X156290000Y-128730000D03*
D15*
X156290000Y-127230000D03*
X119220000Y-144355000D03*
X119220000Y-145855000D03*
D16*
X124320000Y-145855000D03*
D15*
X124320000Y-144355000D03*
X178550000Y-93185000D03*
X178550000Y-94685000D03*
D16*
X183650000Y-94685000D03*
D15*
X183650000Y-93185000D03*
X35140000Y-144240000D03*
X35140000Y-145740000D03*
D16*
X40240000Y-145740000D03*
D15*
X40240000Y-144240000D03*
X110180000Y-110265000D03*
X110180000Y-111765000D03*
D16*
X115280000Y-111765000D03*
D15*
X115280000Y-110265000D03*
X246600000Y-110205000D03*
X246600000Y-111705000D03*
D16*
X251700000Y-111705000D03*
D15*
X251700000Y-110205000D03*
X114690000Y-127230000D03*
X114690000Y-128730000D03*
D16*
X119790000Y-128730000D03*
D15*
X119790000Y-127230000D03*
X164770000Y-110240000D03*
X164770000Y-111740000D03*
D16*
X169870000Y-111740000D03*
D15*
X169870000Y-110240000D03*
X55530000Y-144280000D03*
X55530000Y-145780000D03*
D16*
X60630000Y-145780000D03*
D15*
X60630000Y-144280000D03*
X60000000Y-127240000D03*
X60000000Y-128740000D03*
D16*
X65100000Y-128740000D03*
D15*
X65100000Y-127240000D03*
X50890000Y-93185000D03*
X50890000Y-94685000D03*
D16*
X55990000Y-94685000D03*
D15*
X55990000Y-93185000D03*
X32710000Y-93235000D03*
X32710000Y-94735000D03*
D16*
X37810000Y-94735000D03*
D15*
X37810000Y-93235000D03*
X73680000Y-144230000D03*
X73680000Y-145730000D03*
D16*
X78780000Y-145730000D03*
D15*
X78780000Y-144230000D03*
M02*
