G04 #@! TF.GenerationSoftware,KiCad,Pcbnew,(6.0.9)*
G04 #@! TF.CreationDate,2022-11-10T16:14:01+09:00*
G04 #@! TF.ProjectId,meow48,6d656f77-3438-42e6-9b69-6361645f7063,rev?*
G04 #@! TF.SameCoordinates,Original*
G04 #@! TF.FileFunction,Copper,L2,Bot*
G04 #@! TF.FilePolarity,Positive*
%FSLAX46Y46*%
G04 Gerber Fmt 4.6, Leading zero omitted, Abs format (unit mm)*
G04 Created by KiCad (PCBNEW (6.0.9)) date 2022-11-10 16:14:01*
%MOMM*%
%LPD*%
G01*
G04 APERTURE LIST*
G04 Aperture macros list*
%AMRoundRect*
0 Rectangle with rounded corners*
0 $1 Rounding radius*
0 $2 $3 $4 $5 $6 $7 $8 $9 X,Y pos of 4 corners*
0 Add a 4 corners polygon primitive as box body*
4,1,4,$2,$3,$4,$5,$6,$7,$8,$9,$2,$3,0*
0 Add four circle primitives for the rounded corners*
1,1,$1+$1,$2,$3*
1,1,$1+$1,$4,$5*
1,1,$1+$1,$6,$7*
1,1,$1+$1,$8,$9*
0 Add four rect primitives between the rounded corners*
20,1,$1+$1,$2,$3,$4,$5,0*
20,1,$1+$1,$4,$5,$6,$7,0*
20,1,$1+$1,$6,$7,$8,$9,0*
20,1,$1+$1,$8,$9,$2,$3,0*%
G04 Aperture macros list end*
G04 #@! TA.AperFunction,WasherPad*
%ADD10C,1.900000*%
G04 #@! TD*
G04 #@! TA.AperFunction,WasherPad*
%ADD11C,3.100000*%
G04 #@! TD*
G04 #@! TA.AperFunction,SMDPad,CuDef*
%ADD12R,1.700000X3.500000*%
G04 #@! TD*
G04 #@! TA.AperFunction,SMDPad,CuDef*
%ADD13R,3.000000X3.500000*%
G04 #@! TD*
G04 #@! TA.AperFunction,SMDPad,CuDef*
%ADD14R,0.950000X1.300000*%
G04 #@! TD*
G04 #@! TA.AperFunction,SMDPad,CuDef*
%ADD15R,1.500000X2.500000*%
G04 #@! TD*
G04 #@! TA.AperFunction,ComponentPad*
%ADD16C,1.524000*%
G04 #@! TD*
G04 #@! TA.AperFunction,SMDPad,CuDef*
%ADD17R,1.300000X0.950000*%
G04 #@! TD*
G04 #@! TA.AperFunction,ComponentPad*
%ADD18C,2.000000*%
G04 #@! TD*
G04 #@! TA.AperFunction,ComponentPad*
%ADD19C,1.397000*%
G04 #@! TD*
G04 #@! TA.AperFunction,SMDPad,CuDef*
%ADD20R,1.700000X0.820000*%
G04 #@! TD*
G04 #@! TA.AperFunction,SMDPad,CuDef*
%ADD21RoundRect,0.205000X-0.645000X-0.205000X0.645000X-0.205000X0.645000X0.205000X-0.645000X0.205000X0*%
G04 #@! TD*
G04 #@! TA.AperFunction,ViaPad*
%ADD22C,0.800000*%
G04 #@! TD*
G04 #@! TA.AperFunction,Conductor*
%ADD23C,0.250000*%
G04 #@! TD*
G04 #@! TA.AperFunction,Conductor*
%ADD24C,0.500000*%
G04 #@! TD*
G04 APERTURE END LIST*
D10*
X99990000Y-115390000D03*
D11*
X89490000Y-119090000D03*
X94490000Y-121290000D03*
D10*
X88990000Y-115390000D03*
D12*
X86790000Y-119090000D03*
D13*
X98040000Y-121290000D03*
D14*
X247930000Y-153665000D03*
X247930000Y-157215000D03*
D10*
X86300000Y-132650000D03*
D11*
X80800000Y-138550000D03*
D10*
X75300000Y-132650000D03*
D11*
X75800000Y-136350000D03*
D12*
X73100000Y-136350000D03*
D13*
X84350000Y-138550000D03*
D11*
X217580000Y-104080000D03*
X212580000Y-101880000D03*
D10*
X212080000Y-98180000D03*
X223080000Y-98180000D03*
D12*
X209880000Y-101880000D03*
D13*
X221130000Y-104080000D03*
D10*
X125410000Y-115400000D03*
D11*
X125910000Y-119100000D03*
D10*
X136410000Y-115400000D03*
D11*
X130910000Y-121300000D03*
D12*
X123210000Y-119100000D03*
D13*
X134460000Y-121300000D03*
D11*
X194330000Y-101860000D03*
D10*
X193830000Y-98160000D03*
X204830000Y-98160000D03*
D11*
X199330000Y-104060000D03*
D12*
X191630000Y-101860000D03*
D13*
X202880000Y-104060000D03*
D11*
X139670000Y-101860000D03*
D10*
X150170000Y-98160000D03*
X139170000Y-98160000D03*
D11*
X144670000Y-104060000D03*
D12*
X136970000Y-101860000D03*
D13*
X148220000Y-104060000D03*
D14*
X266230000Y-142565000D03*
X266230000Y-146115000D03*
D10*
X159220000Y-132660000D03*
D11*
X148720000Y-136360000D03*
X153720000Y-138560000D03*
D10*
X148220000Y-132660000D03*
D12*
X146020000Y-136360000D03*
D13*
X157270000Y-138560000D03*
D11*
X76310000Y-155790000D03*
X71310000Y-153590000D03*
D10*
X70810000Y-149890000D03*
X81810000Y-149890000D03*
D12*
X68610000Y-153590000D03*
D13*
X79860000Y-155790000D03*
D11*
X203510000Y-155790000D03*
X198510000Y-153590000D03*
D10*
X209010000Y-149890000D03*
X198010000Y-149890000D03*
D12*
X195810000Y-153590000D03*
D13*
X207060000Y-155790000D03*
D14*
X211490000Y-153605000D03*
X211490000Y-157155000D03*
D10*
X140980000Y-132660000D03*
D11*
X130480000Y-136360000D03*
D10*
X129980000Y-132660000D03*
D11*
X135480000Y-138560000D03*
D12*
X127780000Y-136360000D03*
D13*
X139030000Y-138560000D03*
D11*
X167390000Y-121300000D03*
X162390000Y-119100000D03*
D10*
X172890000Y-115400000D03*
X161890000Y-115400000D03*
D12*
X159690000Y-119100000D03*
D13*
X170940000Y-121300000D03*
D14*
X229730000Y-153635000D03*
X229730000Y-157185000D03*
D10*
X254720000Y-115400000D03*
X243720000Y-115400000D03*
D11*
X244220000Y-119100000D03*
X249220000Y-121300000D03*
D15*
X241620000Y-119100000D03*
X252020000Y-121300000D03*
D11*
X94020000Y-136350000D03*
X99020000Y-138550000D03*
D10*
X93520000Y-132650000D03*
X104520000Y-132650000D03*
D12*
X91320000Y-136350000D03*
D13*
X102570000Y-138550000D03*
D14*
X211840000Y-119255000D03*
X211840000Y-122805000D03*
D11*
X94550000Y-155790000D03*
D10*
X100050000Y-149890000D03*
X89050000Y-149890000D03*
D11*
X89550000Y-153590000D03*
D12*
X86850000Y-153590000D03*
D13*
X98100000Y-155790000D03*
D14*
X138920000Y-119205000D03*
X138920000Y-122755000D03*
X102570000Y-153635000D03*
X102570000Y-157185000D03*
D10*
X232140000Y-132640000D03*
D11*
X226640000Y-138540000D03*
X221640000Y-136340000D03*
D10*
X221140000Y-132640000D03*
D12*
X218940000Y-136340000D03*
D13*
X230190000Y-138540000D03*
D16*
X30152000Y-70183600D03*
X32692000Y-70183600D03*
X35232000Y-70183600D03*
X37772000Y-70183600D03*
X40312000Y-70183600D03*
X42852000Y-70183600D03*
X45392000Y-70183600D03*
X47932000Y-70183600D03*
X50472000Y-70183600D03*
X53012000Y-70183600D03*
X55552000Y-70183600D03*
X58092000Y-70183600D03*
X58092000Y-85403600D03*
X55552000Y-85403600D03*
X53012000Y-85403600D03*
X50472000Y-85403600D03*
X47932000Y-85403600D03*
X45392000Y-85403600D03*
X42852000Y-85403600D03*
X40312000Y-85403600D03*
X37772000Y-85403600D03*
X35232000Y-85403600D03*
X32692000Y-85403600D03*
X30152000Y-85403600D03*
D14*
X189130000Y-101945000D03*
X189130000Y-105495000D03*
X134450000Y-101955000D03*
X134450000Y-105505000D03*
D10*
X227240000Y-149900000D03*
D11*
X221740000Y-155800000D03*
X216740000Y-153600000D03*
D10*
X216240000Y-149900000D03*
D12*
X214040000Y-153600000D03*
D13*
X225290000Y-155800000D03*
D14*
X152670000Y-101995000D03*
X152670000Y-105545000D03*
D11*
X144150000Y-119110000D03*
D10*
X143650000Y-115410000D03*
X154650000Y-115410000D03*
D11*
X149150000Y-121310000D03*
D12*
X141450000Y-119110000D03*
D13*
X152700000Y-121310000D03*
D14*
X207350000Y-101945000D03*
X207350000Y-105495000D03*
X243850000Y-101985000D03*
X243850000Y-105535000D03*
X47850000Y-136465000D03*
X47850000Y-140015000D03*
D10*
X122740000Y-132660000D03*
D11*
X117240000Y-138560000D03*
D10*
X111740000Y-132660000D03*
D11*
X112240000Y-136360000D03*
D12*
X109540000Y-136360000D03*
D13*
X120790000Y-138560000D03*
D17*
X135545000Y-155800000D03*
X131995000Y-155800000D03*
D14*
X66060000Y-153635000D03*
X66060000Y-157185000D03*
D11*
X251200000Y-101850000D03*
X256200000Y-104050000D03*
D10*
X261700000Y-98150000D03*
X250700000Y-98150000D03*
D12*
X248500000Y-101850000D03*
D13*
X259750000Y-104050000D03*
D14*
X193280000Y-153665000D03*
X193280000Y-157215000D03*
X175400000Y-119195000D03*
X175400000Y-122745000D03*
X157140000Y-119185000D03*
X157140000Y-122735000D03*
X125210000Y-136435000D03*
X125210000Y-139985000D03*
D11*
X39860000Y-138570000D03*
X34860000Y-136370000D03*
D10*
X34360000Y-132670000D03*
X45360000Y-132670000D03*
D12*
X32160000Y-136370000D03*
D13*
X43410000Y-138570000D03*
D14*
X84330000Y-153635000D03*
X84330000Y-157185000D03*
X102520000Y-119205000D03*
X102520000Y-122755000D03*
D10*
X40780000Y-98180000D03*
D11*
X30280000Y-101880000D03*
X35280000Y-104080000D03*
D10*
X29780000Y-98180000D03*
D12*
X27580000Y-101880000D03*
D13*
X38830000Y-104080000D03*
D14*
X225590000Y-101935000D03*
X225590000Y-105485000D03*
X45660000Y-119215000D03*
X45660000Y-122765000D03*
X143520000Y-136505000D03*
X143520000Y-140055000D03*
D10*
X175600000Y-98160000D03*
X186600000Y-98160000D03*
D11*
X176100000Y-101860000D03*
X181100000Y-104060000D03*
D12*
X173400000Y-101860000D03*
D13*
X184650000Y-104060000D03*
D10*
X163490000Y-149920000D03*
D11*
X152990000Y-153620000D03*
X157990000Y-155820000D03*
D10*
X152490000Y-149920000D03*
D15*
X150390000Y-153620000D03*
X160790000Y-155820000D03*
D17*
X262955000Y-121260000D03*
X259405000Y-121260000D03*
D11*
X258210000Y-155790000D03*
D10*
X263710000Y-149890000D03*
D11*
X253210000Y-153590000D03*
D10*
X252710000Y-149890000D03*
D12*
X250510000Y-153590000D03*
D13*
X261760000Y-155790000D03*
D10*
X77250000Y-98160000D03*
X66250000Y-98160000D03*
D11*
X66750000Y-101860000D03*
X71750000Y-104060000D03*
D12*
X64050000Y-101860000D03*
D13*
X75300000Y-104060000D03*
D14*
X43270000Y-101945000D03*
X43270000Y-105495000D03*
D18*
X72372000Y-70685000D03*
X65872000Y-70685000D03*
D11*
X89960000Y-104080000D03*
X84960000Y-101880000D03*
D10*
X95460000Y-98180000D03*
X84460000Y-98180000D03*
D12*
X82260000Y-101880000D03*
D13*
X93510000Y-104080000D03*
D10*
X191100000Y-115400000D03*
X180100000Y-115400000D03*
D11*
X180600000Y-119100000D03*
X185600000Y-121300000D03*
D12*
X177900000Y-119100000D03*
D13*
X189150000Y-121300000D03*
D11*
X121750000Y-155810000D03*
D10*
X116250000Y-149910000D03*
X127250000Y-149910000D03*
D11*
X116750000Y-153610000D03*
D15*
X114150000Y-153610000D03*
X124550000Y-155810000D03*
D14*
X107000000Y-136435000D03*
X107000000Y-139985000D03*
D11*
X185280000Y-155790000D03*
X180280000Y-153590000D03*
D10*
X190780000Y-149890000D03*
X179780000Y-149890000D03*
D12*
X177580000Y-153590000D03*
D13*
X188830000Y-155790000D03*
D11*
X251650000Y-138500000D03*
D10*
X257150000Y-132600000D03*
D11*
X246650000Y-136300000D03*
D10*
X246150000Y-132600000D03*
D12*
X243950000Y-136300000D03*
D13*
X255200000Y-138500000D03*
D14*
X45660000Y-153665000D03*
X45660000Y-157215000D03*
D10*
X102690000Y-98180000D03*
D11*
X103190000Y-101880000D03*
X108190000Y-104080000D03*
D10*
X113690000Y-98180000D03*
D12*
X100490000Y-101880000D03*
D13*
X111740000Y-104080000D03*
D14*
X88800000Y-136345000D03*
X88800000Y-139895000D03*
D19*
X62530000Y-81730000D03*
X62530000Y-79190000D03*
X62530000Y-76650000D03*
X62530000Y-74110000D03*
D10*
X57060000Y-132650000D03*
D11*
X62560000Y-138550000D03*
D10*
X68060000Y-132650000D03*
D11*
X57560000Y-136350000D03*
D12*
X54860000Y-136350000D03*
D13*
X66110000Y-138550000D03*
D10*
X63590000Y-149885000D03*
D11*
X53090000Y-153585000D03*
X58090000Y-155785000D03*
D10*
X52590000Y-149885000D03*
D12*
X50390000Y-153585000D03*
D13*
X61640000Y-155785000D03*
D14*
X234650000Y-136435000D03*
X234650000Y-139985000D03*
X97970000Y-101985000D03*
X97970000Y-105535000D03*
X79750000Y-101965000D03*
X79750000Y-105515000D03*
D11*
X235810000Y-104080000D03*
D10*
X230310000Y-98180000D03*
D11*
X230810000Y-101880000D03*
D10*
X241310000Y-98180000D03*
D12*
X228110000Y-101880000D03*
D13*
X239360000Y-104080000D03*
D14*
X264220000Y-101935000D03*
X264220000Y-105485000D03*
D10*
X32110000Y-115410000D03*
D11*
X37610000Y-121310000D03*
D10*
X43110000Y-115410000D03*
D11*
X32610000Y-119110000D03*
D12*
X29910000Y-119110000D03*
D13*
X41160000Y-121310000D03*
D11*
X222040000Y-121310000D03*
D10*
X216540000Y-115410000D03*
D11*
X217040000Y-119110000D03*
D10*
X227540000Y-115410000D03*
D12*
X214340000Y-119110000D03*
D13*
X225590000Y-121310000D03*
D14*
X84280000Y-119205000D03*
X84280000Y-122755000D03*
D10*
X202920000Y-132640000D03*
D11*
X203420000Y-136340000D03*
D10*
X213920000Y-132640000D03*
D11*
X208420000Y-138540000D03*
D12*
X200720000Y-136340000D03*
D13*
X211970000Y-138540000D03*
D14*
X216410000Y-136435000D03*
X216410000Y-139985000D03*
X66080000Y-119215000D03*
X66080000Y-122765000D03*
X70580000Y-136465000D03*
X70580000Y-140015000D03*
X161760000Y-136475000D03*
X161760000Y-140025000D03*
X259700000Y-136405000D03*
X259700000Y-139955000D03*
D10*
X120940000Y-98180000D03*
X131940000Y-98180000D03*
D11*
X121440000Y-101880000D03*
X126440000Y-104080000D03*
D12*
X118740000Y-101880000D03*
D13*
X129990000Y-104080000D03*
D11*
X37630000Y-155760000D03*
D10*
X43130000Y-149860000D03*
X32130000Y-149860000D03*
D11*
X32630000Y-153560000D03*
D12*
X29930000Y-153560000D03*
D13*
X41180000Y-155760000D03*
D14*
X61470000Y-101965000D03*
X61470000Y-105515000D03*
D11*
X171960000Y-138540000D03*
X166960000Y-136340000D03*
D10*
X166460000Y-132640000D03*
X177460000Y-132640000D03*
D12*
X164260000Y-136340000D03*
D13*
X175510000Y-138540000D03*
D11*
X53490000Y-104080000D03*
D10*
X47990000Y-98180000D03*
X58990000Y-98180000D03*
D11*
X48490000Y-101880000D03*
D12*
X45790000Y-101880000D03*
D13*
X57040000Y-104080000D03*
D14*
X116210000Y-101965000D03*
X116210000Y-105515000D03*
D11*
X162900000Y-104060000D03*
X157900000Y-101860000D03*
D10*
X168400000Y-98160000D03*
X157400000Y-98160000D03*
D12*
X155200000Y-101860000D03*
D13*
X166450000Y-104060000D03*
D17*
X171725000Y-155820000D03*
X168175000Y-155820000D03*
D14*
X230050000Y-119255000D03*
X230050000Y-122805000D03*
D11*
X112710000Y-121300000D03*
X107710000Y-119100000D03*
D10*
X118210000Y-115400000D03*
X107210000Y-115400000D03*
D12*
X105010000Y-119100000D03*
D13*
X116260000Y-121300000D03*
D14*
X179930000Y-136435000D03*
X179930000Y-139985000D03*
X120720000Y-119205000D03*
X120720000Y-122755000D03*
D11*
X198820000Y-119110000D03*
D10*
X209320000Y-115410000D03*
D11*
X203820000Y-121310000D03*
D10*
X198320000Y-115410000D03*
D12*
X196120000Y-119110000D03*
D13*
X207370000Y-121310000D03*
D11*
X239950000Y-155795000D03*
D10*
X245450000Y-149895000D03*
X234450000Y-149895000D03*
D11*
X234950000Y-153595000D03*
D12*
X232250000Y-153595000D03*
D13*
X243500000Y-155795000D03*
D14*
X170930000Y-101945000D03*
X170930000Y-105495000D03*
X193600000Y-119215000D03*
X193600000Y-122765000D03*
D11*
X53050000Y-119110000D03*
D10*
X63550000Y-115410000D03*
D11*
X58050000Y-121310000D03*
D10*
X52550000Y-115410000D03*
D12*
X50350000Y-119110000D03*
D13*
X61600000Y-121310000D03*
D11*
X71270000Y-119100000D03*
D10*
X70770000Y-115400000D03*
X81770000Y-115400000D03*
D11*
X76270000Y-121300000D03*
D12*
X68570000Y-119100000D03*
D13*
X79820000Y-121300000D03*
D14*
X198170000Y-136435000D03*
X198170000Y-139985000D03*
D10*
X195700000Y-132640000D03*
D11*
X190200000Y-138540000D03*
D10*
X184700000Y-132640000D03*
D11*
X185200000Y-136340000D03*
D12*
X182500000Y-136340000D03*
D13*
X193750000Y-138540000D03*
D20*
X255650000Y-144240000D03*
X255650000Y-145740000D03*
D21*
X260750000Y-145740000D03*
D20*
X260750000Y-144240000D03*
X55450000Y-110250000D03*
X55450000Y-111750000D03*
D21*
X60550000Y-111750000D03*
D20*
X60550000Y-110250000D03*
X142070000Y-93200000D03*
X142070000Y-94700000D03*
D21*
X147170000Y-94700000D03*
D20*
X147170000Y-93200000D03*
X146650000Y-110265000D03*
X146650000Y-111765000D03*
D21*
X151750000Y-111765000D03*
D20*
X151750000Y-110265000D03*
X155440000Y-144305000D03*
X155440000Y-145805000D03*
D21*
X160540000Y-145805000D03*
D20*
X160540000Y-144305000D03*
X96370000Y-127280000D03*
X96370000Y-128780000D03*
D21*
X101470000Y-128780000D03*
D20*
X101470000Y-127280000D03*
X201250000Y-110195000D03*
X201250000Y-111695000D03*
D21*
X206350000Y-111695000D03*
D20*
X206350000Y-110195000D03*
X183050000Y-110215000D03*
X183050000Y-111715000D03*
D21*
X188150000Y-111715000D03*
D20*
X188150000Y-110215000D03*
X200970000Y-144205000D03*
X200970000Y-145705000D03*
D21*
X206070000Y-145705000D03*
D20*
X206070000Y-144205000D03*
X91910000Y-110200000D03*
X91910000Y-111700000D03*
D21*
X97010000Y-111700000D03*
D20*
X97010000Y-110200000D03*
X233230000Y-93270000D03*
X233230000Y-94770000D03*
D21*
X238330000Y-94770000D03*
D20*
X238330000Y-93270000D03*
X224050000Y-127230000D03*
X224050000Y-128730000D03*
D21*
X229150000Y-128730000D03*
D20*
X229150000Y-127230000D03*
X160330000Y-93170000D03*
X160330000Y-94670000D03*
D21*
X165430000Y-94670000D03*
D20*
X165430000Y-93170000D03*
X219420000Y-110240000D03*
X219420000Y-111740000D03*
D21*
X224520000Y-111740000D03*
D20*
X224520000Y-110240000D03*
X169370000Y-127270000D03*
X169370000Y-128770000D03*
D21*
X174470000Y-128770000D03*
D20*
X174470000Y-127270000D03*
X73660000Y-110265000D03*
X73660000Y-111765000D03*
D21*
X78760000Y-111765000D03*
D20*
X78760000Y-110265000D03*
X69180000Y-93220000D03*
X69180000Y-94720000D03*
D21*
X74280000Y-94720000D03*
D20*
X74280000Y-93220000D03*
X237370000Y-144285000D03*
X237370000Y-145785000D03*
D21*
X242470000Y-145785000D03*
D20*
X242470000Y-144285000D03*
X128300000Y-110235000D03*
X128300000Y-111735000D03*
D21*
X133400000Y-111735000D03*
D20*
X133400000Y-110235000D03*
X249160000Y-127265000D03*
X249160000Y-128765000D03*
D21*
X254260000Y-128765000D03*
D20*
X254260000Y-127265000D03*
X182790000Y-144245000D03*
X182790000Y-145745000D03*
D21*
X187890000Y-145745000D03*
D20*
X187890000Y-144245000D03*
X87360000Y-93270000D03*
X87360000Y-94770000D03*
D21*
X92460000Y-94770000D03*
D20*
X92460000Y-93270000D03*
X37250000Y-127255000D03*
X37250000Y-128755000D03*
D21*
X42350000Y-128755000D03*
D20*
X42350000Y-127255000D03*
X187610000Y-127230000D03*
X187610000Y-128730000D03*
D21*
X192710000Y-128730000D03*
D20*
X192710000Y-127230000D03*
X253640000Y-93200000D03*
X253640000Y-94700000D03*
D21*
X258740000Y-94700000D03*
D20*
X258740000Y-93200000D03*
X196780000Y-93220000D03*
X196780000Y-94720000D03*
D21*
X201880000Y-94720000D03*
D20*
X201880000Y-93220000D03*
X219210000Y-144280000D03*
X219210000Y-145780000D03*
D21*
X224310000Y-145780000D03*
D20*
X224310000Y-144280000D03*
X215180000Y-93200000D03*
X215180000Y-94700000D03*
D21*
X220280000Y-94700000D03*
D20*
X220280000Y-93200000D03*
X78210000Y-127280000D03*
X78210000Y-128780000D03*
D21*
X83310000Y-128780000D03*
D20*
X83310000Y-127280000D03*
X35070000Y-110180000D03*
X35070000Y-111680000D03*
D21*
X40170000Y-111680000D03*
D20*
X40170000Y-110180000D03*
X123840000Y-93270000D03*
X123840000Y-94770000D03*
D21*
X128940000Y-94770000D03*
D20*
X128940000Y-93270000D03*
X105590000Y-93220000D03*
X105590000Y-94720000D03*
D21*
X110690000Y-94720000D03*
D20*
X110690000Y-93220000D03*
X132890000Y-127210000D03*
X132890000Y-128710000D03*
D21*
X137990000Y-128710000D03*
D20*
X137990000Y-127210000D03*
X205870000Y-127190000D03*
X205870000Y-128690000D03*
D21*
X210970000Y-128690000D03*
D20*
X210970000Y-127190000D03*
X92050000Y-144190000D03*
X92050000Y-145690000D03*
D21*
X97150000Y-145690000D03*
D20*
X97150000Y-144190000D03*
X151190000Y-127230000D03*
X151190000Y-128730000D03*
D21*
X156290000Y-128730000D03*
D20*
X156290000Y-127230000D03*
X119220000Y-144355000D03*
X119220000Y-145855000D03*
D21*
X124320000Y-145855000D03*
D20*
X124320000Y-144355000D03*
X178550000Y-93185000D03*
X178550000Y-94685000D03*
D21*
X183650000Y-94685000D03*
D20*
X183650000Y-93185000D03*
X35140000Y-144240000D03*
X35140000Y-145740000D03*
D21*
X40240000Y-145740000D03*
D20*
X40240000Y-144240000D03*
X110180000Y-110265000D03*
X110180000Y-111765000D03*
D21*
X115280000Y-111765000D03*
D20*
X115280000Y-110265000D03*
X246600000Y-110205000D03*
X246600000Y-111705000D03*
D21*
X251700000Y-111705000D03*
D20*
X251700000Y-110205000D03*
X114690000Y-127230000D03*
X114690000Y-128730000D03*
D21*
X119790000Y-128730000D03*
D20*
X119790000Y-127230000D03*
X164770000Y-110240000D03*
X164770000Y-111740000D03*
D21*
X169870000Y-111740000D03*
D20*
X169870000Y-110240000D03*
X55530000Y-144280000D03*
X55530000Y-145780000D03*
D21*
X60630000Y-145780000D03*
D20*
X60630000Y-144280000D03*
X60000000Y-127240000D03*
X60000000Y-128740000D03*
D21*
X65100000Y-128740000D03*
D20*
X65100000Y-127240000D03*
X50890000Y-93185000D03*
X50890000Y-94685000D03*
D21*
X55990000Y-94685000D03*
D20*
X55990000Y-93185000D03*
X32710000Y-93235000D03*
X32710000Y-94735000D03*
D21*
X37810000Y-94735000D03*
D20*
X37810000Y-93235000D03*
X73680000Y-144230000D03*
X73680000Y-145730000D03*
D21*
X78780000Y-145730000D03*
D20*
X78780000Y-144230000D03*
D22*
X228834500Y-94940000D03*
X232590000Y-97254479D03*
X223050000Y-100030000D03*
X76150000Y-89630000D03*
X223844500Y-94957792D03*
X181930000Y-101195500D03*
X171530000Y-90629115D03*
X241058389Y-100177013D03*
X58070000Y-68470000D03*
X204837701Y-100467701D03*
X115470000Y-89000000D03*
X42560000Y-105810000D03*
X40540000Y-105790000D03*
X99780000Y-107770000D03*
X97034312Y-108665688D03*
X188100000Y-101920000D03*
X61480000Y-102840000D03*
X82770000Y-107510500D03*
X242344500Y-110872072D03*
X225640000Y-102840000D03*
X134480000Y-100970000D03*
X263380000Y-101830000D03*
X248930000Y-104260000D03*
X99765500Y-99400000D03*
X133590000Y-101710000D03*
X190905500Y-105000000D03*
X224580000Y-101860000D03*
X78890000Y-106060000D03*
X76980000Y-106030000D03*
X83915688Y-118205688D03*
X202040000Y-119540000D03*
X157140000Y-115550000D03*
X193560000Y-120030000D03*
X187080000Y-113050000D03*
X158965500Y-115890000D03*
X46405500Y-112780000D03*
X113370000Y-105970000D03*
X115430000Y-106000000D03*
X104285500Y-116400000D03*
X53046499Y-74273501D03*
X84649500Y-115790000D03*
X53016901Y-76293099D03*
X119900000Y-118960000D03*
X174610000Y-119090000D03*
X211100000Y-118970000D03*
X66080000Y-115800000D03*
X93262299Y-117747701D03*
X211840000Y-118370000D03*
X122485500Y-116750498D03*
X262550000Y-121920000D03*
X90690000Y-114620000D03*
X168090000Y-105850000D03*
X170180000Y-105850000D03*
X99700000Y-135215500D03*
X136538389Y-117777013D03*
X144689312Y-123269312D03*
X47061880Y-107336479D03*
X114920000Y-124455500D03*
X88590688Y-135180688D03*
X97399500Y-136664500D03*
X90595500Y-139590000D03*
X113550000Y-125904500D03*
X47902635Y-106128037D03*
X198180000Y-137130000D03*
X145925688Y-124435688D03*
X181940500Y-142830000D03*
X131080000Y-118055500D03*
X47850000Y-134020000D03*
X138930000Y-119870000D03*
X158430000Y-124800000D03*
X51456901Y-74733099D03*
X164984500Y-143260000D03*
X236130000Y-141100000D03*
X161760000Y-137280000D03*
X129001449Y-118926048D03*
X198193438Y-141576562D03*
X183639500Y-142830000D03*
X206570000Y-105970000D03*
X204410000Y-105940000D03*
X70560000Y-137540000D03*
X63187299Y-108722701D03*
X259000000Y-135910000D03*
X215590000Y-136400000D03*
X127055500Y-134010498D03*
X69350000Y-124810000D03*
X225803668Y-135165500D03*
X124580000Y-136430000D03*
X62964951Y-89875049D03*
X83470000Y-134565500D03*
X78959500Y-136550000D03*
X65350000Y-124690000D03*
X179240000Y-136310000D03*
X63152701Y-110737299D03*
X108530000Y-133940000D03*
X63854549Y-88715451D03*
X241050000Y-105940000D03*
X242870000Y-105970000D03*
X210870000Y-153620000D03*
X246009194Y-155070500D03*
X82630000Y-156514500D03*
X41810000Y-107330000D03*
X32190000Y-106000000D03*
X168442500Y-159102500D03*
X82610000Y-155065500D03*
X58895500Y-106010000D03*
X60790000Y-106010000D03*
X69482701Y-144062701D03*
X50316499Y-86763501D03*
X228680000Y-159674500D03*
X48368832Y-86865030D03*
X72375500Y-125130000D03*
X65364500Y-86680000D03*
X228980000Y-153620000D03*
X72870000Y-147350000D03*
X227900000Y-156524500D03*
X69855500Y-133250000D03*
X72377299Y-122962701D03*
X102560000Y-149850000D03*
X71304500Y-131930000D03*
X265570000Y-142610000D03*
X137232701Y-155702701D03*
X70937823Y-144995500D03*
X193350000Y-152300000D03*
X95160000Y-106000000D03*
X97130000Y-106000000D03*
X131610000Y-105910000D03*
X133700000Y-105910000D03*
X186240000Y-105940000D03*
X188270000Y-105940000D03*
X224870000Y-105910000D03*
X222690000Y-105910000D03*
X263230000Y-105850000D03*
X261410000Y-105820000D03*
X44820000Y-122990000D03*
X43100000Y-122970000D03*
X83430000Y-123040000D03*
X81370000Y-123040000D03*
X149910000Y-105970000D03*
X151790000Y-105970000D03*
X156450000Y-123060000D03*
X154350000Y-123060000D03*
X190860000Y-123090000D03*
X192800000Y-123130000D03*
X229320000Y-123000000D03*
X227190000Y-123030000D03*
X64994500Y-123167700D03*
X63545500Y-123177280D03*
X101600000Y-122970000D03*
X99600000Y-122970000D03*
X120030000Y-123060000D03*
X117900000Y-123030000D03*
X174660000Y-123090000D03*
X172650000Y-123130000D03*
X209040000Y-123090000D03*
X211170000Y-123090000D03*
X252820000Y-121250000D03*
X258610000Y-121290000D03*
X44990000Y-140140000D03*
X47309021Y-140180000D03*
X85910000Y-140300000D03*
X88010000Y-140320000D03*
X136170000Y-123060000D03*
X138300000Y-123060000D03*
X161100000Y-140540000D03*
X158850000Y-140510000D03*
X197520000Y-140450000D03*
X195330000Y-140390000D03*
X231880000Y-140330000D03*
X233860000Y-140360000D03*
X67860000Y-140340000D03*
X69910000Y-140360000D03*
X104160000Y-140390000D03*
X106260000Y-140450000D03*
X124400000Y-140420000D03*
X122310000Y-140420000D03*
X177030000Y-140450000D03*
X179090000Y-140450000D03*
X213570000Y-140330000D03*
X215640000Y-140360000D03*
X259040000Y-140250000D03*
X256800000Y-140250000D03*
X140550000Y-140480000D03*
X142680000Y-140510000D03*
X52280000Y-78160000D03*
X224030000Y-126560000D03*
X105267701Y-125082299D03*
X91280000Y-113739979D03*
X50850160Y-102155914D03*
X146570000Y-122590000D03*
X25690000Y-127200000D03*
X160340000Y-92530000D03*
X146650000Y-109560000D03*
X182090000Y-110150000D03*
X106282299Y-124047701D03*
X179377299Y-124692701D03*
X25690000Y-94850000D03*
X74930000Y-108360000D03*
X199592299Y-142952299D03*
X224041883Y-137951883D03*
X32730000Y-92270000D03*
X247690000Y-92530000D03*
X84070000Y-110985500D03*
X78120000Y-142050000D03*
X33950000Y-110170000D03*
X253600000Y-92470000D03*
X196760000Y-92470000D03*
X142000000Y-92620000D03*
X224062285Y-135882285D03*
X91000000Y-110130000D03*
X214780000Y-105600000D03*
X84370000Y-107190000D03*
X129264312Y-91835688D03*
X84081210Y-112434500D03*
X123760000Y-92590000D03*
X249010000Y-139120000D03*
X25690000Y-110010000D03*
X49668512Y-80741488D03*
X50030000Y-93150000D03*
X104630000Y-91670000D03*
X215120000Y-92530000D03*
X233210000Y-92590000D03*
X50852635Y-104202635D03*
X29205500Y-144220000D03*
X246462701Y-104392701D03*
X171580000Y-124730000D03*
X132035286Y-91670000D03*
X201220000Y-109810000D03*
X34260000Y-144190000D03*
X178480000Y-92500000D03*
X36230000Y-127240000D03*
X230680000Y-125080000D03*
X196530000Y-141114500D03*
X149489991Y-91478615D03*
X132920000Y-126650000D03*
X163820000Y-110210000D03*
X246447299Y-107767299D03*
X237330000Y-143680000D03*
X72232299Y-143362299D03*
X65364500Y-79300000D03*
X63160000Y-142610000D03*
X91830000Y-143650000D03*
X31840000Y-94700000D03*
X42764491Y-90956447D03*
X30750000Y-93119500D03*
X56140000Y-92410000D03*
X35023566Y-88775059D03*
X37830000Y-92180000D03*
X36505688Y-89695688D03*
X99370000Y-143500000D03*
X232680000Y-114930000D03*
X118030000Y-90820500D03*
X102972701Y-110087299D03*
X82480000Y-125344500D03*
X29427500Y-82220000D03*
X158120000Y-126610000D03*
X149490000Y-92680000D03*
X208240044Y-117600044D03*
X253914799Y-109014799D03*
X249785500Y-147410000D03*
X160890000Y-111045500D03*
X35169520Y-67294500D03*
X207120445Y-116670446D03*
X114330000Y-108850000D03*
X210160000Y-125130000D03*
X152570000Y-114840000D03*
X36790000Y-118460000D03*
X118390000Y-110955500D03*
X37070000Y-124470000D03*
X45963512Y-77036488D03*
X73260000Y-112870000D03*
X206120000Y-146210000D03*
X39090000Y-94720000D03*
X223840000Y-107290000D03*
X241899511Y-108590489D03*
X69855500Y-126700000D03*
X37772000Y-88429376D03*
X251234500Y-147410000D03*
X155720000Y-111045500D03*
X233594500Y-147440000D03*
X55990000Y-95380000D03*
X52667299Y-147287299D03*
X225410000Y-111790000D03*
X30876500Y-83514589D03*
X176240000Y-126700000D03*
X101500000Y-129040000D03*
X115454216Y-98971185D03*
X142462701Y-125837299D03*
X88340000Y-141900000D03*
X116990000Y-97550000D03*
X61079500Y-136590000D03*
X59487910Y-140153465D03*
X35844312Y-87954312D03*
X60630000Y-112250000D03*
X32997221Y-67317221D03*
X232145500Y-147440000D03*
X154832299Y-112797701D03*
X45735011Y-147260000D03*
X42740000Y-142370000D03*
X88558190Y-131381810D03*
X43600000Y-130320000D03*
X155287299Y-125837299D03*
X217054312Y-109075688D03*
X51100000Y-77000000D03*
X188800000Y-145780000D03*
X196487701Y-125732299D03*
X131190000Y-92560000D03*
X49785688Y-94615688D03*
X74360000Y-92690000D03*
X47310000Y-93999500D03*
X56825500Y-91460000D03*
X67649312Y-88870688D03*
X90630000Y-88900000D03*
X92433549Y-95894925D03*
X112320000Y-95480000D03*
X130100000Y-93350000D03*
X110604311Y-96745687D03*
X128950500Y-96529979D03*
X148640500Y-93464312D03*
X154475500Y-95770000D03*
X166400000Y-93150000D03*
X184580000Y-93090000D03*
X165530500Y-96494500D03*
X183704913Y-97126289D03*
X202820000Y-93250000D03*
X201770000Y-99810021D03*
X221180000Y-93280000D03*
X239270000Y-93290000D03*
X220030500Y-96529979D03*
X238460500Y-96529979D03*
X259600000Y-93170000D03*
X225460000Y-110230000D03*
X245520000Y-111710000D03*
X218410000Y-111740000D03*
X207350000Y-110200000D03*
X200350000Y-111710000D03*
X189200000Y-110260000D03*
X182050000Y-111710000D03*
X170770000Y-110200000D03*
X163810000Y-111770000D03*
X152720000Y-110260000D03*
X145790000Y-111740000D03*
X134290000Y-110230000D03*
X127240000Y-111710000D03*
X116090000Y-110260000D03*
X109210000Y-111710000D03*
X97910000Y-110260000D03*
X79670000Y-110260000D03*
X91040000Y-111710000D03*
X72680000Y-111770000D03*
X61620000Y-110540000D03*
X41190000Y-110200000D03*
X54470000Y-111710000D03*
X37100000Y-125580000D03*
X42300000Y-126470000D03*
X37250000Y-129560000D03*
X64540000Y-125800000D03*
X59950000Y-129590000D03*
X83280000Y-126749500D03*
X101500000Y-126850000D03*
X78210000Y-129500000D03*
X119900000Y-126630000D03*
X111500500Y-125135688D03*
X107827701Y-127642299D03*
X108802299Y-126567701D03*
X138980000Y-127310000D03*
X118800000Y-130110000D03*
X157270500Y-127400000D03*
X145295500Y-130300000D03*
X175390500Y-127444580D03*
X156190500Y-133960000D03*
X193794312Y-127224312D03*
X181775500Y-130200000D03*
X199995500Y-130230000D03*
X211880000Y-127280000D03*
X210837408Y-130954500D03*
X230180000Y-127280000D03*
X240895500Y-130260000D03*
X255140000Y-127280000D03*
X243400000Y-144280000D03*
X254730000Y-145720000D03*
X236280000Y-145750000D03*
X225280000Y-144250000D03*
X218320000Y-145790000D03*
X207010000Y-144150000D03*
X188800000Y-144210000D03*
X200080000Y-145690000D03*
X161470000Y-144280000D03*
X181870000Y-145750000D03*
X125300000Y-144370000D03*
X154510000Y-145820000D03*
X118370000Y-145880000D03*
X98150000Y-144150000D03*
X91190000Y-145690000D03*
X79730000Y-144210000D03*
X72760000Y-145720000D03*
X61550000Y-144280000D03*
X54650000Y-145790000D03*
X41120000Y-144210000D03*
X28110000Y-101720000D03*
X44930000Y-100980000D03*
X81300000Y-100740000D03*
X64570000Y-101480000D03*
X73630000Y-124780000D03*
X86170000Y-124620000D03*
X62194500Y-88080000D03*
X98300000Y-90600000D03*
X56825500Y-90410000D03*
X137030000Y-105970000D03*
X123210000Y-110955500D03*
X163020000Y-107670000D03*
X150930000Y-86350000D03*
X173400000Y-106750000D03*
X191610000Y-87450989D03*
X192200000Y-142110000D03*
X192100000Y-101410000D03*
X209820000Y-99810000D03*
X182460000Y-140630000D03*
X220642904Y-134433330D03*
X228960000Y-100090000D03*
X227800000Y-89390000D03*
X232870000Y-139605500D03*
X247600000Y-100950000D03*
D23*
X181615500Y-101510000D02*
X179620000Y-101510000D01*
X43938511Y-71637089D02*
X45392000Y-70183600D01*
X61430000Y-68470000D02*
X58070000Y-68470000D01*
X43938511Y-101276489D02*
X43938511Y-71637089D01*
X232590000Y-97254479D02*
X230275521Y-94940000D01*
X43270000Y-101945000D02*
X43938511Y-101276489D01*
X79750000Y-93230000D02*
X76150000Y-89630000D01*
X179620000Y-101510000D02*
X177590000Y-99480000D01*
X221454520Y-98434520D02*
X223050000Y-100030000D01*
X171540000Y-99480000D02*
X170930000Y-100090000D01*
X79750000Y-101965000D02*
X79750000Y-93230000D01*
X230275521Y-94940000D02*
X228834500Y-94940000D01*
X206315000Y-101945000D02*
X204837701Y-100467701D01*
X116210000Y-89740000D02*
X115470000Y-89000000D01*
X66330000Y-73370000D02*
X61430000Y-68470000D01*
X243850000Y-101985000D02*
X242866376Y-101985000D01*
X242866376Y-101985000D02*
X241058389Y-100177013D01*
X207350000Y-101945000D02*
X206315000Y-101945000D01*
X223844500Y-94957792D02*
X221454520Y-97347772D01*
X177590000Y-99480000D02*
X171540000Y-99480000D01*
X116210000Y-101965000D02*
X116210000Y-89740000D01*
X170930000Y-100090000D02*
X170930000Y-101945000D01*
X221454520Y-97347772D02*
X221454520Y-98434520D01*
X181930000Y-101195500D02*
X181615500Y-101510000D01*
X76150000Y-89630000D02*
X66330000Y-79810000D01*
X66330000Y-79810000D02*
X66330000Y-73370000D01*
X171530000Y-99470000D02*
X171540000Y-99480000D01*
X171530000Y-90629115D02*
X171530000Y-99470000D01*
X42955000Y-105810000D02*
X43270000Y-105495000D01*
X42560000Y-105810000D02*
X42955000Y-105810000D01*
X38830000Y-104080000D02*
X40540000Y-105790000D01*
X225515000Y-101860000D02*
X225590000Y-101935000D01*
X97970000Y-103220000D02*
X97970000Y-101985000D01*
X134205000Y-101710000D02*
X134450000Y-101955000D01*
X224580000Y-101860000D02*
X225515000Y-101860000D01*
X264115000Y-101830000D02*
X264220000Y-101935000D01*
X97970000Y-101985000D02*
X97970000Y-100630000D01*
X134450000Y-101000000D02*
X134480000Y-100970000D01*
X99780000Y-105030000D02*
X97970000Y-103220000D01*
X242344500Y-110845500D02*
X248930000Y-104260000D01*
X189130000Y-103510000D02*
X190620000Y-105000000D01*
X83925188Y-108665688D02*
X97034312Y-108665688D01*
X242344500Y-110872072D02*
X242344500Y-110845500D01*
X99200000Y-99400000D02*
X99765500Y-99400000D01*
X190620000Y-105000000D02*
X190905500Y-105000000D01*
X61470000Y-83721600D02*
X47932000Y-70183600D01*
X225590000Y-101935000D02*
X225590000Y-102790000D01*
X61470000Y-101965000D02*
X61470000Y-102830000D01*
X97970000Y-100630000D02*
X99200000Y-99400000D01*
X189130000Y-101945000D02*
X189130000Y-103510000D01*
X189105000Y-101920000D02*
X189130000Y-101945000D01*
X225590000Y-102790000D02*
X225640000Y-102840000D01*
X61470000Y-102830000D02*
X61480000Y-102840000D01*
X188100000Y-101920000D02*
X189105000Y-101920000D01*
X133590000Y-101710000D02*
X134205000Y-101710000D01*
X82770000Y-107510500D02*
X83925188Y-108665688D01*
X99780000Y-107770000D02*
X99780000Y-105030000D01*
X61470000Y-101965000D02*
X61470000Y-83721600D01*
X263380000Y-101830000D02*
X264115000Y-101830000D01*
X134450000Y-101955000D02*
X134450000Y-101000000D01*
X79205000Y-106060000D02*
X79750000Y-105515000D01*
X75300000Y-104060000D02*
X75300000Y-104350000D01*
X75300000Y-104350000D02*
X76980000Y-106030000D01*
X78890000Y-106060000D02*
X79205000Y-106060000D01*
X150990000Y-102490000D02*
X150990000Y-106930000D01*
X43488991Y-87577151D02*
X41765489Y-85853649D01*
X217960000Y-116770000D02*
X212310000Y-116770000D01*
X41480000Y-105860000D02*
X41480000Y-101960978D01*
X188760000Y-116780000D02*
X188760000Y-114540000D01*
X153670000Y-109610000D02*
X153670000Y-112660000D01*
X212310000Y-116770000D02*
X212275386Y-116770000D01*
X219210000Y-118020000D02*
X217960000Y-116770000D01*
X157140000Y-115550000D02*
X157140000Y-119185000D01*
X150990000Y-106930000D02*
X153670000Y-109610000D01*
X153670000Y-112660000D02*
X154680000Y-113670000D01*
X193560000Y-119255000D02*
X193600000Y-119215000D01*
X43488991Y-99951987D02*
X43488991Y-87577151D01*
X193560000Y-120030000D02*
X193560000Y-119255000D01*
X46330000Y-112780000D02*
X45660000Y-112110000D01*
X151485000Y-101995000D02*
X150990000Y-102490000D01*
X49385489Y-69097089D02*
X50472000Y-70183600D01*
X206645489Y-118170000D02*
X203410000Y-118170000D01*
X193600000Y-119215000D02*
X193600000Y-118570000D01*
X157750000Y-115890000D02*
X157125000Y-115265000D01*
X42392911Y-69097089D02*
X49385489Y-69097089D01*
X158965500Y-115890000D02*
X157750000Y-115890000D01*
X152670000Y-101995000D02*
X151485000Y-101995000D01*
X212275386Y-116770000D02*
X208045489Y-116770000D01*
X187270000Y-113050000D02*
X187080000Y-113050000D01*
X45660000Y-110040000D02*
X41480000Y-105860000D01*
X157125000Y-115265000D02*
X157140000Y-115280000D01*
X41765489Y-85853649D02*
X41765489Y-69724511D01*
X84280000Y-119205000D02*
X84280000Y-118570000D01*
X41765489Y-69724511D02*
X42392911Y-69097089D01*
X227610000Y-118020000D02*
X219210000Y-118020000D01*
X228845000Y-119255000D02*
X227610000Y-118020000D01*
X45660000Y-119215000D02*
X45660000Y-112110000D01*
X45660000Y-112110000D02*
X45660000Y-110040000D01*
X193600000Y-118570000D02*
X193020000Y-117990000D01*
X208045489Y-116770000D02*
X206645489Y-118170000D01*
X230050000Y-119255000D02*
X228845000Y-119255000D01*
X189970000Y-117990000D02*
X188760000Y-116780000D01*
X157140000Y-115280000D02*
X157140000Y-115550000D01*
X154680000Y-113670000D02*
X155530000Y-113670000D01*
X46405500Y-112780000D02*
X46330000Y-112780000D01*
X84280000Y-118570000D02*
X83915688Y-118205688D01*
X203410000Y-118170000D02*
X202040000Y-119540000D01*
X41480000Y-101960978D02*
X43488991Y-99951987D01*
X193020000Y-117990000D02*
X189970000Y-117990000D01*
X155530000Y-113670000D02*
X157125000Y-115265000D01*
X188760000Y-114540000D02*
X187270000Y-113050000D01*
X115430000Y-106000000D02*
X115725000Y-106000000D01*
X111740000Y-104080000D02*
X111740000Y-104340000D01*
X111740000Y-104340000D02*
X113370000Y-105970000D01*
X115725000Y-106000000D02*
X116210000Y-105515000D01*
X102520000Y-119205000D02*
X102520000Y-117360000D01*
X53046499Y-74273501D02*
X53012000Y-74239002D01*
X211100000Y-118970000D02*
X211555000Y-118970000D01*
X89820000Y-113750000D02*
X86689500Y-113750000D01*
X86689500Y-113750000D02*
X84649500Y-115790000D01*
X59740000Y-106300000D02*
X59620000Y-106180000D01*
X120475000Y-118960000D02*
X120720000Y-119205000D01*
X120720000Y-118515998D02*
X122485500Y-116750498D01*
X102115479Y-117764521D02*
X93279119Y-117764521D01*
X66080000Y-112640000D02*
X59740000Y-106300000D01*
X262550000Y-121665000D02*
X262955000Y-121260000D01*
X90690000Y-114620000D02*
X89820000Y-113750000D01*
X59620000Y-101070480D02*
X61020480Y-99670000D01*
X59620000Y-106180000D02*
X59620000Y-101070480D01*
X120720000Y-119205000D02*
X120720000Y-118515998D01*
X53012000Y-74239002D02*
X53012000Y-70183600D01*
X61020480Y-84296678D02*
X53016901Y-76293099D01*
X102520000Y-117360000D02*
X103480000Y-116400000D01*
X119900000Y-118960000D02*
X120475000Y-118960000D01*
X102520000Y-117360000D02*
X102115479Y-117764521D01*
X103480000Y-116400000D02*
X104285500Y-116400000D01*
X66080000Y-119215000D02*
X66080000Y-115800000D01*
X175400000Y-119195000D02*
X174715000Y-119195000D01*
X262550000Y-121920000D02*
X262550000Y-121665000D01*
X66080000Y-115800000D02*
X66080000Y-112640000D01*
X211840000Y-119255000D02*
X211840000Y-118370000D01*
X211555000Y-118970000D02*
X211840000Y-119255000D01*
X61020480Y-99670000D02*
X61020480Y-84296678D01*
X174715000Y-119195000D02*
X174610000Y-119090000D01*
X93279119Y-117764521D02*
X93262299Y-117747701D01*
X170575000Y-105850000D02*
X170930000Y-105495000D01*
X166450000Y-104210000D02*
X168090000Y-105850000D01*
X166450000Y-104060000D02*
X166450000Y-104210000D01*
X170180000Y-105850000D02*
X170575000Y-105850000D01*
X145855688Y-124435688D02*
X144689312Y-123269312D01*
X185814511Y-141385489D02*
X185084011Y-141385489D01*
X172870000Y-145600000D02*
X167324500Y-145600000D01*
X47850000Y-119430000D02*
X47850000Y-119180000D01*
X88800000Y-135390000D02*
X88590688Y-135180688D01*
X47130000Y-107404599D02*
X47061880Y-107336479D01*
X193354614Y-142240000D02*
X192500103Y-141385489D01*
X97399500Y-136664500D02*
X98848500Y-135215500D01*
X185084011Y-141385489D02*
X183639500Y-142830000D01*
X198180000Y-137130000D02*
X198180000Y-136445000D01*
X236130000Y-137280000D02*
X236130000Y-141100000D01*
X197530000Y-142240000D02*
X193354614Y-142240000D01*
X98848500Y-135215500D02*
X99700000Y-135215500D01*
X57550000Y-89530000D02*
X56810000Y-88790000D01*
X47850000Y-134020000D02*
X47850000Y-119430000D01*
X113550000Y-125825500D02*
X114920000Y-124455500D01*
X90440000Y-139590000D02*
X90595500Y-139590000D01*
X47130000Y-118460000D02*
X47130000Y-107404599D01*
X161760000Y-128130000D02*
X158430000Y-124800000D01*
X47902635Y-106128037D02*
X51825193Y-102205479D01*
X138930000Y-119870000D02*
X138930000Y-119215000D01*
X192500103Y-141385489D02*
X185814511Y-141385489D01*
X198193438Y-141576562D02*
X197530000Y-142240000D01*
X51825193Y-102205479D02*
X53904521Y-102205479D01*
X47850000Y-119180000D02*
X47130000Y-118460000D01*
X161760000Y-137280000D02*
X161760000Y-136475000D01*
X53904521Y-102205479D02*
X53904521Y-101533744D01*
X47850000Y-136465000D02*
X47850000Y-134020000D01*
X57550000Y-97888265D02*
X57550000Y-89530000D01*
X52040000Y-76410000D02*
X51456901Y-75826901D01*
X56810000Y-88790000D02*
X56810000Y-81180000D01*
X235285000Y-136435000D02*
X236130000Y-137280000D01*
X137492013Y-117777013D02*
X138920000Y-119205000D01*
X88800000Y-137950000D02*
X90440000Y-139590000D01*
X113550000Y-125904500D02*
X113550000Y-125825500D01*
X145925688Y-124435688D02*
X145855688Y-124435688D01*
X130209452Y-118926048D02*
X131080000Y-118055500D01*
X198180000Y-136445000D02*
X198170000Y-136435000D01*
X88800000Y-136345000D02*
X88800000Y-137950000D01*
X53904521Y-101533744D02*
X57550000Y-97888265D01*
X181940500Y-142830000D02*
X175640000Y-142830000D01*
X129001449Y-118926048D02*
X130209452Y-118926048D01*
X88800000Y-136345000D02*
X88800000Y-135390000D01*
X51456901Y-75826901D02*
X51456901Y-74733099D01*
X234650000Y-136435000D02*
X235285000Y-136435000D01*
X167324500Y-145600000D02*
X164984500Y-143260000D01*
X175640000Y-142830000D02*
X172870000Y-145600000D01*
X56810000Y-81180000D02*
X52040000Y-76410000D01*
X138930000Y-119215000D02*
X138920000Y-119205000D01*
X161760000Y-136475000D02*
X161760000Y-128130000D01*
X136538389Y-117777013D02*
X137492013Y-117777013D01*
X206570000Y-105970000D02*
X206875000Y-105970000D01*
X202880000Y-104060000D02*
X202880000Y-104410000D01*
X206875000Y-105970000D02*
X207350000Y-105495000D01*
X202880000Y-104410000D02*
X204410000Y-105940000D01*
X219100000Y-140220000D02*
X220749168Y-140220000D01*
X107000000Y-135470000D02*
X108530000Y-133940000D01*
X179240000Y-136310000D02*
X179805000Y-136310000D01*
X125210000Y-136435000D02*
X125210000Y-135060000D01*
X83470000Y-134565500D02*
X81485500Y-136550000D01*
X81485500Y-136550000D02*
X78959500Y-136550000D01*
X61983600Y-70183600D02*
X58092000Y-70183600D01*
X216375000Y-136400000D02*
X216410000Y-136435000D01*
X62875489Y-108410891D02*
X62875489Y-89964511D01*
X65220000Y-112760000D02*
X65175402Y-112760000D01*
X124580000Y-136430000D02*
X125205000Y-136430000D01*
X216410000Y-137530000D02*
X219100000Y-140220000D01*
X215590000Y-136400000D02*
X216375000Y-136400000D01*
X65350000Y-124690000D02*
X64270000Y-123610000D01*
X64270000Y-123610000D02*
X64270000Y-117500000D01*
X126259502Y-134010498D02*
X127055500Y-134010498D01*
X259000000Y-135910000D02*
X259205000Y-135910000D01*
X220749168Y-140220000D02*
X225803668Y-135165500D01*
X259205000Y-135910000D02*
X259700000Y-136405000D01*
X125210000Y-135060000D02*
X126259502Y-134010498D01*
X65220000Y-116550000D02*
X65220000Y-112760000D01*
X64640000Y-87930000D02*
X64640000Y-72840000D01*
X63187299Y-108722701D02*
X62875489Y-108410891D01*
X65175402Y-112760000D02*
X63152701Y-110737299D01*
X70580000Y-126040000D02*
X69350000Y-124810000D01*
X64270000Y-117500000D02*
X65220000Y-116550000D01*
X64640000Y-72840000D02*
X61983600Y-70183600D01*
X63854549Y-88715451D02*
X64640000Y-87930000D01*
X216410000Y-136435000D02*
X216410000Y-137490000D01*
X70560000Y-136485000D02*
X70580000Y-136465000D01*
X70580000Y-136465000D02*
X70580000Y-126040000D01*
X179805000Y-136310000D02*
X179930000Y-136435000D01*
X216410000Y-137490000D02*
X216410000Y-137530000D01*
X125205000Y-136430000D02*
X125210000Y-136435000D01*
X62875489Y-89964511D02*
X62964951Y-89875049D01*
X70560000Y-137540000D02*
X70560000Y-136485000D01*
X107000000Y-136435000D02*
X107000000Y-135470000D01*
X243415000Y-105970000D02*
X243850000Y-105535000D01*
X239360000Y-104080000D02*
X239360000Y-104250000D01*
X239360000Y-104250000D02*
X241050000Y-105940000D01*
X242870000Y-105970000D02*
X243415000Y-105970000D01*
X210870000Y-153620000D02*
X211475000Y-153620000D01*
X135170480Y-159829520D02*
X167715480Y-159829520D01*
X80520000Y-159810000D02*
X80810000Y-159810000D01*
X80810000Y-159810000D02*
X80829520Y-159829520D01*
X45670000Y-130950000D02*
X44000000Y-130950000D01*
X39225489Y-86490111D02*
X40312000Y-85403600D01*
X80829520Y-159829520D02*
X134130480Y-159829520D01*
X168442500Y-159102500D02*
X171725000Y-155820000D01*
X167715480Y-159829520D02*
X168442500Y-159102500D01*
X82630000Y-157990000D02*
X82630000Y-156514500D01*
X47860000Y-154260000D02*
X47860000Y-158250000D01*
X143050000Y-151950000D02*
X135170480Y-159829520D01*
X141600000Y-144750000D02*
X143050000Y-146200000D01*
X33189889Y-86490111D02*
X39225489Y-86490111D01*
X82610000Y-155065500D02*
X82899500Y-155065500D01*
X44990000Y-117080000D02*
X43930000Y-118140000D01*
X47860000Y-158250000D02*
X49420000Y-159810000D01*
X46459511Y-152865489D02*
X46465489Y-152865489D01*
X44990000Y-110510000D02*
X44990000Y-117080000D01*
X82899500Y-155065500D02*
X84330000Y-153635000D01*
X46584521Y-126064521D02*
X46584521Y-130035479D01*
X28410000Y-93530000D02*
X28410000Y-91270000D01*
X211475000Y-153620000D02*
X211490000Y-153605000D01*
X44000000Y-130950000D02*
X43140000Y-131810000D01*
X43930000Y-123410000D02*
X46584521Y-126064521D01*
X46584521Y-130035479D02*
X45670000Y-130950000D01*
X247930000Y-153665000D02*
X247414694Y-153665000D01*
X43140000Y-133600000D02*
X46459511Y-136919511D01*
X134130480Y-159829520D02*
X135170480Y-159829520D01*
X46459511Y-136919511D02*
X46459511Y-152865489D01*
X32190000Y-106000000D02*
X32190000Y-97310000D01*
X141600000Y-138425000D02*
X141600000Y-144750000D01*
X28410000Y-91270000D02*
X33189889Y-86490111D01*
X46465489Y-152865489D02*
X47860000Y-154260000D01*
X247414694Y-153665000D02*
X246009194Y-155070500D01*
X43140000Y-131810000D02*
X43140000Y-133600000D01*
X32190000Y-97310000D02*
X28410000Y-93530000D01*
X49420000Y-159810000D02*
X80520000Y-159810000D01*
X46459511Y-152865489D02*
X45660000Y-153665000D01*
X43930000Y-118140000D02*
X43930000Y-123410000D01*
X80810000Y-159810000D02*
X82630000Y-157990000D01*
X41810000Y-107330000D02*
X44990000Y-110510000D01*
X143050000Y-146200000D02*
X143050000Y-151950000D01*
X143520000Y-136505000D02*
X141600000Y-138425000D01*
X60790000Y-106010000D02*
X60975000Y-106010000D01*
X58895500Y-105935500D02*
X58895500Y-106010000D01*
X60975000Y-106010000D02*
X61470000Y-105515000D01*
X57040000Y-104080000D02*
X58895500Y-105935500D01*
X65040000Y-89330000D02*
X65040000Y-88810000D01*
X193350000Y-153595000D02*
X193280000Y-153665000D01*
X193350000Y-152300000D02*
X193350000Y-153595000D01*
X65040000Y-88810000D02*
X65570000Y-88280000D01*
X69010000Y-98140000D02*
X69010000Y-97620000D01*
X65930000Y-87245500D02*
X65364500Y-86680000D01*
X266185000Y-142610000D02*
X266230000Y-142565000D01*
X48470361Y-86763501D02*
X48368832Y-86865030D01*
X69140000Y-110160000D02*
X69010000Y-110030000D01*
X74250000Y-119590000D02*
X74250000Y-117990000D01*
X228680000Y-159674500D02*
X228654500Y-159674500D01*
X69010000Y-110030000D02*
X69010000Y-98140000D01*
X265570000Y-142610000D02*
X266185000Y-142610000D01*
X71304500Y-131930000D02*
X71480000Y-131930000D01*
X228980000Y-153620000D02*
X229715000Y-153620000D01*
X68710000Y-143290000D02*
X69482701Y-144062701D01*
X102560000Y-149850000D02*
X112090000Y-159380000D01*
X135545000Y-155800000D02*
X137135402Y-155800000D01*
X72560000Y-114600000D02*
X72560000Y-113580000D01*
X72560000Y-116300000D02*
X72560000Y-114600000D01*
X72560000Y-113580000D02*
X71080000Y-112100000D01*
X72680000Y-116420000D02*
X72560000Y-116300000D01*
X137135402Y-155800000D02*
X137232701Y-155702701D01*
X68710000Y-140800000D02*
X68710000Y-134395500D01*
X68710000Y-134395500D02*
X69855500Y-133250000D01*
X227900000Y-158920000D02*
X227900000Y-156524500D01*
X112090000Y-159380000D02*
X131965000Y-159380000D01*
X65930000Y-87920000D02*
X65930000Y-87245500D01*
X72377299Y-122962701D02*
X72377299Y-121712701D01*
X65570000Y-88280000D02*
X65930000Y-87920000D01*
X102560000Y-149850000D02*
X102570000Y-149860000D01*
X74250000Y-117990000D02*
X72680000Y-116420000D01*
X68710000Y-140800000D02*
X68710000Y-143290000D01*
X66060000Y-143450000D02*
X68680000Y-140830000D01*
X70937823Y-145417823D02*
X72870000Y-147350000D01*
X72375500Y-131034500D02*
X72375500Y-125130000D01*
X66060000Y-153635000D02*
X66060000Y-144290000D01*
X102570000Y-149860000D02*
X102570000Y-153635000D01*
X69010000Y-97620000D02*
X65040000Y-93650000D01*
X228654500Y-159674500D02*
X227900000Y-158920000D01*
X66060000Y-143940000D02*
X66060000Y-143450000D01*
X65040000Y-90560000D02*
X65040000Y-89330000D01*
X70937823Y-144995500D02*
X70937823Y-145417823D01*
X72377299Y-121712701D02*
X72377299Y-121462701D01*
X50316499Y-86763501D02*
X48470361Y-86763501D01*
X65040000Y-93650000D02*
X65040000Y-90560000D01*
X68680000Y-140830000D02*
X68710000Y-140800000D01*
X229715000Y-153620000D02*
X229730000Y-153635000D01*
X66060000Y-144290000D02*
X66060000Y-143940000D01*
X71080000Y-112100000D02*
X69140000Y-110160000D01*
X72377299Y-121462701D02*
X74250000Y-119590000D01*
X71480000Y-131930000D02*
X72375500Y-131034500D01*
X131965000Y-159380000D02*
X135545000Y-155800000D01*
X93510000Y-104350000D02*
X95160000Y-106000000D01*
X97505000Y-106000000D02*
X97970000Y-105535000D01*
X93510000Y-104080000D02*
X93510000Y-104350000D01*
X97130000Y-106000000D02*
X97505000Y-106000000D01*
X129990000Y-104290000D02*
X131610000Y-105910000D01*
X129990000Y-104080000D02*
X129990000Y-104290000D01*
X133700000Y-105910000D02*
X134045000Y-105910000D01*
X134045000Y-105910000D02*
X134450000Y-105505000D01*
X188685000Y-105940000D02*
X189130000Y-105495000D01*
X188270000Y-105940000D02*
X188685000Y-105940000D01*
X184650000Y-104060000D02*
X184650000Y-104350000D01*
X184650000Y-104350000D02*
X186240000Y-105940000D01*
X224870000Y-105910000D02*
X225165000Y-105910000D01*
X221130000Y-104350000D02*
X222690000Y-105910000D01*
X221130000Y-104080000D02*
X221130000Y-104350000D01*
X225165000Y-105910000D02*
X225590000Y-105485000D01*
X263230000Y-105850000D02*
X263855000Y-105850000D01*
X263855000Y-105850000D02*
X264220000Y-105485000D01*
X259750000Y-104050000D02*
X259750000Y-104160000D01*
X259750000Y-104160000D02*
X261410000Y-105820000D01*
X44820000Y-122990000D02*
X45435000Y-122990000D01*
X42820000Y-122970000D02*
X43100000Y-122970000D01*
X41160000Y-121310000D02*
X42820000Y-122970000D01*
X45435000Y-122990000D02*
X45660000Y-122765000D01*
X79820000Y-121490000D02*
X81370000Y-123040000D01*
X83430000Y-123040000D02*
X83995000Y-123040000D01*
X79820000Y-121300000D02*
X79820000Y-121490000D01*
X83995000Y-123040000D02*
X84280000Y-122755000D01*
X148220000Y-104060000D02*
X148220000Y-104280000D01*
X152245000Y-105970000D02*
X152670000Y-105545000D01*
X148220000Y-104280000D02*
X149910000Y-105970000D01*
X151790000Y-105970000D02*
X152245000Y-105970000D01*
X152700000Y-121310000D02*
X152700000Y-121410000D01*
X156815000Y-123060000D02*
X157140000Y-122735000D01*
X152700000Y-121410000D02*
X154350000Y-123060000D01*
X156450000Y-123060000D02*
X156815000Y-123060000D01*
X193235000Y-123130000D02*
X193600000Y-122765000D01*
X192800000Y-123130000D02*
X193235000Y-123130000D01*
X189150000Y-121300000D02*
X189150000Y-121380000D01*
X189150000Y-121380000D02*
X190860000Y-123090000D01*
X225590000Y-121310000D02*
X225590000Y-121430000D01*
X229855000Y-123000000D02*
X230050000Y-122805000D01*
X225590000Y-121430000D02*
X227190000Y-123030000D01*
X229320000Y-123000000D02*
X229855000Y-123000000D01*
X64994500Y-123167700D02*
X65677300Y-123167700D01*
X61600000Y-121310000D02*
X63467280Y-123177280D01*
X63467280Y-123177280D02*
X63545500Y-123177280D01*
X65677300Y-123167700D02*
X66080000Y-122765000D01*
X102305000Y-122970000D02*
X102520000Y-122755000D01*
X98040000Y-121410000D02*
X99600000Y-122970000D01*
X98040000Y-121290000D02*
X98040000Y-121410000D01*
X101600000Y-122970000D02*
X102305000Y-122970000D01*
X120415000Y-123060000D02*
X120720000Y-122755000D01*
X116260000Y-121390000D02*
X117900000Y-123030000D01*
X120030000Y-123060000D02*
X120415000Y-123060000D01*
X116260000Y-121300000D02*
X116260000Y-121390000D01*
X174660000Y-123090000D02*
X175055000Y-123090000D01*
X175055000Y-123090000D02*
X175400000Y-122745000D01*
X170940000Y-121300000D02*
X170940000Y-121420000D01*
X170940000Y-121420000D02*
X172650000Y-123130000D01*
X207370000Y-121420000D02*
X209040000Y-123090000D01*
X207370000Y-121310000D02*
X207370000Y-121420000D01*
X211170000Y-123090000D02*
X211555000Y-123090000D01*
X211555000Y-123090000D02*
X211840000Y-122805000D01*
X259375000Y-121290000D02*
X259405000Y-121260000D01*
X252020000Y-121300000D02*
X252770000Y-121300000D01*
X252770000Y-121300000D02*
X252820000Y-121250000D01*
X258610000Y-121290000D02*
X259375000Y-121290000D01*
X43420000Y-138570000D02*
X44990000Y-140140000D01*
X47685000Y-140180000D02*
X47850000Y-140015000D01*
X47309021Y-140180000D02*
X47685000Y-140180000D01*
X43410000Y-138570000D02*
X43420000Y-138570000D01*
X84350000Y-138740000D02*
X85910000Y-140300000D01*
X88375000Y-140320000D02*
X88800000Y-139895000D01*
X84350000Y-138550000D02*
X84350000Y-138740000D01*
X88010000Y-140320000D02*
X88375000Y-140320000D01*
X138300000Y-123060000D02*
X138615000Y-123060000D01*
X134460000Y-121300000D02*
X134460000Y-121350000D01*
X134460000Y-121350000D02*
X136170000Y-123060000D01*
X138615000Y-123060000D02*
X138920000Y-122755000D01*
X157270000Y-138930000D02*
X158850000Y-140510000D01*
X161100000Y-140540000D02*
X161245000Y-140540000D01*
X157270000Y-138560000D02*
X157270000Y-138930000D01*
X161245000Y-140540000D02*
X161760000Y-140025000D01*
X193750000Y-138810000D02*
X195330000Y-140390000D01*
X193750000Y-138540000D02*
X193750000Y-138810000D01*
X197705000Y-140450000D02*
X198170000Y-139985000D01*
X197520000Y-140450000D02*
X197705000Y-140450000D01*
X234275000Y-140360000D02*
X234650000Y-139985000D01*
X230190000Y-138540000D02*
X230230000Y-138540000D01*
X233860000Y-140360000D02*
X234275000Y-140360000D01*
X231880000Y-140190000D02*
X231880000Y-140330000D01*
X230230000Y-138540000D02*
X231880000Y-140190000D01*
X67860000Y-140300000D02*
X67860000Y-140340000D01*
X69910000Y-140360000D02*
X70235000Y-140360000D01*
X70235000Y-140360000D02*
X70580000Y-140015000D01*
X66110000Y-138550000D02*
X67860000Y-140300000D01*
X106535000Y-140450000D02*
X107000000Y-139985000D01*
X102570000Y-138800000D02*
X104160000Y-140390000D01*
X106260000Y-140450000D02*
X106535000Y-140450000D01*
X102570000Y-138550000D02*
X102570000Y-138800000D01*
X120790000Y-138900000D02*
X122310000Y-140420000D01*
X124775000Y-140420000D02*
X125210000Y-139985000D01*
X120790000Y-138560000D02*
X120790000Y-138900000D01*
X124400000Y-140420000D02*
X124775000Y-140420000D01*
X175510000Y-138930000D02*
X177030000Y-140450000D01*
X179465000Y-140450000D02*
X179930000Y-139985000D01*
X179090000Y-140450000D02*
X179465000Y-140450000D01*
X175510000Y-138540000D02*
X175510000Y-138930000D01*
X211970000Y-138540000D02*
X211970000Y-138730000D01*
X211970000Y-138730000D02*
X213570000Y-140330000D01*
X215640000Y-140360000D02*
X216035000Y-140360000D01*
X216035000Y-140360000D02*
X216410000Y-139985000D01*
X259405000Y-140250000D02*
X259700000Y-139955000D01*
X255200000Y-138650000D02*
X256800000Y-140250000D01*
X255200000Y-138500000D02*
X255200000Y-138650000D01*
X259040000Y-140250000D02*
X259405000Y-140250000D01*
X41180000Y-155760000D02*
X44205000Y-155760000D01*
X44205000Y-155760000D02*
X45660000Y-157215000D01*
X79860000Y-155790000D02*
X82935000Y-155790000D01*
X82935000Y-155790000D02*
X84330000Y-157185000D01*
X143065000Y-140510000D02*
X143520000Y-140055000D01*
X139030000Y-138560000D02*
X139030000Y-138960000D01*
X139030000Y-138960000D02*
X140550000Y-140480000D01*
X142680000Y-140510000D02*
X143065000Y-140510000D01*
X160790000Y-155820000D02*
X168175000Y-155820000D01*
X207060000Y-155790000D02*
X210125000Y-155790000D01*
X210125000Y-155790000D02*
X211490000Y-157155000D01*
X246510000Y-155795000D02*
X247930000Y-157215000D01*
X243500000Y-155795000D02*
X246510000Y-155795000D01*
X61640000Y-155785000D02*
X64660000Y-155785000D01*
X64660000Y-155785000D02*
X66060000Y-157185000D01*
X98100000Y-155790000D02*
X101175000Y-155790000D01*
X101175000Y-155790000D02*
X102570000Y-157185000D01*
X124550000Y-155810000D02*
X131985000Y-155810000D01*
X131985000Y-155810000D02*
X131995000Y-155800000D01*
X188830000Y-155790000D02*
X191855000Y-155790000D01*
X191855000Y-155790000D02*
X193280000Y-157215000D01*
X225290000Y-155800000D02*
X228345000Y-155800000D01*
X228345000Y-155800000D02*
X229730000Y-157185000D01*
X266230000Y-155050000D02*
X265490000Y-155790000D01*
X266230000Y-146115000D02*
X266230000Y-155050000D01*
X265490000Y-155790000D02*
X261760000Y-155790000D01*
D24*
X144290000Y-111120000D02*
X145145000Y-110265000D01*
X219420000Y-110240000D02*
X214780000Y-105600000D01*
X52280000Y-78160000D02*
X52250000Y-78160000D01*
X201040000Y-114320000D02*
X199010000Y-112290000D01*
X123730000Y-98070000D02*
X121390000Y-95730000D01*
X146650000Y-110265000D02*
X146650000Y-109560000D01*
X107790000Y-111305000D02*
X108830000Y-110265000D01*
X246447299Y-110052299D02*
X246600000Y-110205000D01*
X219210000Y-143510000D02*
X219210000Y-144280000D01*
X205870000Y-127190000D02*
X201040000Y-122360000D01*
X25690000Y-123734500D02*
X25690000Y-127200000D01*
X142000000Y-93130000D02*
X142070000Y-93200000D01*
X201250000Y-110195000D02*
X201250000Y-109840000D01*
X107790000Y-111305000D02*
X107790000Y-107010000D01*
X196760000Y-92470000D02*
X196760000Y-93200000D01*
X217970000Y-110240000D02*
X219420000Y-110240000D01*
X78120000Y-137450000D02*
X78120000Y-142050000D01*
X48560000Y-96030000D02*
X50780000Y-98250000D01*
X54870000Y-117470000D02*
X55640000Y-118240000D01*
X146570000Y-114790000D02*
X144290000Y-112510000D01*
X105267701Y-125082299D02*
X94372299Y-125082299D01*
X126685000Y-110235000D02*
X123730000Y-107280000D01*
X233210000Y-93250000D02*
X233230000Y-93270000D01*
X105630000Y-104850000D02*
X105630000Y-99520000D01*
X94150000Y-129700000D02*
X94150000Y-129060000D01*
X104830000Y-98720000D02*
X104830000Y-96810000D01*
X139720000Y-94380000D02*
X140900000Y-93200000D01*
X139720000Y-95860000D02*
X139720000Y-94380000D01*
X60230000Y-138210000D02*
X55530000Y-142910000D01*
X91740000Y-114570000D02*
X91740000Y-114199979D01*
X50850160Y-98320160D02*
X50850160Y-102155914D01*
X35070000Y-110180000D02*
X33960000Y-110180000D01*
X146650000Y-109560000D02*
X142000000Y-104910000D01*
X48560000Y-94640000D02*
X48560000Y-96030000D01*
X94372299Y-125082299D02*
X94150000Y-124860000D01*
X224041883Y-139338117D02*
X220650000Y-142730000D01*
X69180000Y-89200000D02*
X69180000Y-93220000D01*
X94150000Y-129060000D02*
X95930000Y-127280000D01*
X215120000Y-93140000D02*
X215180000Y-93200000D01*
X244765000Y-110205000D02*
X246600000Y-110205000D01*
X182155000Y-110215000D02*
X182090000Y-110150000D01*
X187720000Y-134410000D02*
X186790000Y-133480000D01*
X103290000Y-92790000D02*
X104410000Y-91670000D01*
X246450000Y-115290000D02*
X244050000Y-112890000D01*
X219990000Y-142730000D02*
X219210000Y-143510000D01*
X112380000Y-129160000D02*
X112380000Y-129100000D01*
X34260000Y-144190000D02*
X35090000Y-144190000D01*
X142000000Y-104910000D02*
X142000000Y-98140000D01*
X151190000Y-127230000D02*
X151190000Y-127210000D01*
X217220000Y-111960000D02*
X217220000Y-110990000D01*
X186790000Y-133480000D02*
X186790000Y-130550000D01*
X163850000Y-110240000D02*
X163820000Y-110210000D01*
X107790000Y-112400000D02*
X107790000Y-111305000D01*
X73660000Y-109630000D02*
X73660000Y-110265000D01*
X112350000Y-128510000D02*
X112350000Y-124750000D01*
X63100000Y-142610000D02*
X63160000Y-142610000D01*
X200970000Y-144205000D02*
X200845000Y-144205000D01*
X119220000Y-144355000D02*
X119195000Y-144355000D01*
X222030000Y-130070000D02*
X222030000Y-130620000D01*
X249160000Y-127265000D02*
X249160000Y-125370000D01*
X86400000Y-98500000D02*
X86400000Y-96770000D01*
X129264312Y-91835688D02*
X129430000Y-91670000D01*
X248270000Y-130350000D02*
X247060000Y-129140000D01*
X195700000Y-135170000D02*
X188120000Y-135170000D01*
X160330000Y-92540000D02*
X160340000Y-92530000D01*
X231540000Y-124220000D02*
X231540000Y-114080000D01*
X122470000Y-93270000D02*
X123840000Y-93270000D01*
X255650000Y-144240000D02*
X254130000Y-144240000D01*
X103290000Y-94400000D02*
X104470000Y-93220000D01*
X55640000Y-127640000D02*
X59190000Y-131190000D01*
X109330000Y-113940000D02*
X107790000Y-112400000D01*
X246447299Y-107767299D02*
X246447299Y-110052299D01*
X222030000Y-130620000D02*
X223650000Y-132240000D01*
X233210000Y-92590000D02*
X233210000Y-93250000D01*
X78110000Y-137440000D02*
X78110000Y-132580000D01*
X91840000Y-110130000D02*
X91910000Y-110200000D01*
X149398606Y-91570000D02*
X142650000Y-91570000D01*
X244050000Y-110920000D02*
X244765000Y-110205000D01*
X109330000Y-116130000D02*
X109330000Y-113940000D01*
X123760000Y-93190000D02*
X123840000Y-93270000D01*
X91830000Y-143650000D02*
X96550000Y-138930000D01*
X76580000Y-127280000D02*
X78210000Y-127280000D01*
X52250000Y-78160000D02*
X49668512Y-80741488D01*
X223650000Y-132240000D02*
X224020000Y-132610000D01*
X185400000Y-129160000D02*
X185400000Y-127900000D01*
X181200489Y-111039511D02*
X181200489Y-112250489D01*
X213370000Y-93200000D02*
X215180000Y-93200000D01*
X37250000Y-127255000D02*
X36245000Y-127255000D01*
X129430000Y-91670000D02*
X132035286Y-91670000D01*
X248270000Y-133200000D02*
X248270000Y-130350000D01*
X75790000Y-130260000D02*
X75790000Y-128070000D01*
X145145000Y-110265000D02*
X146650000Y-110265000D01*
X84081210Y-112434500D02*
X84081210Y-110996710D01*
X112380000Y-129100000D02*
X112350000Y-129070000D01*
X95590000Y-131140000D02*
X94150000Y-129700000D01*
X132890000Y-126680000D02*
X132920000Y-126650000D01*
X231540000Y-114080000D02*
X230200020Y-112740020D01*
X114750000Y-134460000D02*
X114040000Y-133750000D01*
X182150000Y-117413226D02*
X182150000Y-113200000D01*
X155440000Y-144305000D02*
X155440000Y-143940000D01*
X110100000Y-122500000D02*
X110100000Y-116900000D01*
X224050000Y-126580000D02*
X224030000Y-126560000D01*
X142000000Y-98140000D02*
X139720000Y-95860000D01*
X25690000Y-109024500D02*
X25690000Y-110010000D01*
X150500000Y-133450000D02*
X150500000Y-130500000D01*
X110100000Y-116900000D02*
X109330000Y-116130000D01*
X123730000Y-107280000D02*
X123730000Y-98070000D01*
X150500000Y-130500000D02*
X148860000Y-128860000D01*
X181348257Y-124692701D02*
X179377299Y-124692701D01*
X86030000Y-93270000D02*
X87360000Y-93270000D01*
X186070000Y-127230000D02*
X187610000Y-127230000D01*
X132890000Y-127210000D02*
X132890000Y-126680000D01*
X74930000Y-108360000D02*
X73660000Y-109630000D01*
X72540000Y-144230000D02*
X73680000Y-144230000D01*
X249160000Y-125370000D02*
X246450000Y-122660000D01*
X84081210Y-110996710D02*
X84070000Y-110985500D01*
X60230000Y-138020000D02*
X60230000Y-139740000D01*
X91740000Y-114199979D02*
X91280000Y-113739979D01*
X50855000Y-93150000D02*
X50890000Y-93185000D01*
X247765000Y-127265000D02*
X249160000Y-127265000D01*
X183600479Y-118863705D02*
X182150000Y-117413226D01*
X199010000Y-112290000D02*
X199010000Y-110960000D01*
X84800000Y-95170000D02*
X84800000Y-94500000D01*
X215120000Y-92530000D02*
X215120000Y-93140000D01*
X121390000Y-94350000D02*
X122470000Y-93270000D01*
X114040000Y-130820000D02*
X112380000Y-129160000D01*
X178480000Y-93115000D02*
X178550000Y-93185000D01*
X123760000Y-92590000D02*
X123760000Y-93190000D01*
X254130000Y-144240000D02*
X249010000Y-139120000D01*
X78110000Y-132580000D02*
X75790000Y-130260000D01*
X246450000Y-122660000D02*
X246450000Y-115290000D01*
X55640000Y-118240000D02*
X55640000Y-122880000D01*
X33960000Y-110180000D02*
X33950000Y-110170000D01*
X60230000Y-139740000D02*
X63100000Y-142610000D01*
X237370000Y-143720000D02*
X237330000Y-143680000D01*
X114040000Y-133750000D02*
X114040000Y-130820000D01*
X187720000Y-136960000D02*
X187720000Y-135570000D01*
X50852635Y-104202635D02*
X50852635Y-105652635D01*
X50780000Y-98250000D02*
X50850160Y-98320160D01*
X217220000Y-110990000D02*
X217970000Y-110240000D01*
X182790000Y-144245000D02*
X182790000Y-141890000D01*
X36245000Y-127255000D02*
X36230000Y-127240000D01*
X91000000Y-110130000D02*
X91840000Y-110130000D01*
X86400000Y-96770000D02*
X84800000Y-95170000D01*
X50030000Y-93150000D02*
X50855000Y-93150000D01*
X72232299Y-143922299D02*
X72540000Y-144230000D01*
X95590000Y-133610000D02*
X95590000Y-131140000D01*
X25690000Y-140704500D02*
X29205500Y-144220000D01*
X94150000Y-124860000D02*
X94150000Y-124430000D01*
X108830000Y-110265000D02*
X110180000Y-110265000D01*
X183600479Y-122440479D02*
X183600479Y-118863705D01*
X94150000Y-129060000D02*
X94150000Y-124860000D01*
X148860000Y-127650000D02*
X149280000Y-127230000D01*
X113630000Y-127230000D02*
X114690000Y-127230000D01*
X214780000Y-96900000D02*
X212720000Y-94840000D01*
X104410000Y-91670000D02*
X104630000Y-91670000D01*
X72232299Y-143362299D02*
X72232299Y-143922299D01*
X222030000Y-128180000D02*
X222030000Y-130070000D01*
X196530000Y-136000000D02*
X195700000Y-135170000D01*
X142650000Y-91570000D02*
X142000000Y-92220000D01*
X196530000Y-141114500D02*
X196530000Y-136000000D01*
X224041883Y-137951883D02*
X224041883Y-139338117D01*
X199010000Y-110960000D02*
X199775000Y-110195000D01*
X112350000Y-124750000D02*
X110100000Y-122500000D01*
X247060000Y-129140000D02*
X247060000Y-127970000D01*
X182090000Y-110150000D02*
X181200489Y-111039511D01*
X187610000Y-126450000D02*
X183600479Y-122440479D01*
X119195000Y-144355000D02*
X114750000Y-139910000D01*
X149489991Y-91478615D02*
X149398606Y-91570000D01*
X151200000Y-139700000D02*
X151200000Y-134150000D01*
X59190000Y-131190000D02*
X59190000Y-134430000D01*
X146570000Y-122590000D02*
X146570000Y-114790000D01*
X178480000Y-92500000D02*
X178480000Y-93115000D01*
X105630000Y-99520000D02*
X104830000Y-98720000D01*
X224050000Y-127230000D02*
X224050000Y-126580000D01*
X200845000Y-144205000D02*
X199592299Y-142952299D01*
X169370000Y-126940000D02*
X169370000Y-127270000D01*
X181200489Y-112250489D02*
X182150000Y-113200000D01*
X128300000Y-110235000D02*
X126685000Y-110235000D01*
X160330000Y-93170000D02*
X160330000Y-92540000D01*
X224050000Y-127230000D02*
X222980000Y-127230000D01*
X50852635Y-105652635D02*
X55450000Y-110250000D01*
X60230000Y-135470000D02*
X60230000Y-138020000D01*
X96550000Y-134570000D02*
X95590000Y-133610000D01*
X148860000Y-128860000D02*
X148860000Y-127650000D01*
X55640000Y-122880000D02*
X60000000Y-127240000D01*
X230200020Y-112740020D02*
X218000020Y-112740020D01*
X187720000Y-135570000D02*
X187720000Y-134410000D01*
X142000000Y-92220000D02*
X142000000Y-92620000D01*
X84800000Y-94500000D02*
X86030000Y-93270000D01*
X220650000Y-142730000D02*
X219990000Y-142730000D01*
X182790000Y-141890000D02*
X187720000Y-136960000D01*
X187610000Y-127230000D02*
X187610000Y-126450000D01*
X224062285Y-132652285D02*
X224062285Y-135882285D01*
X188120000Y-135170000D02*
X187720000Y-135570000D01*
X95930000Y-127280000D02*
X96370000Y-127280000D01*
X65340000Y-79324500D02*
X65340000Y-85360000D01*
X94150000Y-124430000D02*
X91930000Y-122210000D01*
X104830000Y-96810000D02*
X103290000Y-95270000D01*
X107830000Y-122500000D02*
X106282299Y-124047701D01*
X114750000Y-139910000D02*
X114750000Y-134460000D01*
X212720000Y-93850000D02*
X213370000Y-93200000D01*
X164770000Y-110240000D02*
X163850000Y-110240000D01*
X222980000Y-127230000D02*
X222030000Y-128180000D01*
X230680000Y-125080000D02*
X231540000Y-124220000D01*
X87480000Y-99580000D02*
X86400000Y-98500000D01*
X50852635Y-110552635D02*
X54870000Y-114570000D01*
X171580000Y-124730000D02*
X169370000Y-126940000D01*
X107790000Y-107010000D02*
X105630000Y-104850000D01*
X201250000Y-109840000D02*
X201220000Y-109810000D01*
X25690000Y-127200000D02*
X25690000Y-140704500D01*
X75790000Y-128070000D02*
X76580000Y-127280000D01*
X244050000Y-112890000D02*
X244050000Y-110920000D01*
X151190000Y-127210000D02*
X146570000Y-122590000D01*
X183050000Y-110215000D02*
X182155000Y-110215000D01*
X218000020Y-112740020D02*
X217220000Y-111960000D01*
X185400000Y-127900000D02*
X186070000Y-127230000D01*
X196760000Y-93200000D02*
X196780000Y-93220000D01*
X247060000Y-127970000D02*
X247765000Y-127265000D01*
X247690000Y-92530000D02*
X246462701Y-93757299D01*
X246462701Y-93757299D02*
X246462701Y-104392701D01*
X91740000Y-122020000D02*
X91740000Y-114570000D01*
X25690000Y-110010000D02*
X25690000Y-123734500D01*
X91930000Y-122210000D02*
X91740000Y-122020000D01*
X253600000Y-92470000D02*
X253600000Y-93160000D01*
X186790000Y-130550000D02*
X185400000Y-129160000D01*
X50030000Y-93150000D02*
X50030000Y-93170000D01*
X121390000Y-95730000D02*
X121390000Y-94350000D01*
X155440000Y-143940000D02*
X151200000Y-139700000D01*
X237370000Y-144285000D02*
X237370000Y-143720000D01*
X59190000Y-134430000D02*
X60230000Y-135470000D01*
X84370000Y-107190000D02*
X87480000Y-104080000D01*
X110100000Y-122500000D02*
X107830000Y-122500000D01*
X78110000Y-137440000D02*
X78120000Y-137450000D01*
X25690000Y-94850000D02*
X25690000Y-109024500D01*
X96550000Y-138930000D02*
X96550000Y-134570000D01*
X91830000Y-143650000D02*
X91830000Y-143970000D01*
X72232299Y-143362299D02*
X72232299Y-143317701D01*
X35090000Y-144190000D02*
X35140000Y-144240000D01*
X103290000Y-95270000D02*
X103290000Y-94400000D01*
X212720000Y-94840000D02*
X212720000Y-93850000D01*
X249010000Y-139120000D02*
X249010000Y-133940000D01*
X91830000Y-143970000D02*
X92050000Y-144190000D01*
X224020000Y-132610000D02*
X224062285Y-132652285D01*
X253600000Y-93160000D02*
X253640000Y-93200000D01*
X112350000Y-129070000D02*
X112350000Y-128510000D01*
X201040000Y-122360000D02*
X201040000Y-114320000D01*
X249010000Y-133940000D02*
X248270000Y-133200000D01*
X50030000Y-93170000D02*
X48560000Y-94640000D01*
X144290000Y-112510000D02*
X144290000Y-111120000D01*
X142000000Y-92620000D02*
X142000000Y-93130000D01*
X65340000Y-85360000D02*
X69180000Y-89200000D01*
X55640000Y-122880000D02*
X55640000Y-127640000D01*
X72232299Y-143317701D02*
X78110000Y-137440000D01*
X112350000Y-128510000D02*
X113630000Y-127230000D01*
X32730000Y-93215000D02*
X32710000Y-93235000D01*
X87480000Y-104080000D02*
X87480000Y-99580000D01*
X140900000Y-93200000D02*
X142070000Y-93200000D01*
X149280000Y-127230000D02*
X151190000Y-127230000D01*
X183600479Y-122440479D02*
X181348257Y-124692701D01*
X103290000Y-94400000D02*
X103290000Y-92790000D01*
X32730000Y-92270000D02*
X32730000Y-93215000D01*
X65364500Y-79300000D02*
X65340000Y-79324500D01*
X55530000Y-142910000D02*
X55530000Y-144280000D01*
X214780000Y-105600000D02*
X214780000Y-96900000D01*
X60230000Y-138020000D02*
X60230000Y-138210000D01*
X151200000Y-134150000D02*
X150500000Y-133450000D01*
X50852635Y-105652635D02*
X50852635Y-110552635D01*
X104470000Y-93220000D02*
X105590000Y-93220000D01*
X199775000Y-110195000D02*
X201250000Y-110195000D01*
X54870000Y-114570000D02*
X54870000Y-117470000D01*
D23*
X31875000Y-94735000D02*
X31840000Y-94700000D01*
X32710000Y-94735000D02*
X31875000Y-94735000D01*
X56140000Y-92410000D02*
X56140000Y-93035000D01*
X56140000Y-93035000D02*
X55990000Y-93185000D01*
X32913053Y-90956447D02*
X42764491Y-90956447D01*
X30750000Y-93119500D02*
X32913053Y-90956447D01*
X37830000Y-92180000D02*
X37830000Y-93215000D01*
X35023566Y-88775059D02*
X35585059Y-88775059D01*
X35585059Y-88775059D02*
X36505688Y-89695688D01*
X37830000Y-93215000D02*
X37810000Y-93235000D01*
D24*
X79490000Y-113150000D02*
X78760000Y-112420000D01*
X161170000Y-142720000D02*
X162430000Y-142720000D01*
X42920000Y-124590000D02*
X37190000Y-124590000D01*
X114400000Y-100025401D02*
X115454216Y-98971185D01*
X93340000Y-95600000D02*
X93340000Y-99520000D01*
X260910000Y-100170000D02*
X265220000Y-100170000D01*
X65770000Y-129410000D02*
X65770000Y-134250000D01*
X251700000Y-111705000D02*
X251700000Y-113180000D01*
X142460000Y-125840000D02*
X142462701Y-125837299D01*
X192710000Y-128730000D02*
X193490000Y-128730000D01*
X44120000Y-143750000D02*
X42740000Y-142370000D01*
X86050000Y-128840000D02*
X88740000Y-131530000D01*
X233594500Y-147440000D02*
X233639021Y-147395479D01*
X41480000Y-111680000D02*
X42610000Y-110550000D01*
X126910000Y-145060000D02*
X126115000Y-145855000D01*
X193490000Y-128730000D02*
X196487701Y-125732299D01*
X252590000Y-114070000D02*
X252590000Y-116970000D01*
X135720000Y-109570000D02*
X135720000Y-111200000D01*
X205720489Y-102551880D02*
X205720489Y-107150489D01*
X212440000Y-126020000D02*
X212930000Y-126510000D01*
X232680000Y-114930000D02*
X232680000Y-127410000D01*
X206120000Y-146210000D02*
X206120000Y-145755000D01*
X77950000Y-108010000D02*
X78900000Y-108960000D01*
X155280000Y-123091391D02*
X155287299Y-123098690D01*
X155287299Y-123098690D02*
X155287299Y-125837299D01*
X149490000Y-92680000D02*
X149490000Y-94040000D01*
X132580000Y-106430000D02*
X135720000Y-109570000D01*
X120590000Y-130800000D02*
X120590000Y-133230000D01*
X158120000Y-128210000D02*
X157600000Y-128730000D01*
X111590000Y-99640000D02*
X114400000Y-102450000D01*
X99370000Y-145130000D02*
X98810000Y-145690000D01*
X230430000Y-111790000D02*
X230920000Y-111790000D01*
X251234500Y-147410000D02*
X251254021Y-147390479D01*
X157040000Y-131230000D02*
X157040000Y-134220000D01*
X123390000Y-136030000D02*
X123390000Y-141300000D01*
X232680000Y-127410000D02*
X231360000Y-128730000D01*
X62100000Y-147260000D02*
X59630000Y-147260000D01*
X86980000Y-140431391D02*
X86980000Y-140540000D01*
X119990000Y-113480000D02*
X119990000Y-116640000D01*
X184590000Y-96810000D02*
X184590000Y-99560000D01*
X34820000Y-101140000D02*
X37560000Y-101140000D01*
X43600000Y-130320000D02*
X43600000Y-128780000D01*
X224520000Y-111740000D02*
X225360000Y-111740000D01*
X209534312Y-109075688D02*
X217054312Y-109075688D01*
X54480000Y-147260000D02*
X52694598Y-147260000D01*
X155720000Y-111045500D02*
X155720000Y-111910000D01*
X37810000Y-94735000D02*
X39075000Y-94735000D01*
X201880000Y-96930000D02*
X202420000Y-97470000D01*
X265220000Y-100170000D02*
X266880000Y-101830000D01*
X40260000Y-145740000D02*
X41630000Y-147110000D01*
X120820000Y-128730000D02*
X119790000Y-128730000D01*
X75170000Y-99310000D02*
X77950000Y-102090000D01*
X210970000Y-128690000D02*
X210970000Y-129770000D01*
X166380000Y-99920000D02*
X169330489Y-102870489D01*
X251254021Y-147390479D02*
X259770479Y-147390479D01*
X39090000Y-99610000D02*
X39090000Y-94720000D01*
X60630000Y-112250000D02*
X60630000Y-111830000D01*
X132580000Y-101860000D02*
X132580000Y-106430000D01*
X33090000Y-102870000D02*
X34820000Y-101140000D01*
X187890000Y-145745000D02*
X188765000Y-145745000D01*
X46000000Y-77000000D02*
X45963512Y-77036488D01*
X111590000Y-96530000D02*
X111590000Y-99640000D01*
X120590000Y-133230000D02*
X123390000Y-136030000D01*
X34910000Y-108290000D02*
X33090000Y-106470000D01*
X80750000Y-108960000D02*
X81520000Y-109730000D01*
X81520000Y-112350000D02*
X80720000Y-113150000D01*
X83830000Y-130150000D02*
X83310000Y-129630000D01*
X220880000Y-99430000D02*
X223840000Y-102390000D01*
X74280000Y-94720000D02*
X75170000Y-95610000D01*
X41570000Y-108290000D02*
X34910000Y-108290000D01*
X264715000Y-111705000D02*
X258195000Y-111705000D01*
X214419511Y-143420489D02*
X212135000Y-145705000D01*
X259520000Y-98780000D02*
X260910000Y-100170000D01*
X210160000Y-119520000D02*
X210160000Y-125130000D01*
X151750000Y-112970000D02*
X152570000Y-113790000D01*
X118390000Y-110955500D02*
X118390000Y-111880000D01*
X238700000Y-111790000D02*
X230430000Y-111790000D01*
X259770479Y-147390479D02*
X260750000Y-146410958D01*
X170600000Y-112470000D02*
X170690000Y-112560000D01*
X77305337Y-117899521D02*
X75209521Y-117899521D01*
X206350000Y-112470000D02*
X206350000Y-112630000D01*
X220880000Y-95300000D02*
X220880000Y-99430000D01*
X40950000Y-112210000D02*
X41480000Y-111680000D01*
X97010000Y-112600000D02*
X96719521Y-112890479D01*
X60630000Y-145780000D02*
X60640000Y-145790000D01*
X208240044Y-117600044D02*
X210160000Y-119520000D01*
X152570000Y-114840000D02*
X152570000Y-116500000D01*
X116990000Y-91860500D02*
X118030000Y-90820500D01*
X98810000Y-145690000D02*
X97150000Y-145690000D01*
D23*
X29427500Y-82220000D02*
X29581911Y-82220000D01*
D24*
X116990000Y-97550000D02*
X116990000Y-91860500D01*
X137200000Y-119640000D02*
X137200000Y-125070000D01*
D23*
X35169520Y-67294500D02*
X33019942Y-67294500D01*
D24*
X42980000Y-124650000D02*
X42920000Y-124590000D01*
X266880000Y-101830000D02*
X266880000Y-109540000D01*
X37560000Y-101140000D02*
X39090000Y-99610000D01*
X129800000Y-99080000D02*
X132580000Y-101860000D01*
X85160000Y-130150000D02*
X83830000Y-130150000D01*
X96719521Y-112890479D02*
X85009521Y-112890479D01*
X83280000Y-125900000D02*
X85190000Y-125900000D01*
X45310000Y-147260000D02*
X44120000Y-146070000D01*
X86980000Y-140431391D02*
X81681391Y-145730000D01*
X172750000Y-111850000D02*
X172750000Y-109930000D01*
X61731770Y-136550479D02*
X61119021Y-136550479D01*
X121810000Y-126170000D02*
X121810000Y-127740000D01*
X169870000Y-111740000D02*
X170600000Y-112470000D01*
X175670000Y-128770000D02*
X174470000Y-128770000D01*
X97010000Y-111700000D02*
X97010000Y-112600000D01*
X125150000Y-143060000D02*
X126170000Y-143060000D01*
X162430000Y-142720000D02*
X163080000Y-143370000D01*
X223689521Y-147400479D02*
X224310000Y-146780000D01*
X110690000Y-95630000D02*
X111590000Y-96530000D01*
X63250000Y-146110000D02*
X62100000Y-147260000D01*
X131190000Y-92560000D02*
X131190000Y-94190000D01*
X86050000Y-128840000D02*
X86050000Y-129260000D01*
X205720489Y-107150489D02*
X208590000Y-110020000D01*
X241744521Y-147395479D02*
X241759042Y-147410000D01*
X60100000Y-147260000D02*
X59630000Y-147260000D01*
X45735011Y-147260000D02*
X45310000Y-147260000D01*
X118390000Y-111880000D02*
X119990000Y-113480000D01*
X239310000Y-99630000D02*
X241899511Y-102219511D01*
X67145500Y-129410000D02*
X69855500Y-126700000D01*
X208590000Y-111180000D02*
X208075000Y-111695000D01*
X83310000Y-129630000D02*
X83310000Y-128780000D01*
X60640000Y-145790000D02*
X60640000Y-146720000D01*
X188060000Y-108670000D02*
X189730000Y-108670000D01*
X130610000Y-94770000D02*
X128940000Y-94770000D01*
X163080000Y-145120000D02*
X162395000Y-145805000D01*
X241744521Y-147395479D02*
X242470000Y-146670000D01*
X190295000Y-111715000D02*
X188150000Y-111715000D01*
X119790000Y-128730000D02*
X119790000Y-130000000D01*
X43080000Y-147110000D02*
X44030000Y-146160000D01*
X110690000Y-94720000D02*
X110690000Y-95630000D01*
X140490000Y-128220000D02*
X140000000Y-128710000D01*
X206350000Y-111695000D02*
X206350000Y-112470000D01*
X212135000Y-145705000D02*
X212135000Y-145755000D01*
X133400000Y-111735000D02*
X133400000Y-113250000D01*
X137970000Y-125840000D02*
X139940000Y-125840000D01*
X96280489Y-106710489D02*
X99160000Y-109590000D01*
X52694598Y-147260000D02*
X52667299Y-147287299D01*
X37190000Y-124590000D02*
X37070000Y-124470000D01*
X160030000Y-141580000D02*
X161170000Y-142720000D01*
X86050000Y-126760000D02*
X86050000Y-128840000D01*
X44280000Y-128100000D02*
X44280000Y-125950000D01*
X97671391Y-111700000D02*
X97010000Y-111700000D01*
X157040000Y-134220000D02*
X160030000Y-137210000D01*
X214419511Y-135629511D02*
X214419511Y-143420489D01*
X40240000Y-145740000D02*
X40260000Y-145740000D01*
X88740000Y-131530000D02*
X88740000Y-133830000D01*
X82480000Y-118440000D02*
X82480000Y-125100000D01*
X223689521Y-147400479D02*
X223729042Y-147440000D01*
X99160000Y-110211391D02*
X97671391Y-111700000D01*
X186030000Y-108920000D02*
X171740000Y-108920000D01*
X101470000Y-129010000D02*
X101500000Y-129040000D01*
X212930000Y-126510000D02*
X212930000Y-128390000D01*
X230920000Y-111790000D02*
X232680000Y-113550000D01*
X36319376Y-88429376D02*
X35844312Y-87954312D01*
X223840000Y-102390000D02*
X223840000Y-107290000D01*
X211050000Y-126020000D02*
X212440000Y-126020000D01*
X81520000Y-111820000D02*
X81520000Y-112350000D01*
X65770000Y-134250000D02*
X63469521Y-136550479D01*
X206350000Y-112630000D02*
X207050000Y-113330000D01*
X183650000Y-95870000D02*
X184590000Y-96810000D01*
X101470000Y-128780000D02*
X101470000Y-129010000D01*
X119050489Y-117579511D02*
X119050489Y-124870489D01*
X135185000Y-111735000D02*
X133400000Y-111735000D01*
X241759042Y-147410000D02*
X249785500Y-147410000D01*
X239310000Y-95750000D02*
X239310000Y-99630000D01*
X114400000Y-108780000D02*
X114330000Y-108850000D01*
X228340000Y-111790000D02*
X230430000Y-111790000D01*
X40950000Y-117290000D02*
X40950000Y-112210000D01*
X201880000Y-94720000D02*
X201880000Y-96930000D01*
X83800000Y-117120000D02*
X82480000Y-118440000D01*
X155720000Y-111910000D02*
X154832299Y-112797701D01*
X152570000Y-116500000D02*
X155280000Y-119210000D01*
D23*
X33019942Y-67294500D02*
X32997221Y-67317221D01*
D24*
X233639021Y-147395479D02*
X241744521Y-147395479D01*
X118390000Y-111880000D02*
X117590000Y-112680000D01*
X99160000Y-109590000D02*
X99160000Y-110211391D01*
X210970000Y-129770000D02*
X211690000Y-130490000D01*
X169330489Y-102870489D02*
X169330489Y-108919511D01*
X176240000Y-128200000D02*
X175670000Y-128770000D01*
X232680000Y-113550000D02*
X232680000Y-114930000D01*
X266880000Y-109540000D02*
X264715000Y-111705000D01*
X224310000Y-146780000D02*
X224310000Y-145780000D01*
X126170000Y-143060000D02*
X126910000Y-143800000D01*
X117590000Y-112680000D02*
X116195000Y-112680000D01*
X137200000Y-125070000D02*
X137970000Y-125840000D01*
X43600000Y-128780000D02*
X43625000Y-128755000D01*
X119990000Y-116640000D02*
X119050489Y-117579511D01*
X79490000Y-113150000D02*
X79490000Y-115714858D01*
X213780479Y-147400479D02*
X223689521Y-147400479D01*
X256930000Y-121310000D02*
X256930000Y-127590000D01*
X42350000Y-128755000D02*
X43625000Y-128755000D01*
X79490000Y-115714858D02*
X77305337Y-117899521D01*
X140490000Y-126390000D02*
X140490000Y-128220000D01*
X133400000Y-113250000D02*
X134430000Y-114280000D01*
X151750000Y-111765000D02*
X151750000Y-112970000D01*
X128940000Y-94770000D02*
X129800000Y-95630000D01*
X152570000Y-113790000D02*
X152570000Y-114840000D01*
X86980000Y-135590000D02*
X86980000Y-140431391D01*
X59630000Y-147260000D02*
X54480000Y-147260000D01*
X114400000Y-102450000D02*
X114400000Y-108780000D01*
X259520000Y-96600000D02*
X259520000Y-98780000D01*
X83800000Y-114100000D02*
X83800000Y-117120000D01*
X156290000Y-130480000D02*
X157040000Y-131230000D01*
X85009521Y-112890479D02*
X83800000Y-114100000D01*
X184590000Y-99560000D02*
X187170000Y-102140000D01*
X99370000Y-143500000D02*
X99370000Y-145130000D01*
X41630000Y-147110000D02*
X43080000Y-147110000D01*
X212135000Y-145705000D02*
X206070000Y-145705000D01*
X252590000Y-116970000D02*
X256930000Y-121310000D01*
X207050000Y-113330000D02*
X207120445Y-113400445D01*
X126115000Y-145855000D02*
X124320000Y-145855000D01*
X162395000Y-145805000D02*
X160540000Y-145805000D01*
X223729042Y-147440000D02*
X232145500Y-147440000D01*
X78760000Y-112420000D02*
X78760000Y-111765000D01*
X210160000Y-125130000D02*
X211050000Y-126020000D01*
X211690000Y-132900000D02*
X214419511Y-135629511D01*
X190560000Y-109500000D02*
X190560000Y-111450000D01*
X202420000Y-99251391D02*
X205720489Y-102551880D01*
X190560000Y-111450000D02*
X190295000Y-111715000D01*
X39075000Y-94735000D02*
X39090000Y-94720000D01*
X40170000Y-111680000D02*
X41480000Y-111680000D01*
X162860000Y-108920000D02*
X162840000Y-108920000D01*
X121410000Y-125770000D02*
X121810000Y-126170000D01*
X119950000Y-125770000D02*
X121410000Y-125770000D01*
X189730000Y-108670000D02*
X190560000Y-109500000D01*
X258740000Y-94700000D02*
X258740000Y-95820000D01*
X148830000Y-94700000D02*
X147170000Y-94700000D01*
X36790000Y-118460000D02*
X39780000Y-118460000D01*
X207120445Y-113400445D02*
X207120445Y-116670446D01*
X158120000Y-126610000D02*
X158120000Y-128210000D01*
X212930000Y-128390000D02*
X212630000Y-128690000D01*
X75209521Y-117899521D02*
X73260000Y-115950000D01*
X134430000Y-116870000D02*
X137200000Y-119640000D01*
X60630000Y-111830000D02*
X60550000Y-111750000D01*
X88740000Y-133830000D02*
X86980000Y-135590000D01*
X123390000Y-141300000D02*
X125150000Y-143060000D01*
X65770000Y-129410000D02*
X67145500Y-129410000D01*
X119790000Y-130000000D02*
X120590000Y-130800000D01*
X99160000Y-110211391D02*
X102848609Y-110211391D01*
D23*
X29581911Y-82220000D02*
X30876500Y-83514589D01*
D24*
X172040000Y-112560000D02*
X172750000Y-111850000D01*
X44120000Y-146070000D02*
X44120000Y-143970000D01*
X241899511Y-108590489D02*
X238700000Y-111790000D01*
X65100000Y-128740000D02*
X65770000Y-129410000D01*
X114400000Y-102450000D02*
X114400000Y-100025401D01*
X225360000Y-111740000D02*
X225410000Y-111790000D01*
X162840000Y-108920000D02*
X160890000Y-110870000D01*
X212135000Y-145755000D02*
X213780479Y-147400479D01*
X80720000Y-113150000D02*
X79490000Y-113150000D01*
X208590000Y-110020000D02*
X209534312Y-109075688D01*
X75170000Y-95610000D02*
X75170000Y-99310000D01*
X155280000Y-119210000D02*
X155280000Y-123091391D01*
X169330000Y-108920000D02*
X162860000Y-108920000D01*
X61119021Y-136550479D02*
X61079500Y-136590000D01*
X160030000Y-137210000D02*
X160030000Y-141580000D01*
X85190000Y-125900000D02*
X86050000Y-126760000D01*
X102848609Y-110211391D02*
X102972701Y-110087299D01*
X163080000Y-143370000D02*
X163080000Y-145120000D01*
X169330489Y-108919511D02*
X169330000Y-108920000D01*
X81520000Y-109730000D02*
X81520000Y-111820000D01*
X176240000Y-126700000D02*
X176240000Y-128200000D01*
X55990000Y-95380000D02*
X55990000Y-94685000D01*
X212630000Y-128690000D02*
X210970000Y-128690000D01*
X59487910Y-140153465D02*
X63250000Y-143915555D01*
X183650000Y-94685000D02*
X183650000Y-95870000D01*
X256930000Y-127590000D02*
X255755000Y-128765000D01*
X81681391Y-145730000D02*
X78780000Y-145730000D01*
X92510000Y-94770000D02*
X93340000Y-95600000D01*
X208075000Y-111695000D02*
X206350000Y-111695000D01*
X119050489Y-124870489D02*
X119950000Y-125770000D01*
X82480000Y-125100000D02*
X83280000Y-125900000D01*
X156290000Y-128730000D02*
X156290000Y-130480000D01*
X242470000Y-146670000D02*
X242470000Y-145785000D01*
X171740000Y-108920000D02*
X169330000Y-108920000D01*
X63469521Y-136550479D02*
X61731770Y-136550479D01*
X81520000Y-111820000D02*
X83800000Y-114100000D01*
X187170000Y-102140000D02*
X187170000Y-107780000D01*
X258195000Y-111705000D02*
X256605000Y-111705000D01*
X44030000Y-146160000D02*
X44120000Y-146070000D01*
X139940000Y-125840000D02*
X142460000Y-125840000D01*
X165430000Y-94670000D02*
X166380000Y-95620000D01*
X78900000Y-108960000D02*
X80750000Y-108960000D01*
X241899511Y-102219511D02*
X241899511Y-108590489D01*
X131190000Y-94190000D02*
X130610000Y-94770000D01*
X96280489Y-102460489D02*
X96280489Y-106710489D01*
X139940000Y-125840000D02*
X140490000Y-126390000D01*
X220280000Y-94700000D02*
X220880000Y-95300000D01*
X51100000Y-77000000D02*
X46000000Y-77000000D01*
X256605000Y-111705000D02*
X253914799Y-109014799D01*
X37772000Y-88429376D02*
X36319376Y-88429376D01*
X86050000Y-129260000D02*
X85160000Y-130150000D01*
X206120000Y-145755000D02*
X206070000Y-145705000D01*
X135720000Y-111200000D02*
X135185000Y-111735000D01*
X202420000Y-97470000D02*
X202420000Y-99251391D01*
X92460000Y-94770000D02*
X92510000Y-94770000D01*
X93340000Y-99520000D02*
X96280489Y-102460489D01*
X126910000Y-143800000D02*
X126910000Y-145060000D01*
X255755000Y-128765000D02*
X254260000Y-128765000D01*
X44280000Y-125950000D02*
X42980000Y-124650000D01*
X44120000Y-143970000D02*
X44120000Y-143750000D01*
X73260000Y-115950000D02*
X73260000Y-112870000D01*
X129800000Y-95630000D02*
X129800000Y-99080000D01*
X260750000Y-146410958D02*
X260750000Y-145740000D01*
X187170000Y-107780000D02*
X186030000Y-108920000D01*
X238330000Y-94770000D02*
X239310000Y-95750000D01*
X223840000Y-107290000D02*
X228340000Y-111790000D01*
X140000000Y-128710000D02*
X137990000Y-128710000D01*
X160890000Y-110870000D02*
X160890000Y-111045500D01*
X39780000Y-118460000D02*
X40950000Y-117290000D01*
X187170000Y-107780000D02*
X188060000Y-108670000D01*
X149490000Y-94040000D02*
X148830000Y-94700000D01*
X63250000Y-143915555D02*
X63250000Y-146110000D01*
X166380000Y-95620000D02*
X166380000Y-99920000D01*
X134430000Y-114280000D02*
X134430000Y-116870000D01*
X172750000Y-109930000D02*
X171740000Y-108920000D01*
X121810000Y-127740000D02*
X120820000Y-128730000D01*
X43625000Y-128755000D02*
X44280000Y-128100000D01*
X42610000Y-110550000D02*
X42610000Y-109330000D01*
X211690000Y-130490000D02*
X211690000Y-132900000D01*
X251700000Y-113180000D02*
X252590000Y-114070000D01*
X86980000Y-140540000D02*
X88340000Y-141900000D01*
X42610000Y-109330000D02*
X41570000Y-108290000D01*
X188765000Y-145745000D02*
X188800000Y-145780000D01*
X77950000Y-102090000D02*
X77950000Y-108010000D01*
X33090000Y-106470000D02*
X33090000Y-102870000D01*
X208590000Y-110020000D02*
X208590000Y-111180000D01*
X157600000Y-128730000D02*
X156290000Y-128730000D01*
X60640000Y-146720000D02*
X60100000Y-147260000D01*
X258195000Y-111705000D02*
X251700000Y-111705000D01*
X231360000Y-128730000D02*
X229150000Y-128730000D01*
X170690000Y-112560000D02*
X172040000Y-112560000D01*
X116195000Y-112680000D02*
X115280000Y-111765000D01*
X258740000Y-95820000D02*
X259520000Y-96600000D01*
D23*
X74360000Y-93140000D02*
X74280000Y-93220000D01*
X47310000Y-92630000D02*
X48480000Y-91460000D01*
X47310000Y-93999500D02*
X47310000Y-92630000D01*
X49855000Y-94685000D02*
X49785688Y-94615688D01*
X50890000Y-94685000D02*
X49855000Y-94685000D01*
X74360000Y-92690000D02*
X74360000Y-93140000D01*
X48480000Y-91460000D02*
X56825500Y-91460000D01*
X69180000Y-94720000D02*
X68740000Y-94720000D01*
X65700000Y-91680000D02*
X65700000Y-89620000D01*
X92460000Y-90730000D02*
X92460000Y-93270000D01*
X68740000Y-94720000D02*
X65700000Y-91680000D01*
X66449312Y-88870688D02*
X67649312Y-88870688D01*
X90630000Y-88900000D02*
X92460000Y-90730000D01*
X65700000Y-89620000D02*
X66449312Y-88870688D01*
X87360000Y-95430000D02*
X87729466Y-95799466D01*
X92338090Y-95799466D02*
X92433549Y-95894925D01*
X112320000Y-93970000D02*
X111550000Y-93200000D01*
X112320000Y-95480000D02*
X112320000Y-93970000D01*
X87729466Y-95799466D02*
X92338090Y-95799466D01*
X87360000Y-94770000D02*
X87360000Y-95430000D01*
X129020000Y-93350000D02*
X128940000Y-93270000D01*
X105590000Y-94720000D02*
X105590000Y-94796804D01*
X106598675Y-95805479D02*
X109664103Y-95805479D01*
X109664103Y-95805479D02*
X110604311Y-96745687D01*
X105590000Y-94796804D02*
X106598675Y-95805479D01*
X130100000Y-93350000D02*
X129020000Y-93350000D01*
X123840000Y-95430000D02*
X124215479Y-95805479D01*
X147434312Y-93464312D02*
X147170000Y-93200000D01*
X148640500Y-93464312D02*
X147434312Y-93464312D01*
X128226000Y-95805479D02*
X128950500Y-96529979D01*
X123840000Y-94770000D02*
X123840000Y-95430000D01*
X124215479Y-95805479D02*
X128226000Y-95805479D01*
X142070000Y-95360000D02*
X142480000Y-95770000D01*
X142070000Y-94700000D02*
X142070000Y-95360000D01*
X166400000Y-93150000D02*
X165450000Y-93150000D01*
X142480000Y-95770000D02*
X154475500Y-95770000D01*
X165450000Y-93150000D02*
X165430000Y-93170000D01*
X164821479Y-95785479D02*
X165530500Y-96494500D01*
X160330000Y-95400000D02*
X160715479Y-95785479D01*
X184580000Y-93090000D02*
X183745000Y-93090000D01*
X160330000Y-94670000D02*
X160330000Y-95400000D01*
X160715479Y-95785479D02*
X164821479Y-95785479D01*
X183745000Y-93090000D02*
X183650000Y-93185000D01*
X178550000Y-95345000D02*
X178990479Y-95785479D01*
X178550000Y-94685000D02*
X178550000Y-95345000D01*
X201910000Y-93250000D02*
X201880000Y-93220000D01*
X202820000Y-93250000D02*
X201910000Y-93250000D01*
X182364103Y-95785479D02*
X183704913Y-97126289D01*
X178990479Y-95785479D02*
X182364103Y-95785479D01*
X220360000Y-93280000D02*
X220280000Y-93200000D01*
X196780000Y-94720000D02*
X196780000Y-100080000D01*
X196780000Y-100080000D02*
X197710000Y-101010000D01*
X221180000Y-93280000D02*
X220360000Y-93280000D01*
X200570021Y-101010000D02*
X201770000Y-99810021D01*
X197710000Y-101010000D02*
X200570021Y-101010000D01*
X215180000Y-94700000D02*
X215180000Y-95360000D01*
X215180000Y-95360000D02*
X215625479Y-95805479D01*
X215625479Y-95805479D02*
X219225479Y-95805479D01*
X219225479Y-95805479D02*
X219306000Y-95805479D01*
X219306000Y-95805479D02*
X220030500Y-96529979D01*
X239270000Y-93290000D02*
X238350000Y-93290000D01*
X238350000Y-93290000D02*
X238330000Y-93270000D01*
X258770000Y-93170000D02*
X258740000Y-93200000D01*
X233230000Y-94770000D02*
X233230000Y-95600000D01*
X259600000Y-93170000D02*
X258770000Y-93170000D01*
X237736000Y-95805479D02*
X238460500Y-96529979D01*
X233435479Y-95805479D02*
X237736000Y-95805479D01*
X233230000Y-95600000D02*
X233435479Y-95805479D01*
X253640000Y-94700000D02*
X253640000Y-108265000D01*
X253640000Y-108265000D02*
X251700000Y-110205000D01*
X225450000Y-110240000D02*
X225460000Y-110230000D01*
X246595000Y-111710000D02*
X246600000Y-111705000D01*
X224520000Y-110240000D02*
X225450000Y-110240000D01*
X245520000Y-111710000D02*
X246595000Y-111710000D01*
X207345000Y-110195000D02*
X207350000Y-110200000D01*
X206350000Y-110195000D02*
X207345000Y-110195000D01*
X218410000Y-111740000D02*
X219420000Y-111740000D01*
X189155000Y-110215000D02*
X189200000Y-110260000D01*
X200350000Y-111710000D02*
X201235000Y-111710000D01*
X201235000Y-111710000D02*
X201250000Y-111695000D01*
X188150000Y-110215000D02*
X189155000Y-110215000D01*
X169870000Y-110240000D02*
X170730000Y-110240000D01*
X183045000Y-111710000D02*
X183050000Y-111715000D01*
X182050000Y-111710000D02*
X183045000Y-111710000D01*
X170730000Y-110240000D02*
X170770000Y-110200000D01*
X152715000Y-110265000D02*
X152720000Y-110260000D01*
X151750000Y-110265000D02*
X152715000Y-110265000D01*
X163810000Y-111770000D02*
X164740000Y-111770000D01*
X164740000Y-111770000D02*
X164770000Y-111740000D01*
X145790000Y-111740000D02*
X146625000Y-111740000D01*
X134285000Y-110235000D02*
X134290000Y-110230000D01*
X133400000Y-110235000D02*
X134285000Y-110235000D01*
X146625000Y-111740000D02*
X146650000Y-111765000D01*
X128275000Y-111710000D02*
X128300000Y-111735000D01*
X127240000Y-111710000D02*
X128275000Y-111710000D01*
X116085000Y-110265000D02*
X116090000Y-110260000D01*
X115280000Y-110265000D02*
X116085000Y-110265000D01*
X97850000Y-110200000D02*
X97910000Y-110260000D01*
X97010000Y-110200000D02*
X97850000Y-110200000D01*
X109210000Y-111710000D02*
X110125000Y-111710000D01*
X110125000Y-111710000D02*
X110180000Y-111765000D01*
X91040000Y-111710000D02*
X91900000Y-111710000D01*
X79665000Y-110265000D02*
X79670000Y-110260000D01*
X91900000Y-111710000D02*
X91910000Y-111700000D01*
X78760000Y-110265000D02*
X79665000Y-110265000D01*
X61620000Y-110540000D02*
X60840000Y-110540000D01*
X60840000Y-110540000D02*
X60550000Y-110250000D01*
X73660000Y-111765000D02*
X72685000Y-111765000D01*
X72685000Y-111765000D02*
X72680000Y-111770000D01*
X54510000Y-111750000D02*
X54470000Y-111710000D01*
X41190000Y-110200000D02*
X40190000Y-110200000D01*
X55450000Y-111750000D02*
X54510000Y-111750000D01*
X40190000Y-110200000D02*
X40170000Y-110180000D01*
X35070000Y-123550000D02*
X37100000Y-125580000D01*
X42300000Y-127205000D02*
X42350000Y-127255000D01*
X42300000Y-126470000D02*
X42300000Y-127205000D01*
X35070000Y-111680000D02*
X35070000Y-123550000D01*
X37250000Y-129560000D02*
X37250000Y-128755000D01*
X65100000Y-127240000D02*
X65100000Y-126360000D01*
X65100000Y-126360000D02*
X64540000Y-125800000D01*
X59950000Y-128790000D02*
X60000000Y-128740000D01*
X83310000Y-126779500D02*
X83280000Y-126749500D01*
X59950000Y-129590000D02*
X59950000Y-128790000D01*
X83310000Y-127280000D02*
X83310000Y-126779500D01*
X101500000Y-127250000D02*
X101470000Y-127280000D01*
X101500000Y-126850000D02*
X101500000Y-127250000D01*
X78210000Y-128780000D02*
X78210000Y-129500000D01*
X119900000Y-127120000D02*
X119790000Y-127230000D01*
X107787701Y-127642299D02*
X107827701Y-127642299D01*
X96370000Y-128780000D02*
X96370000Y-129660000D01*
X96370000Y-129660000D02*
X96820000Y-130110000D01*
X110234312Y-125135688D02*
X111500500Y-125135688D01*
X96820000Y-130110000D02*
X105320000Y-130110000D01*
X108802299Y-126567701D02*
X110234312Y-125135688D01*
X105320000Y-130110000D02*
X107787701Y-127642299D01*
X119900000Y-126630000D02*
X119900000Y-127120000D01*
X114690000Y-129390000D02*
X115410000Y-130110000D01*
X114690000Y-128730000D02*
X114690000Y-129390000D01*
X138980000Y-127310000D02*
X138090000Y-127310000D01*
X115410000Y-130110000D02*
X118800000Y-130110000D01*
X138090000Y-127310000D02*
X137990000Y-127210000D01*
X132890000Y-129500000D02*
X133675479Y-130285479D01*
X156460000Y-127400000D02*
X156290000Y-127230000D01*
X133675479Y-130285479D02*
X145280979Y-130285479D01*
X145280979Y-130285479D02*
X145295500Y-130300000D01*
X132890000Y-128710000D02*
X132890000Y-129500000D01*
X157270500Y-127400000D02*
X156460000Y-127400000D01*
X174644580Y-127444580D02*
X174470000Y-127270000D01*
X151405020Y-129605020D02*
X154023101Y-129605020D01*
X154023101Y-129605020D02*
X156190500Y-131772419D01*
X151190000Y-129390000D02*
X151405020Y-129605020D01*
X151190000Y-128730000D02*
X151190000Y-129390000D01*
X156190500Y-131772419D02*
X156190500Y-133960000D01*
X175390500Y-127444580D02*
X174644580Y-127444580D01*
X169370000Y-128770000D02*
X169370000Y-129530000D01*
X181704521Y-130265479D02*
X181770000Y-130200000D01*
X169370000Y-129530000D02*
X170105479Y-130265479D01*
X181770000Y-130200000D02*
X181775500Y-130200000D01*
X170105479Y-130265479D02*
X181704521Y-130265479D01*
X193794312Y-127224312D02*
X192715688Y-127224312D01*
X192715688Y-127224312D02*
X192710000Y-127230000D01*
X211060000Y-127280000D02*
X210970000Y-127190000D01*
X211880000Y-127280000D02*
X211060000Y-127280000D01*
X188240000Y-130230000D02*
X199995500Y-130230000D01*
X187610000Y-128730000D02*
X187610000Y-129600000D01*
X187610000Y-129600000D02*
X188240000Y-130230000D01*
X210060000Y-130200000D02*
X210082908Y-130200000D01*
X210082908Y-130200000D02*
X210837408Y-130954500D01*
X230180000Y-127280000D02*
X229200000Y-127280000D01*
X229200000Y-127280000D02*
X229150000Y-127230000D01*
X205870000Y-129440000D02*
X206630000Y-130200000D01*
X205870000Y-128690000D02*
X205870000Y-129440000D01*
X206630000Y-130200000D02*
X210060000Y-130200000D01*
X254275000Y-127280000D02*
X254260000Y-127265000D01*
X224940000Y-130260000D02*
X240895500Y-130260000D01*
X224050000Y-128730000D02*
X224050000Y-129370000D01*
X224050000Y-129370000D02*
X224940000Y-130260000D01*
X255140000Y-127280000D02*
X254275000Y-127280000D01*
X249160000Y-129440000D02*
X249945479Y-130225479D01*
X258030000Y-141740000D02*
X259010000Y-142720000D01*
X249945479Y-130225479D02*
X252655479Y-130225479D01*
X258030000Y-135600000D02*
X258030000Y-141740000D01*
X252655479Y-130225479D02*
X258030000Y-135600000D01*
X259010000Y-142720000D02*
X260070000Y-142720000D01*
X260070000Y-142720000D02*
X260750000Y-143400000D01*
X260750000Y-143400000D02*
X260750000Y-144240000D01*
X249160000Y-128765000D02*
X249160000Y-129440000D01*
X243395000Y-144285000D02*
X243400000Y-144280000D01*
X242470000Y-144285000D02*
X243395000Y-144285000D01*
X254730000Y-145720000D02*
X255630000Y-145720000D01*
X255630000Y-145720000D02*
X255650000Y-145740000D01*
X225250000Y-144280000D02*
X225280000Y-144250000D01*
X237335000Y-145750000D02*
X237370000Y-145785000D01*
X224310000Y-144280000D02*
X225250000Y-144280000D01*
X236280000Y-145750000D02*
X237335000Y-145750000D01*
X219200000Y-145790000D02*
X219210000Y-145780000D01*
X206070000Y-144205000D02*
X206955000Y-144205000D01*
X218320000Y-145790000D02*
X219200000Y-145790000D01*
X206955000Y-144205000D02*
X207010000Y-144150000D01*
X188765000Y-144245000D02*
X188800000Y-144210000D01*
X187890000Y-144245000D02*
X188765000Y-144245000D01*
X200080000Y-145690000D02*
X200955000Y-145690000D01*
X200955000Y-145690000D02*
X200970000Y-145705000D01*
X182785000Y-145750000D02*
X182790000Y-145745000D01*
X181870000Y-145750000D02*
X182785000Y-145750000D01*
X160540000Y-144305000D02*
X161445000Y-144305000D01*
X161445000Y-144305000D02*
X161470000Y-144280000D01*
X124320000Y-144355000D02*
X125285000Y-144355000D01*
X154510000Y-145820000D02*
X155425000Y-145820000D01*
X155425000Y-145820000D02*
X155440000Y-145805000D01*
X125285000Y-144355000D02*
X125300000Y-144370000D01*
X97150000Y-144190000D02*
X98110000Y-144190000D01*
X119195000Y-145880000D02*
X119220000Y-145855000D01*
X98110000Y-144190000D02*
X98150000Y-144150000D01*
X118370000Y-145880000D02*
X119195000Y-145880000D01*
X78780000Y-144230000D02*
X79710000Y-144230000D01*
X79710000Y-144230000D02*
X79730000Y-144210000D01*
X91190000Y-145690000D02*
X92050000Y-145690000D01*
X73670000Y-145720000D02*
X73680000Y-145730000D01*
X60630000Y-144280000D02*
X61550000Y-144280000D01*
X72760000Y-145720000D02*
X73670000Y-145720000D01*
X41090000Y-144240000D02*
X41120000Y-144210000D01*
X55520000Y-145790000D02*
X55530000Y-145780000D01*
X40240000Y-144240000D02*
X41090000Y-144240000D01*
X54650000Y-145790000D02*
X55520000Y-145790000D01*
X54860000Y-127672493D02*
X54860000Y-136350000D01*
X29930000Y-138600000D02*
X32160000Y-136370000D01*
X50390000Y-148540000D02*
X50390000Y-153585000D01*
X27580000Y-101880000D02*
X27950000Y-101880000D01*
X29910000Y-134120000D02*
X29910000Y-119110000D01*
X50350000Y-123180000D02*
X51960000Y-124790000D01*
X45392000Y-101482000D02*
X45790000Y-101880000D01*
X52910000Y-136350000D02*
X52910000Y-146020000D01*
X29910000Y-119110000D02*
X27580000Y-116780000D01*
X52910000Y-136350000D02*
X54860000Y-136350000D01*
X44930000Y-100980000D02*
X44930000Y-101020000D01*
X52910000Y-146020000D02*
X50390000Y-148540000D01*
X27580000Y-116780000D02*
X27580000Y-101880000D01*
X51960000Y-124790000D02*
X52120000Y-124950000D01*
X47850000Y-107100000D02*
X47850000Y-118290000D01*
X32160000Y-136370000D02*
X29910000Y-134120000D01*
X51960000Y-124790000D02*
X51977507Y-124790000D01*
X51977507Y-124790000D02*
X54860000Y-127672493D01*
X48670000Y-119110000D02*
X50350000Y-119110000D01*
X50350000Y-119110000D02*
X50350000Y-123180000D01*
X45790000Y-101880000D02*
X45790000Y-105040000D01*
X47850000Y-118290000D02*
X48670000Y-119110000D01*
X45392000Y-85403600D02*
X45392000Y-101482000D01*
X29930000Y-153560000D02*
X29930000Y-138600000D01*
X45790000Y-105040000D02*
X47850000Y-107100000D01*
X44930000Y-101020000D02*
X45790000Y-101880000D01*
X27950000Y-101880000D02*
X28110000Y-101720000D01*
X68610000Y-145960000D02*
X68610000Y-153590000D01*
X64050000Y-101860000D02*
X64190000Y-101860000D01*
X86850000Y-145880000D02*
X86850000Y-153590000D01*
X73170000Y-124780000D02*
X73100000Y-124710000D01*
X86790000Y-119090000D02*
X86790000Y-124000000D01*
X91320000Y-136350000D02*
X91320000Y-141410000D01*
X73100000Y-141470000D02*
X68610000Y-145960000D01*
X68570000Y-119100000D02*
X68570000Y-120180000D01*
X91320000Y-133119022D02*
X91320000Y-136350000D01*
X64050000Y-101860000D02*
X64050000Y-109930000D01*
X86790000Y-124000000D02*
X86790000Y-128589022D01*
X68570000Y-120180000D02*
X73100000Y-124710000D01*
X91320000Y-141410000D02*
X86850000Y-145880000D01*
X73630000Y-124780000D02*
X73170000Y-124780000D01*
X81300000Y-100920000D02*
X82260000Y-101880000D01*
X81300000Y-100740000D02*
X81300000Y-100920000D01*
X86790000Y-128589022D02*
X91320000Y-133119022D01*
X73100000Y-124710000D02*
X73100000Y-136350000D01*
X64050000Y-89935500D02*
X62194500Y-88080000D01*
X73100000Y-136350000D02*
X73100000Y-141470000D01*
X64190000Y-101860000D02*
X64570000Y-101480000D01*
X64050000Y-101860000D02*
X64050000Y-89935500D01*
X64050000Y-109930000D02*
X68570000Y-114450000D01*
X86790000Y-124000000D02*
X86170000Y-124620000D01*
X68570000Y-114450000D02*
X68570000Y-119100000D01*
X105010000Y-123800000D02*
X109540000Y-128330000D01*
X127780000Y-136360000D02*
X127780000Y-146500000D01*
X109540000Y-137940000D02*
X114150000Y-142550000D01*
X123210000Y-111100000D02*
X123210000Y-119100000D01*
X109540000Y-128330000D02*
X109540000Y-136360000D01*
X125020000Y-149260000D02*
X125020000Y-152690000D01*
X124190000Y-153520000D02*
X119970000Y-153520000D01*
X123210000Y-123950000D02*
X127780000Y-128520000D01*
X123210000Y-119100000D02*
X123210000Y-123950000D01*
X98300000Y-90600000D02*
X100490000Y-92790000D01*
X118180000Y-151730000D02*
X115530000Y-151730000D01*
X50472000Y-85403600D02*
X55478400Y-90410000D01*
X105010000Y-119100000D02*
X105010000Y-123800000D01*
X55478400Y-90410000D02*
X56825500Y-90410000D01*
X118740000Y-106630000D02*
X123210000Y-111100000D01*
X136970000Y-105910000D02*
X137030000Y-105970000D01*
X109540000Y-136360000D02*
X109540000Y-137940000D01*
X114150000Y-142550000D02*
X114150000Y-153610000D01*
X100490000Y-92790000D02*
X100490000Y-101880000D01*
X127780000Y-146500000D02*
X125020000Y-149260000D01*
X115530000Y-151730000D02*
X114150000Y-153110000D01*
X119970000Y-153520000D02*
X118180000Y-151730000D01*
X125020000Y-152690000D02*
X124190000Y-153520000D01*
X100490000Y-106580000D02*
X105010000Y-111100000D01*
X105010000Y-111100000D02*
X105010000Y-119100000D01*
X136970000Y-101860000D02*
X136970000Y-105910000D01*
X100490000Y-101880000D02*
X100490000Y-106580000D01*
X118740000Y-101880000D02*
X118740000Y-106630000D01*
X114150000Y-153110000D02*
X114150000Y-153610000D01*
X127780000Y-128520000D02*
X127780000Y-136360000D01*
X161070000Y-149040000D02*
X161070000Y-152100000D01*
X164260000Y-128520000D02*
X164260000Y-136340000D01*
X154510000Y-151450000D02*
X151980000Y-151450000D01*
X155200000Y-106610000D02*
X159690000Y-111100000D01*
X146020000Y-137970000D02*
X150390000Y-142340000D01*
X141450000Y-119110000D02*
X141450000Y-123800000D01*
X159690000Y-111000000D02*
X159690000Y-111280000D01*
X159690000Y-119100000D02*
X159690000Y-123950000D01*
X164260000Y-147100000D02*
X166000000Y-148840000D01*
X163010000Y-147100000D02*
X161070000Y-149040000D01*
X164260000Y-147100000D02*
X163010000Y-147100000D01*
X163020000Y-107670000D02*
X159690000Y-111000000D01*
X173400000Y-101860000D02*
X173400000Y-106750000D01*
X159690000Y-111100000D02*
X159690000Y-111280000D01*
X141450000Y-123800000D02*
X146020000Y-128370000D01*
X156110000Y-153050000D02*
X154510000Y-151450000D01*
X159690000Y-123950000D02*
X164260000Y-128520000D01*
X166720000Y-153590000D02*
X177580000Y-153590000D01*
X146020000Y-128370000D02*
X146020000Y-136360000D01*
X161070000Y-152100000D02*
X160120000Y-153050000D01*
X151980000Y-151450000D02*
X150390000Y-153040000D01*
X160120000Y-153050000D02*
X156110000Y-153050000D01*
X150390000Y-153040000D02*
X150390000Y-153620000D01*
X166000000Y-152870000D02*
X166720000Y-153590000D01*
X150390000Y-142340000D02*
X150390000Y-153620000D01*
X155200000Y-101860000D02*
X155200000Y-106610000D01*
X164260000Y-136340000D02*
X164260000Y-147100000D01*
X150930000Y-86350000D02*
X155200000Y-90620000D01*
X166000000Y-148840000D02*
X166000000Y-152870000D01*
X159690000Y-111280000D02*
X159690000Y-119100000D01*
X146020000Y-136360000D02*
X146020000Y-137970000D01*
X155200000Y-90620000D02*
X155200000Y-101860000D01*
X214040000Y-153600000D02*
X214040000Y-158600000D01*
X197180000Y-159660000D02*
X195810000Y-158290000D01*
X209820000Y-99810000D02*
X209820000Y-101820000D01*
X182500000Y-140590000D02*
X182500000Y-136340000D01*
X196120000Y-119110000D02*
X196120000Y-124340000D01*
X191630000Y-87470989D02*
X191630000Y-101860000D01*
X182500000Y-128840000D02*
X182500000Y-136340000D01*
X209820000Y-101820000D02*
X209880000Y-101880000D01*
X195810000Y-145710000D02*
X200720000Y-140800000D01*
X191630000Y-101860000D02*
X191650000Y-101860000D01*
X191610000Y-87450989D02*
X191630000Y-87470989D01*
X195810000Y-145710000D02*
X195800000Y-145710000D01*
X200720000Y-140800000D02*
X200720000Y-136340000D01*
X177900000Y-124240000D02*
X182500000Y-128840000D01*
X196120000Y-112390000D02*
X196120000Y-119110000D01*
X191630000Y-107900000D02*
X196120000Y-112390000D01*
X195810000Y-158290000D02*
X195810000Y-153590000D01*
X182460000Y-140630000D02*
X182500000Y-140590000D01*
X195800000Y-145710000D02*
X192200000Y-142110000D01*
X196120000Y-124340000D02*
X200720000Y-128940000D01*
X177900000Y-119100000D02*
X177900000Y-124240000D01*
X191630000Y-101860000D02*
X191630000Y-107900000D01*
X191650000Y-101860000D02*
X192100000Y-101410000D01*
X200720000Y-128940000D02*
X200720000Y-136340000D01*
X212980000Y-159660000D02*
X197180000Y-159660000D01*
X214040000Y-158600000D02*
X212980000Y-159660000D01*
X195810000Y-153590000D02*
X195810000Y-145710000D01*
X250510000Y-158460000D02*
X249300000Y-159670000D01*
X249300000Y-159670000D02*
X233230000Y-159670000D01*
X232250000Y-158690000D02*
X232250000Y-153595000D01*
X248500000Y-103380000D02*
X248500000Y-101850000D01*
X232870000Y-147810000D02*
X232250000Y-148430000D01*
X218940000Y-129900000D02*
X218940000Y-136340000D01*
X241620000Y-119100000D02*
X241620000Y-133970000D01*
X228110000Y-89700000D02*
X228110000Y-101880000D01*
X214340000Y-125300000D02*
X218940000Y-129900000D01*
X250510000Y-146540000D02*
X250510000Y-153590000D01*
X241620000Y-133970000D02*
X243950000Y-136300000D01*
X228110000Y-100940000D02*
X228960000Y-100090000D01*
X218940000Y-136136234D02*
X220642904Y-134433330D01*
X243950000Y-136300000D02*
X243950000Y-139980000D01*
X218940000Y-136340000D02*
X218940000Y-136136234D01*
X232250000Y-148430000D02*
X232250000Y-153595000D01*
X250510000Y-153590000D02*
X250510000Y-158460000D01*
X232870000Y-139605500D02*
X232870000Y-147810000D01*
X241620000Y-110260000D02*
X248500000Y-103380000D01*
X243950000Y-139980000D02*
X250510000Y-146540000D01*
X247600000Y-100950000D02*
X248500000Y-101850000D01*
X241620000Y-119100000D02*
X241620000Y-110260000D01*
X227800000Y-89390000D02*
X228110000Y-89700000D01*
X214340000Y-119110000D02*
X214340000Y-125300000D01*
X233230000Y-159670000D02*
X232250000Y-158690000D01*
X228110000Y-101880000D02*
X228110000Y-100940000D01*
M02*
