G04 #@! TF.GenerationSoftware,KiCad,Pcbnew,(6.0.9)*
G04 #@! TF.CreationDate,2022-12-20T15:04:12+09:00*
G04 #@! TF.ProjectId,meow48,6d656f77-3438-42e6-9b69-6361645f7063,rev?*
G04 #@! TF.SameCoordinates,Original*
G04 #@! TF.FileFunction,Soldermask,Top*
G04 #@! TF.FilePolarity,Negative*
%FSLAX46Y46*%
G04 Gerber Fmt 4.6, Leading zero omitted, Abs format (unit mm)*
G04 Created by KiCad (PCBNEW (6.0.9)) date 2022-12-20 15:04:12*
%MOMM*%
%LPD*%
G01*
G04 APERTURE LIST*
%ADD10C,1.900000*%
%ADD11C,3.100000*%
%ADD12C,4.000000*%
%ADD13C,2.200000*%
%ADD14C,1.397000*%
G04 APERTURE END LIST*
D10*
X99990000Y-115390000D03*
D11*
X89490000Y-119090000D03*
D12*
X94490000Y-115390000D03*
D11*
X94490000Y-121290000D03*
D10*
X88990000Y-115390000D03*
D13*
X77880000Y-83840000D03*
X25610000Y-158470000D03*
D12*
X80800000Y-132650000D03*
D10*
X86300000Y-132650000D03*
D11*
X80800000Y-138550000D03*
D10*
X75300000Y-132650000D03*
D11*
X75800000Y-136350000D03*
D12*
X217580000Y-98180000D03*
D11*
X217580000Y-104080000D03*
X212580000Y-101880000D03*
D10*
X212080000Y-98180000D03*
X223080000Y-98180000D03*
D12*
X130910000Y-115400000D03*
D10*
X125410000Y-115400000D03*
D11*
X125910000Y-119100000D03*
D10*
X136410000Y-115400000D03*
D11*
X130910000Y-121300000D03*
X194330000Y-101860000D03*
D12*
X199330000Y-98160000D03*
D10*
X193830000Y-98160000D03*
X204830000Y-98160000D03*
D11*
X199330000Y-104060000D03*
D12*
X144670000Y-98160000D03*
D11*
X139670000Y-101860000D03*
D10*
X150170000Y-98160000D03*
X139170000Y-98160000D03*
D11*
X144670000Y-104060000D03*
D10*
X159220000Y-132660000D03*
D12*
X153720000Y-132660000D03*
D11*
X148720000Y-136360000D03*
X153720000Y-138560000D03*
D10*
X148220000Y-132660000D03*
D11*
X76310000Y-155790000D03*
D12*
X76310000Y-149890000D03*
D11*
X71310000Y-153590000D03*
D10*
X70810000Y-149890000D03*
X81810000Y-149890000D03*
D11*
X203510000Y-155790000D03*
X198510000Y-153590000D03*
D12*
X203510000Y-149890000D03*
D10*
X209010000Y-149890000D03*
X198010000Y-149890000D03*
X140980000Y-132660000D03*
D12*
X135480000Y-132660000D03*
D11*
X130480000Y-136360000D03*
D10*
X129980000Y-132660000D03*
D11*
X135480000Y-138560000D03*
D12*
X167390000Y-115400000D03*
D11*
X167390000Y-121300000D03*
X162390000Y-119100000D03*
D10*
X172890000Y-115400000D03*
X161890000Y-115400000D03*
X254720000Y-115400000D03*
X243720000Y-115400000D03*
D12*
X249220000Y-115400000D03*
D11*
X244220000Y-119100000D03*
X249220000Y-121300000D03*
D12*
X99020000Y-132650000D03*
D11*
X94020000Y-136350000D03*
X99020000Y-138550000D03*
D10*
X93520000Y-132650000D03*
X104520000Y-132650000D03*
D13*
X267940000Y-68540000D03*
D11*
X94550000Y-155790000D03*
D12*
X94550000Y-149890000D03*
D10*
X100050000Y-149890000D03*
X89050000Y-149890000D03*
D11*
X89550000Y-153590000D03*
D13*
X173130000Y-68630000D03*
D10*
X232140000Y-132640000D03*
D11*
X226640000Y-138540000D03*
X221640000Y-136340000D03*
D10*
X221140000Y-132640000D03*
D12*
X226640000Y-132640000D03*
D13*
X267940000Y-158470000D03*
D10*
X227240000Y-149900000D03*
D11*
X221740000Y-155800000D03*
X216740000Y-153600000D03*
D10*
X216240000Y-149900000D03*
D12*
X221740000Y-149900000D03*
D11*
X144150000Y-119110000D03*
D10*
X143650000Y-115410000D03*
D12*
X149150000Y-115410000D03*
D10*
X154650000Y-115410000D03*
D11*
X149150000Y-121310000D03*
D10*
X122740000Y-132660000D03*
D12*
X117240000Y-132660000D03*
D11*
X117240000Y-138560000D03*
D10*
X111740000Y-132660000D03*
D11*
X112240000Y-136360000D03*
X251200000Y-101850000D03*
X256200000Y-104050000D03*
D10*
X261700000Y-98150000D03*
X250700000Y-98150000D03*
D12*
X256200000Y-98150000D03*
D11*
X39860000Y-138570000D03*
X34860000Y-136370000D03*
D12*
X39860000Y-132670000D03*
D10*
X34360000Y-132670000D03*
X45360000Y-132670000D03*
X40780000Y-98180000D03*
D11*
X30280000Y-101880000D03*
X35280000Y-104080000D03*
D12*
X35280000Y-98180000D03*
D10*
X29780000Y-98180000D03*
X175600000Y-98160000D03*
X186600000Y-98160000D03*
D12*
X181100000Y-98160000D03*
D11*
X176100000Y-101860000D03*
X181100000Y-104060000D03*
D10*
X163490000Y-149920000D03*
D12*
X157990000Y-149920000D03*
D11*
X152990000Y-153620000D03*
X157990000Y-155820000D03*
D10*
X152490000Y-149920000D03*
D13*
X51250000Y-128350000D03*
D11*
X258210000Y-155790000D03*
D10*
X263710000Y-149890000D03*
D11*
X253210000Y-153590000D03*
D12*
X258210000Y-149890000D03*
D10*
X252710000Y-149890000D03*
X77250000Y-98160000D03*
D12*
X71750000Y-98160000D03*
D10*
X66250000Y-98160000D03*
D11*
X66750000Y-101860000D03*
X71750000Y-104060000D03*
D12*
X89960000Y-98180000D03*
D11*
X89960000Y-104080000D03*
X84960000Y-101880000D03*
D10*
X95460000Y-98180000D03*
X84460000Y-98180000D03*
D13*
X239000000Y-127650000D03*
D12*
X185600000Y-115400000D03*
D10*
X191100000Y-115400000D03*
X180100000Y-115400000D03*
D11*
X180600000Y-119100000D03*
X185600000Y-121300000D03*
X121750000Y-155810000D03*
D10*
X116250000Y-149910000D03*
D12*
X121750000Y-149910000D03*
D10*
X127250000Y-149910000D03*
D11*
X116750000Y-153610000D03*
D12*
X185280000Y-149890000D03*
D11*
X185280000Y-155790000D03*
X180280000Y-153590000D03*
D10*
X190780000Y-149890000D03*
X179780000Y-149890000D03*
D13*
X69450000Y-78000000D03*
D11*
X251650000Y-138500000D03*
D10*
X257150000Y-132600000D03*
D12*
X251650000Y-132600000D03*
D11*
X246650000Y-136300000D03*
D10*
X246150000Y-132600000D03*
X102690000Y-98180000D03*
D11*
X103190000Y-101880000D03*
X108190000Y-104080000D03*
D10*
X113690000Y-98180000D03*
D12*
X108190000Y-98180000D03*
D14*
X62530000Y-81730000D03*
X62530000Y-79190000D03*
X62530000Y-76650000D03*
X62530000Y-74110000D03*
D10*
X57060000Y-132650000D03*
D11*
X62560000Y-138550000D03*
D10*
X68060000Y-132650000D03*
D11*
X57560000Y-136350000D03*
D12*
X62560000Y-132650000D03*
X58090000Y-149885000D03*
D10*
X63590000Y-149885000D03*
D11*
X53090000Y-153585000D03*
X58090000Y-155785000D03*
D10*
X52590000Y-149885000D03*
D11*
X235810000Y-104080000D03*
D10*
X230310000Y-98180000D03*
D11*
X230810000Y-101880000D03*
D12*
X235810000Y-98180000D03*
D10*
X241310000Y-98180000D03*
X32110000Y-115410000D03*
D11*
X37610000Y-121310000D03*
D10*
X43110000Y-115410000D03*
D12*
X37610000Y-115410000D03*
D11*
X32610000Y-119110000D03*
X222040000Y-121310000D03*
D12*
X222040000Y-115410000D03*
D10*
X216540000Y-115410000D03*
D11*
X217040000Y-119110000D03*
D10*
X227540000Y-115410000D03*
X202920000Y-132640000D03*
D11*
X203420000Y-136340000D03*
D12*
X208420000Y-132640000D03*
D10*
X213920000Y-132640000D03*
D11*
X208420000Y-138540000D03*
D13*
X267940000Y-87020000D03*
D10*
X120940000Y-98180000D03*
D12*
X126440000Y-98180000D03*
D10*
X131940000Y-98180000D03*
D11*
X121440000Y-101880000D03*
X126440000Y-104080000D03*
D12*
X37630000Y-149860000D03*
D11*
X37630000Y-155760000D03*
D10*
X43130000Y-149860000D03*
X32130000Y-149860000D03*
D11*
X32630000Y-153560000D03*
D12*
X171960000Y-132640000D03*
D11*
X171960000Y-138540000D03*
X166960000Y-136340000D03*
D10*
X166460000Y-132640000D03*
X177460000Y-132640000D03*
D11*
X53490000Y-104080000D03*
D12*
X53490000Y-98180000D03*
D10*
X47990000Y-98180000D03*
X58990000Y-98180000D03*
D11*
X48490000Y-101880000D03*
D13*
X139850000Y-150050000D03*
D11*
X162900000Y-104060000D03*
X157900000Y-101860000D03*
D10*
X168400000Y-98160000D03*
D12*
X162900000Y-98160000D03*
D10*
X157400000Y-98160000D03*
D11*
X112710000Y-121300000D03*
D12*
X112710000Y-115400000D03*
D11*
X107710000Y-119100000D03*
D10*
X118210000Y-115400000D03*
X107210000Y-115400000D03*
D11*
X198820000Y-119110000D03*
D10*
X209320000Y-115410000D03*
D12*
X203820000Y-115410000D03*
D11*
X203820000Y-121310000D03*
D10*
X198320000Y-115410000D03*
D11*
X239950000Y-155795000D03*
D10*
X245450000Y-149895000D03*
D12*
X239950000Y-149895000D03*
D10*
X234450000Y-149895000D03*
D11*
X234950000Y-153595000D03*
X53050000Y-119110000D03*
D10*
X63550000Y-115410000D03*
D11*
X58050000Y-121310000D03*
D10*
X52550000Y-115410000D03*
D12*
X58050000Y-115410000D03*
X76270000Y-115400000D03*
D11*
X71270000Y-119100000D03*
D10*
X70770000Y-115400000D03*
X81770000Y-115400000D03*
D11*
X76270000Y-121300000D03*
D13*
X77850000Y-68990000D03*
D10*
X195700000Y-132640000D03*
D12*
X190200000Y-132640000D03*
D11*
X190200000Y-138540000D03*
D10*
X184700000Y-132640000D03*
D11*
X185200000Y-136340000D03*
M02*
