M48
; DRILL file {KiCad (6.0.9)} date Thu Nov 10 16:15:03 2022
; FORMAT={-:-/ absolute / metric / decimal}
; #@! TF.CreationDate,2022-11-10T16:15:03+09:00
; #@! TF.GenerationSoftware,Kicad,Pcbnew,(6.0.9)
; #@! TF.FileFunction,Plated,1,2,PTH
FMAT,2
METRIC
; #@! TA.AperFunction,Plated,PTH,ViaDrill
T1C0.400
; #@! TA.AperFunction,Plated,PTH,ComponentDrill
T2C0.813
; #@! TA.AperFunction,Plated,PTH,ComponentDrill
T3C1.300
%
G90
G05
T1
X25.69Y-94.85
X25.69Y-110.01
X25.69Y-127.2
X28.11Y-101.72
X29.205Y-144.22
X29.427Y-82.22
X30.75Y-93.12
X30.877Y-83.515
X31.84Y-94.7
X32.19Y-106.0
X32.73Y-92.27
X32.997Y-67.317
X33.95Y-110.17
X34.26Y-144.19
X35.024Y-88.775
X35.17Y-67.294
X35.844Y-87.954
X36.23Y-127.24
X36.506Y-89.696
X36.79Y-118.46
X37.07Y-124.47
X37.1Y-125.58
X37.25Y-129.56
X37.772Y-88.429
X37.83Y-92.18
X39.09Y-94.72
X40.54Y-105.79
X41.12Y-144.21
X41.19Y-110.2
X41.81Y-107.33
X42.3Y-126.47
X42.56Y-105.81
X42.74Y-142.37
X42.764Y-90.956
X43.1Y-122.97
X43.6Y-130.32
X44.82Y-122.99
X44.93Y-100.98
X44.99Y-140.14
X45.735Y-147.26
X45.964Y-77.036
X46.405Y-112.78
X47.062Y-107.336
X47.309Y-140.18
X47.31Y-93.999
X47.85Y-134.02
X47.903Y-106.128
X48.369Y-86.865
X49.669Y-80.741
X49.786Y-94.616
X50.03Y-93.15
X50.316Y-86.764
X50.85Y-102.156
X50.853Y-104.203
X51.1Y-77.0
X51.457Y-74.733
X52.28Y-78.16
X52.667Y-147.287
X53.017Y-76.293
X53.046Y-74.274
X54.47Y-111.71
X54.65Y-145.79
X55.99Y-95.38
X56.14Y-92.41
X56.825Y-90.41
X56.825Y-91.46
X58.07Y-68.47
X58.895Y-106.01
X59.488Y-140.153
X59.95Y-129.59
X60.63Y-112.25
X60.79Y-106.01
X61.079Y-136.59
X61.48Y-102.84
X61.55Y-144.28
X61.62Y-110.54
X62.194Y-88.08
X62.965Y-89.875
X63.153Y-110.737
X63.16Y-142.61
X63.187Y-108.723
X63.545Y-123.177
X63.855Y-88.715
X64.54Y-125.8
X64.57Y-101.48
X64.995Y-123.168
X65.35Y-124.69
X65.364Y-79.3
X65.364Y-86.68
X66.08Y-115.8
X67.649Y-88.871
X67.86Y-140.34
X69.35Y-124.81
X69.483Y-144.063
X69.855Y-126.7
X69.855Y-133.25
X69.91Y-140.36
X70.56Y-137.54
X70.938Y-144.995
X71.304Y-131.93
X72.232Y-143.362
X72.376Y-125.13
X72.377Y-122.963
X72.68Y-111.77
X72.76Y-145.72
X72.87Y-147.35
X73.26Y-112.87
X73.63Y-124.78
X74.36Y-92.69
X74.93Y-108.36
X76.15Y-89.63
X76.98Y-106.03
X78.12Y-142.05
X78.21Y-129.5
X78.89Y-106.06
X78.959Y-136.55
X79.67Y-110.26
X79.73Y-144.21
X81.3Y-100.74
X81.37Y-123.04
X82.48Y-125.344
X82.61Y-155.065
X82.63Y-156.514
X82.77Y-107.51
X83.28Y-126.749
X83.43Y-123.04
X83.47Y-134.565
X83.916Y-118.206
X84.07Y-110.986
X84.081Y-112.434
X84.37Y-107.19
X84.649Y-115.79
X85.91Y-140.3
X86.17Y-124.62
X88.01Y-140.32
X88.34Y-141.9
X88.558Y-131.382
X88.591Y-135.181
X90.596Y-139.59
X90.63Y-88.9
X90.69Y-114.62
X91.0Y-110.13
X91.04Y-111.71
X91.19Y-145.69
X91.28Y-113.74
X91.83Y-143.65
X92.434Y-95.895
X93.262Y-117.748
X95.16Y-106.0
X97.034Y-108.666
X97.13Y-106.0
X97.399Y-136.665
X97.91Y-110.26
X98.15Y-144.15
X98.3Y-90.6
X99.37Y-143.5
X99.6Y-122.97
X99.7Y-135.215
X99.765Y-99.4
X99.78Y-107.77
X101.5Y-126.85
X101.5Y-129.04
X101.6Y-122.97
X102.56Y-149.85
X102.973Y-110.087
X104.16Y-140.39
X104.285Y-116.4
X104.63Y-91.67
X105.268Y-125.082
X106.26Y-140.45
X106.282Y-124.048
X107.828Y-127.642
X108.53Y-133.94
X108.802Y-126.568
X109.21Y-111.71
X110.604Y-96.746
X111.5Y-125.136
X112.32Y-95.48
X113.37Y-105.97
X113.55Y-125.904
X114.33Y-108.85
X114.92Y-124.456
X115.43Y-106.0
X115.454Y-98.971
X115.47Y-89.0
X116.09Y-110.26
X116.99Y-97.55
X117.9Y-123.03
X118.03Y-90.82
X118.37Y-145.88
X118.39Y-110.956
X118.8Y-130.11
X119.9Y-118.96
X119.9Y-126.63
X120.03Y-123.06
X122.31Y-140.42
X122.485Y-116.75
X123.21Y-110.956
X123.76Y-92.59
X124.4Y-140.42
X124.58Y-136.43
X125.3Y-144.37
X127.055Y-134.01
X127.24Y-111.71
X128.951Y-96.53
X129.001Y-118.926
X129.264Y-91.836
X130.1Y-93.35
X131.08Y-118.055
X131.19Y-92.56
X131.61Y-105.91
X132.035Y-91.67
X132.92Y-126.65
X133.59Y-101.71
X133.7Y-105.91
X134.29Y-110.23
X134.48Y-100.97
X136.17Y-123.06
X136.538Y-117.777
X137.03Y-105.97
X137.233Y-155.703
X138.3Y-123.06
X138.93Y-119.87
X138.98Y-127.31
X140.55Y-140.48
X142.0Y-92.62
X142.463Y-125.837
X142.68Y-140.51
X144.689Y-123.269
X145.296Y-130.3
X145.79Y-111.74
X145.926Y-124.436
X146.57Y-122.59
X146.65Y-109.56
X148.641Y-93.464
X149.49Y-91.479
X149.49Y-92.68
X149.91Y-105.97
X150.93Y-86.35
X151.79Y-105.97
X152.57Y-114.84
X152.72Y-110.26
X154.35Y-123.06
X154.475Y-95.77
X154.51Y-145.82
X154.832Y-112.798
X155.287Y-125.837
X155.72Y-111.045
X156.19Y-133.96
X156.45Y-123.06
X157.14Y-115.55
X157.27Y-127.4
X158.12Y-126.61
X158.43Y-124.8
X158.85Y-140.51
X158.965Y-115.89
X160.34Y-92.53
X160.89Y-111.045
X161.1Y-140.54
X161.47Y-144.28
X161.76Y-137.28
X163.02Y-107.67
X163.81Y-111.77
X163.82Y-110.21
X164.984Y-143.26
X165.53Y-96.495
X166.4Y-93.15
X168.09Y-105.85
X168.442Y-159.102
X170.18Y-105.85
X170.77Y-110.2
X171.53Y-90.629
X171.58Y-124.73
X172.65Y-123.13
X173.4Y-106.75
X174.61Y-119.09
X174.66Y-123.09
X175.391Y-127.445
X176.24Y-126.7
X177.03Y-140.45
X178.48Y-92.5
X179.09Y-140.45
X179.24Y-136.31
X179.377Y-124.693
X181.775Y-130.2
X181.87Y-145.75
X181.93Y-101.195
X181.94Y-142.83
X182.05Y-111.71
X182.09Y-110.15
X182.46Y-140.63
X183.639Y-142.83
X183.705Y-97.126
X184.58Y-93.09
X186.24Y-105.94
X187.08Y-113.05
X188.1Y-101.92
X188.27Y-105.94
X188.8Y-144.21
X188.8Y-145.78
X189.2Y-110.26
X190.86Y-123.09
X190.905Y-105.0
X191.61Y-87.451
X192.1Y-101.41
X192.2Y-142.11
X192.8Y-123.13
X193.35Y-152.3
X193.56Y-120.03
X193.794Y-127.224
X195.33Y-140.39
X196.488Y-125.732
X196.53Y-141.114
X196.76Y-92.47
X197.52Y-140.45
X198.18Y-137.13
X198.193Y-141.577
X199.592Y-142.952
X199.995Y-130.23
X200.08Y-145.69
X200.35Y-111.71
X201.22Y-109.81
X201.77Y-99.81
X202.04Y-119.54
X202.82Y-93.25
X204.41Y-105.94
X204.838Y-100.468
X206.12Y-146.21
X206.57Y-105.97
X207.01Y-144.15
X207.12Y-116.67
X207.35Y-110.2
X208.24Y-117.6
X209.04Y-123.09
X209.82Y-99.81
X210.16Y-125.13
X210.837Y-130.954
X210.87Y-153.62
X211.1Y-118.97
X211.17Y-123.09
X211.84Y-118.37
X211.88Y-127.28
X213.57Y-140.33
X214.78Y-105.6
X215.12Y-92.53
X215.59Y-136.4
X215.64Y-140.36
X217.054Y-109.076
X218.32Y-145.79
X218.41Y-111.74
X220.03Y-96.53
X220.643Y-134.433
X221.18Y-93.28
X222.69Y-105.91
X223.05Y-100.03
X223.84Y-107.29
X223.844Y-94.958
X224.03Y-126.56
X224.042Y-137.952
X224.062Y-135.882
X224.58Y-101.86
X224.87Y-105.91
X225.28Y-144.25
X225.41Y-111.79
X225.46Y-110.23
X225.64Y-102.84
X225.804Y-135.165
X227.19Y-123.03
X227.8Y-89.39
X227.9Y-156.524
X228.68Y-159.674
X228.834Y-94.94
X228.96Y-100.09
X228.98Y-153.62
X229.32Y-123.0
X230.18Y-127.28
X230.68Y-125.08
X231.88Y-140.33
X232.145Y-147.44
X232.59Y-97.254
X232.68Y-114.93
X232.87Y-139.606
X233.21Y-92.59
X233.594Y-147.44
X233.86Y-140.36
X236.13Y-141.1
X236.28Y-145.75
X237.33Y-143.68
X238.46Y-96.53
X239.27Y-93.29
X240.895Y-130.26
X241.05Y-105.94
X241.058Y-100.177
X241.9Y-108.59
X242.344Y-110.872
X242.87Y-105.97
X243.4Y-144.28
X245.52Y-111.71
X246.009Y-155.07
X246.447Y-107.767
X246.463Y-104.393
X247.6Y-100.95
X247.69Y-92.53
X248.93Y-104.26
X249.01Y-139.12
X249.785Y-147.41
X251.234Y-147.41
X252.82Y-121.25
X253.6Y-92.47
X253.915Y-109.015
X254.73Y-145.72
X255.14Y-127.28
X256.8Y-140.25
X258.61Y-121.29
X259.0Y-135.91
X259.04Y-140.25
X259.6Y-93.17
X261.41Y-105.82
X262.55Y-121.92
X263.23Y-105.85
X263.38Y-101.83
X265.57Y-142.61
T2
X30.152Y-70.184
X30.152Y-85.404
X32.692Y-70.184
X32.692Y-85.404
X35.232Y-70.184
X35.232Y-85.404
X37.772Y-70.184
X37.772Y-85.404
X40.312Y-70.184
X40.312Y-85.404
X42.852Y-70.184
X42.852Y-85.404
X45.392Y-70.184
X45.392Y-85.404
X47.932Y-70.184
X47.932Y-85.404
X50.472Y-70.184
X50.472Y-85.404
X53.012Y-70.184
X53.012Y-85.404
X55.552Y-70.184
X55.552Y-85.404
X58.092Y-70.184
X58.092Y-85.404
X62.53Y-74.11
X62.53Y-76.65
X62.53Y-79.19
X62.53Y-81.73
T3
X65.872Y-70.685
X72.372Y-70.685
T0
M30
