G04 #@! TF.GenerationSoftware,KiCad,Pcbnew,(6.0.9)*
G04 #@! TF.CreationDate,2022-12-20T15:04:12+09:00*
G04 #@! TF.ProjectId,meow48,6d656f77-3438-42e6-9b69-6361645f7063,rev?*
G04 #@! TF.SameCoordinates,Original*
G04 #@! TF.FileFunction,Soldermask,Bot*
G04 #@! TF.FilePolarity,Negative*
%FSLAX46Y46*%
G04 Gerber Fmt 4.6, Leading zero omitted, Abs format (unit mm)*
G04 Created by KiCad (PCBNEW (6.0.9)) date 2022-12-20 15:04:12*
%MOMM*%
%LPD*%
G01*
G04 APERTURE LIST*
G04 Aperture macros list*
%AMRoundRect*
0 Rectangle with rounded corners*
0 $1 Rounding radius*
0 $2 $3 $4 $5 $6 $7 $8 $9 X,Y pos of 4 corners*
0 Add a 4 corners polygon primitive as box body*
4,1,4,$2,$3,$4,$5,$6,$7,$8,$9,$2,$3,0*
0 Add four circle primitives for the rounded corners*
1,1,$1+$1,$2,$3*
1,1,$1+$1,$4,$5*
1,1,$1+$1,$6,$7*
1,1,$1+$1,$8,$9*
0 Add four rect primitives between the rounded corners*
20,1,$1+$1,$2,$3,$4,$5,0*
20,1,$1+$1,$4,$5,$6,$7,0*
20,1,$1+$1,$6,$7,$8,$9,0*
20,1,$1+$1,$8,$9,$2,$3,0*%
G04 Aperture macros list end*
%ADD10C,1.900000*%
%ADD11C,3.100000*%
%ADD12C,4.000000*%
%ADD13R,1.700000X3.500000*%
%ADD14R,3.000000X3.500000*%
%ADD15R,0.950000X1.300000*%
%ADD16C,2.200000*%
%ADD17R,1.500000X2.500000*%
%ADD18C,1.524000*%
%ADD19R,1.300000X0.950000*%
%ADD20C,2.000000*%
%ADD21C,1.397000*%
%ADD22R,1.700000X0.820000*%
%ADD23RoundRect,0.205000X-0.645000X-0.205000X0.645000X-0.205000X0.645000X0.205000X-0.645000X0.205000X0*%
G04 APERTURE END LIST*
D10*
X99990000Y-115390000D03*
D11*
X89490000Y-119090000D03*
D12*
X94490000Y-115390000D03*
D11*
X94490000Y-121290000D03*
D10*
X88990000Y-115390000D03*
D13*
X86790000Y-119090000D03*
D14*
X98040000Y-121290000D03*
D15*
X247930000Y-153665000D03*
X247930000Y-157215000D03*
D16*
X77880000Y-83840000D03*
X25610000Y-158470000D03*
D12*
X80800000Y-132650000D03*
D10*
X86300000Y-132650000D03*
D11*
X80800000Y-138550000D03*
D10*
X75300000Y-132650000D03*
D11*
X75800000Y-136350000D03*
D13*
X73100000Y-136350000D03*
D14*
X84350000Y-138550000D03*
D12*
X217580000Y-98180000D03*
D11*
X217580000Y-104080000D03*
X212580000Y-101880000D03*
D10*
X212080000Y-98180000D03*
X223080000Y-98180000D03*
D13*
X209880000Y-101880000D03*
D14*
X221130000Y-104080000D03*
D12*
X130910000Y-115400000D03*
D10*
X125410000Y-115400000D03*
D11*
X125910000Y-119100000D03*
D10*
X136410000Y-115400000D03*
D11*
X130910000Y-121300000D03*
D13*
X123210000Y-119100000D03*
D14*
X134460000Y-121300000D03*
D11*
X194330000Y-101860000D03*
D12*
X199330000Y-98160000D03*
D10*
X193830000Y-98160000D03*
X204830000Y-98160000D03*
D11*
X199330000Y-104060000D03*
D13*
X191630000Y-101860000D03*
D14*
X202880000Y-104060000D03*
D12*
X144670000Y-98160000D03*
D11*
X139670000Y-101860000D03*
D10*
X150170000Y-98160000D03*
X139170000Y-98160000D03*
D11*
X144670000Y-104060000D03*
D13*
X136970000Y-101860000D03*
D14*
X148220000Y-104060000D03*
D15*
X266230000Y-142565000D03*
X266230000Y-146115000D03*
D10*
X159220000Y-132660000D03*
D12*
X153720000Y-132660000D03*
D11*
X148720000Y-136360000D03*
X153720000Y-138560000D03*
D10*
X148220000Y-132660000D03*
D13*
X146020000Y-136360000D03*
D14*
X157270000Y-138560000D03*
D11*
X76310000Y-155790000D03*
D12*
X76310000Y-149890000D03*
D11*
X71310000Y-153590000D03*
D10*
X70810000Y-149890000D03*
X81810000Y-149890000D03*
D13*
X68610000Y-153590000D03*
D14*
X79860000Y-155790000D03*
D11*
X203510000Y-155790000D03*
X198510000Y-153590000D03*
D12*
X203510000Y-149890000D03*
D10*
X209010000Y-149890000D03*
X198010000Y-149890000D03*
D13*
X195810000Y-153590000D03*
D14*
X207060000Y-155790000D03*
D15*
X211490000Y-153605000D03*
X211490000Y-157155000D03*
D10*
X140980000Y-132660000D03*
D12*
X135480000Y-132660000D03*
D11*
X130480000Y-136360000D03*
D10*
X129980000Y-132660000D03*
D11*
X135480000Y-138560000D03*
D13*
X127780000Y-136360000D03*
D14*
X139030000Y-138560000D03*
D12*
X167390000Y-115400000D03*
D11*
X167390000Y-121300000D03*
X162390000Y-119100000D03*
D10*
X172890000Y-115400000D03*
X161890000Y-115400000D03*
D13*
X159690000Y-119100000D03*
D14*
X170940000Y-121300000D03*
D15*
X229730000Y-153635000D03*
X229730000Y-157185000D03*
D10*
X254720000Y-115400000D03*
X243720000Y-115400000D03*
D12*
X249220000Y-115400000D03*
D11*
X244220000Y-119100000D03*
X249220000Y-121300000D03*
D17*
X241620000Y-119100000D03*
X252020000Y-121300000D03*
D12*
X99020000Y-132650000D03*
D11*
X94020000Y-136350000D03*
X99020000Y-138550000D03*
D10*
X93520000Y-132650000D03*
X104520000Y-132650000D03*
D13*
X91320000Y-136350000D03*
D14*
X102570000Y-138550000D03*
D16*
X267940000Y-68540000D03*
D15*
X211840000Y-119255000D03*
X211840000Y-122805000D03*
D11*
X94550000Y-155790000D03*
D12*
X94550000Y-149890000D03*
D10*
X100050000Y-149890000D03*
X89050000Y-149890000D03*
D11*
X89550000Y-153590000D03*
D13*
X86850000Y-153590000D03*
D14*
X98100000Y-155790000D03*
D15*
X138920000Y-119205000D03*
X138920000Y-122755000D03*
D16*
X173130000Y-68630000D03*
D15*
X102570000Y-153635000D03*
X102570000Y-157185000D03*
D10*
X232140000Y-132640000D03*
D11*
X226640000Y-138540000D03*
X221640000Y-136340000D03*
D10*
X221140000Y-132640000D03*
D12*
X226640000Y-132640000D03*
D13*
X218940000Y-136340000D03*
D14*
X230190000Y-138540000D03*
D18*
X30152000Y-70183600D03*
X32692000Y-70183600D03*
X35232000Y-70183600D03*
X37772000Y-70183600D03*
X40312000Y-70183600D03*
X42852000Y-70183600D03*
X45392000Y-70183600D03*
X47932000Y-70183600D03*
X50472000Y-70183600D03*
X53012000Y-70183600D03*
X55552000Y-70183600D03*
X58092000Y-70183600D03*
X58092000Y-85403600D03*
X55552000Y-85403600D03*
X53012000Y-85403600D03*
X50472000Y-85403600D03*
X47932000Y-85403600D03*
X45392000Y-85403600D03*
X42852000Y-85403600D03*
X40312000Y-85403600D03*
X37772000Y-85403600D03*
X35232000Y-85403600D03*
X32692000Y-85403600D03*
X30152000Y-85403600D03*
D15*
X189130000Y-101945000D03*
X189130000Y-105495000D03*
D16*
X267940000Y-158470000D03*
D15*
X134450000Y-101955000D03*
X134450000Y-105505000D03*
D10*
X227240000Y-149900000D03*
D11*
X221740000Y-155800000D03*
X216740000Y-153600000D03*
D10*
X216240000Y-149900000D03*
D12*
X221740000Y-149900000D03*
D13*
X214040000Y-153600000D03*
D14*
X225290000Y-155800000D03*
D15*
X152670000Y-101995000D03*
X152670000Y-105545000D03*
D11*
X144150000Y-119110000D03*
D10*
X143650000Y-115410000D03*
D12*
X149150000Y-115410000D03*
D10*
X154650000Y-115410000D03*
D11*
X149150000Y-121310000D03*
D13*
X141450000Y-119110000D03*
D14*
X152700000Y-121310000D03*
D15*
X207350000Y-101945000D03*
X207350000Y-105495000D03*
X243850000Y-101985000D03*
X243850000Y-105535000D03*
X47850000Y-136465000D03*
X47850000Y-140015000D03*
D10*
X122740000Y-132660000D03*
D12*
X117240000Y-132660000D03*
D11*
X117240000Y-138560000D03*
D10*
X111740000Y-132660000D03*
D11*
X112240000Y-136360000D03*
D13*
X109540000Y-136360000D03*
D14*
X120790000Y-138560000D03*
D19*
X135545000Y-155800000D03*
X131995000Y-155800000D03*
D15*
X66060000Y-153635000D03*
X66060000Y-157185000D03*
D11*
X251200000Y-101850000D03*
X256200000Y-104050000D03*
D10*
X261700000Y-98150000D03*
X250700000Y-98150000D03*
D12*
X256200000Y-98150000D03*
D13*
X248500000Y-101850000D03*
D14*
X259750000Y-104050000D03*
D15*
X193280000Y-153665000D03*
X193280000Y-157215000D03*
X175400000Y-119195000D03*
X175400000Y-122745000D03*
X157140000Y-119185000D03*
X157140000Y-122735000D03*
X125210000Y-136435000D03*
X125210000Y-139985000D03*
D11*
X39860000Y-138570000D03*
X34860000Y-136370000D03*
D12*
X39860000Y-132670000D03*
D10*
X34360000Y-132670000D03*
X45360000Y-132670000D03*
D13*
X32160000Y-136370000D03*
D14*
X43410000Y-138570000D03*
D15*
X84330000Y-153635000D03*
X84330000Y-157185000D03*
X102520000Y-119205000D03*
X102520000Y-122755000D03*
D10*
X40780000Y-98180000D03*
D11*
X30280000Y-101880000D03*
X35280000Y-104080000D03*
D12*
X35280000Y-98180000D03*
D10*
X29780000Y-98180000D03*
D13*
X27580000Y-101880000D03*
D14*
X38830000Y-104080000D03*
D15*
X225590000Y-101935000D03*
X225590000Y-105485000D03*
X45660000Y-119215000D03*
X45660000Y-122765000D03*
X143520000Y-136505000D03*
X143520000Y-140055000D03*
D10*
X175600000Y-98160000D03*
X186600000Y-98160000D03*
D12*
X181100000Y-98160000D03*
D11*
X176100000Y-101860000D03*
X181100000Y-104060000D03*
D13*
X173400000Y-101860000D03*
D14*
X184650000Y-104060000D03*
D10*
X163490000Y-149920000D03*
D12*
X157990000Y-149920000D03*
D11*
X152990000Y-153620000D03*
X157990000Y-155820000D03*
D10*
X152490000Y-149920000D03*
D17*
X150390000Y-153620000D03*
X160790000Y-155820000D03*
D16*
X51250000Y-128350000D03*
D19*
X262955000Y-121260000D03*
X259405000Y-121260000D03*
D11*
X258210000Y-155790000D03*
D10*
X263710000Y-149890000D03*
D11*
X253210000Y-153590000D03*
D12*
X258210000Y-149890000D03*
D10*
X252710000Y-149890000D03*
D13*
X250510000Y-153590000D03*
D14*
X261760000Y-155790000D03*
D10*
X77250000Y-98160000D03*
D12*
X71750000Y-98160000D03*
D10*
X66250000Y-98160000D03*
D11*
X66750000Y-101860000D03*
X71750000Y-104060000D03*
D13*
X64050000Y-101860000D03*
D14*
X75300000Y-104060000D03*
D15*
X43270000Y-101945000D03*
X43270000Y-105495000D03*
D20*
X72372000Y-70685000D03*
X65872000Y-70685000D03*
D12*
X89960000Y-98180000D03*
D11*
X89960000Y-104080000D03*
X84960000Y-101880000D03*
D10*
X95460000Y-98180000D03*
X84460000Y-98180000D03*
D13*
X82260000Y-101880000D03*
D14*
X93510000Y-104080000D03*
D16*
X239000000Y-127650000D03*
D12*
X185600000Y-115400000D03*
D10*
X191100000Y-115400000D03*
X180100000Y-115400000D03*
D11*
X180600000Y-119100000D03*
X185600000Y-121300000D03*
D13*
X177900000Y-119100000D03*
D14*
X189150000Y-121300000D03*
D11*
X121750000Y-155810000D03*
D10*
X116250000Y-149910000D03*
D12*
X121750000Y-149910000D03*
D10*
X127250000Y-149910000D03*
D11*
X116750000Y-153610000D03*
D17*
X114150000Y-153610000D03*
X124550000Y-155810000D03*
D15*
X107000000Y-136435000D03*
X107000000Y-139985000D03*
D12*
X185280000Y-149890000D03*
D11*
X185280000Y-155790000D03*
X180280000Y-153590000D03*
D10*
X190780000Y-149890000D03*
X179780000Y-149890000D03*
D13*
X177580000Y-153590000D03*
D14*
X188830000Y-155790000D03*
D16*
X69450000Y-78000000D03*
D11*
X251650000Y-138500000D03*
D10*
X257150000Y-132600000D03*
D12*
X251650000Y-132600000D03*
D11*
X246650000Y-136300000D03*
D10*
X246150000Y-132600000D03*
D13*
X243950000Y-136300000D03*
D14*
X255200000Y-138500000D03*
D15*
X45660000Y-153665000D03*
X45660000Y-157215000D03*
D10*
X102690000Y-98180000D03*
D11*
X103190000Y-101880000D03*
X108190000Y-104080000D03*
D10*
X113690000Y-98180000D03*
D12*
X108190000Y-98180000D03*
D13*
X100490000Y-101880000D03*
D14*
X111740000Y-104080000D03*
D15*
X88800000Y-136345000D03*
X88800000Y-139895000D03*
D21*
X62530000Y-81730000D03*
X62530000Y-79190000D03*
X62530000Y-76650000D03*
X62530000Y-74110000D03*
D10*
X57060000Y-132650000D03*
D11*
X62560000Y-138550000D03*
D10*
X68060000Y-132650000D03*
D11*
X57560000Y-136350000D03*
D12*
X62560000Y-132650000D03*
D13*
X54860000Y-136350000D03*
D14*
X66110000Y-138550000D03*
D12*
X58090000Y-149885000D03*
D10*
X63590000Y-149885000D03*
D11*
X53090000Y-153585000D03*
X58090000Y-155785000D03*
D10*
X52590000Y-149885000D03*
D13*
X50390000Y-153585000D03*
D14*
X61640000Y-155785000D03*
D15*
X234650000Y-136435000D03*
X234650000Y-139985000D03*
X97970000Y-101985000D03*
X97970000Y-105535000D03*
X79750000Y-101965000D03*
X79750000Y-105515000D03*
D11*
X235810000Y-104080000D03*
D10*
X230310000Y-98180000D03*
D11*
X230810000Y-101880000D03*
D12*
X235810000Y-98180000D03*
D10*
X241310000Y-98180000D03*
D13*
X228110000Y-101880000D03*
D14*
X239360000Y-104080000D03*
D15*
X264220000Y-101935000D03*
X264220000Y-105485000D03*
D10*
X32110000Y-115410000D03*
D11*
X37610000Y-121310000D03*
D10*
X43110000Y-115410000D03*
D12*
X37610000Y-115410000D03*
D11*
X32610000Y-119110000D03*
D13*
X29910000Y-119110000D03*
D14*
X41160000Y-121310000D03*
D11*
X222040000Y-121310000D03*
D12*
X222040000Y-115410000D03*
D10*
X216540000Y-115410000D03*
D11*
X217040000Y-119110000D03*
D10*
X227540000Y-115410000D03*
D13*
X214340000Y-119110000D03*
D14*
X225590000Y-121310000D03*
D15*
X84280000Y-119205000D03*
X84280000Y-122755000D03*
D10*
X202920000Y-132640000D03*
D11*
X203420000Y-136340000D03*
D12*
X208420000Y-132640000D03*
D10*
X213920000Y-132640000D03*
D11*
X208420000Y-138540000D03*
D13*
X200720000Y-136340000D03*
D14*
X211970000Y-138540000D03*
D15*
X216410000Y-136435000D03*
X216410000Y-139985000D03*
X66080000Y-119215000D03*
X66080000Y-122765000D03*
D16*
X267940000Y-87020000D03*
D15*
X70580000Y-136465000D03*
X70580000Y-140015000D03*
X161760000Y-136475000D03*
X161760000Y-140025000D03*
X259700000Y-136405000D03*
X259700000Y-139955000D03*
D10*
X120940000Y-98180000D03*
D12*
X126440000Y-98180000D03*
D10*
X131940000Y-98180000D03*
D11*
X121440000Y-101880000D03*
X126440000Y-104080000D03*
D13*
X118740000Y-101880000D03*
D14*
X129990000Y-104080000D03*
D12*
X37630000Y-149860000D03*
D11*
X37630000Y-155760000D03*
D10*
X43130000Y-149860000D03*
X32130000Y-149860000D03*
D11*
X32630000Y-153560000D03*
D13*
X29930000Y-153560000D03*
D14*
X41180000Y-155760000D03*
D15*
X61470000Y-101965000D03*
X61470000Y-105515000D03*
D12*
X171960000Y-132640000D03*
D11*
X171960000Y-138540000D03*
X166960000Y-136340000D03*
D10*
X166460000Y-132640000D03*
X177460000Y-132640000D03*
D13*
X164260000Y-136340000D03*
D14*
X175510000Y-138540000D03*
D11*
X53490000Y-104080000D03*
D12*
X53490000Y-98180000D03*
D10*
X47990000Y-98180000D03*
X58990000Y-98180000D03*
D11*
X48490000Y-101880000D03*
D13*
X45790000Y-101880000D03*
D14*
X57040000Y-104080000D03*
D16*
X139850000Y-150050000D03*
D15*
X116210000Y-101965000D03*
X116210000Y-105515000D03*
D11*
X162900000Y-104060000D03*
X157900000Y-101860000D03*
D10*
X168400000Y-98160000D03*
D12*
X162900000Y-98160000D03*
D10*
X157400000Y-98160000D03*
D13*
X155200000Y-101860000D03*
D14*
X166450000Y-104060000D03*
D19*
X171725000Y-155820000D03*
X168175000Y-155820000D03*
D15*
X230050000Y-119255000D03*
X230050000Y-122805000D03*
D11*
X112710000Y-121300000D03*
D12*
X112710000Y-115400000D03*
D11*
X107710000Y-119100000D03*
D10*
X118210000Y-115400000D03*
X107210000Y-115400000D03*
D13*
X105010000Y-119100000D03*
D14*
X116260000Y-121300000D03*
D15*
X179930000Y-136435000D03*
X179930000Y-139985000D03*
X120720000Y-119205000D03*
X120720000Y-122755000D03*
D11*
X198820000Y-119110000D03*
D10*
X209320000Y-115410000D03*
D12*
X203820000Y-115410000D03*
D11*
X203820000Y-121310000D03*
D10*
X198320000Y-115410000D03*
D13*
X196120000Y-119110000D03*
D14*
X207370000Y-121310000D03*
D11*
X239950000Y-155795000D03*
D10*
X245450000Y-149895000D03*
D12*
X239950000Y-149895000D03*
D10*
X234450000Y-149895000D03*
D11*
X234950000Y-153595000D03*
D13*
X232250000Y-153595000D03*
D14*
X243500000Y-155795000D03*
D15*
X170930000Y-101945000D03*
X170930000Y-105495000D03*
X193600000Y-119215000D03*
X193600000Y-122765000D03*
D11*
X53050000Y-119110000D03*
D10*
X63550000Y-115410000D03*
D11*
X58050000Y-121310000D03*
D10*
X52550000Y-115410000D03*
D12*
X58050000Y-115410000D03*
D13*
X50350000Y-119110000D03*
D14*
X61600000Y-121310000D03*
D12*
X76270000Y-115400000D03*
D11*
X71270000Y-119100000D03*
D10*
X70770000Y-115400000D03*
X81770000Y-115400000D03*
D11*
X76270000Y-121300000D03*
D13*
X68570000Y-119100000D03*
D14*
X79820000Y-121300000D03*
D16*
X77850000Y-68990000D03*
D15*
X198170000Y-136435000D03*
X198170000Y-139985000D03*
D10*
X195700000Y-132640000D03*
D12*
X190200000Y-132640000D03*
D11*
X190200000Y-138540000D03*
D10*
X184700000Y-132640000D03*
D11*
X185200000Y-136340000D03*
D13*
X182500000Y-136340000D03*
D14*
X193750000Y-138540000D03*
D22*
X255650000Y-144240000D03*
X255650000Y-145740000D03*
D23*
X260750000Y-145740000D03*
D22*
X260750000Y-144240000D03*
X55450000Y-110250000D03*
X55450000Y-111750000D03*
D23*
X60550000Y-111750000D03*
D22*
X60550000Y-110250000D03*
X142070000Y-93200000D03*
X142070000Y-94700000D03*
D23*
X147170000Y-94700000D03*
D22*
X147170000Y-93200000D03*
X146650000Y-110265000D03*
X146650000Y-111765000D03*
D23*
X151750000Y-111765000D03*
D22*
X151750000Y-110265000D03*
X155440000Y-144305000D03*
X155440000Y-145805000D03*
D23*
X160540000Y-145805000D03*
D22*
X160540000Y-144305000D03*
X96370000Y-127280000D03*
X96370000Y-128780000D03*
D23*
X101470000Y-128780000D03*
D22*
X101470000Y-127280000D03*
X201250000Y-110195000D03*
X201250000Y-111695000D03*
D23*
X206350000Y-111695000D03*
D22*
X206350000Y-110195000D03*
X183050000Y-110215000D03*
X183050000Y-111715000D03*
D23*
X188150000Y-111715000D03*
D22*
X188150000Y-110215000D03*
X200970000Y-144205000D03*
X200970000Y-145705000D03*
D23*
X206070000Y-145705000D03*
D22*
X206070000Y-144205000D03*
X91910000Y-110200000D03*
X91910000Y-111700000D03*
D23*
X97010000Y-111700000D03*
D22*
X97010000Y-110200000D03*
X233230000Y-93270000D03*
X233230000Y-94770000D03*
D23*
X238330000Y-94770000D03*
D22*
X238330000Y-93270000D03*
X224050000Y-127230000D03*
X224050000Y-128730000D03*
D23*
X229150000Y-128730000D03*
D22*
X229150000Y-127230000D03*
X160330000Y-93170000D03*
X160330000Y-94670000D03*
D23*
X165430000Y-94670000D03*
D22*
X165430000Y-93170000D03*
X219420000Y-110240000D03*
X219420000Y-111740000D03*
D23*
X224520000Y-111740000D03*
D22*
X224520000Y-110240000D03*
X169370000Y-127270000D03*
X169370000Y-128770000D03*
D23*
X174470000Y-128770000D03*
D22*
X174470000Y-127270000D03*
X73660000Y-110265000D03*
X73660000Y-111765000D03*
D23*
X78760000Y-111765000D03*
D22*
X78760000Y-110265000D03*
X69180000Y-93220000D03*
X69180000Y-94720000D03*
D23*
X74280000Y-94720000D03*
D22*
X74280000Y-93220000D03*
X237370000Y-144285000D03*
X237370000Y-145785000D03*
D23*
X242470000Y-145785000D03*
D22*
X242470000Y-144285000D03*
X128300000Y-110235000D03*
X128300000Y-111735000D03*
D23*
X133400000Y-111735000D03*
D22*
X133400000Y-110235000D03*
X249160000Y-127265000D03*
X249160000Y-128765000D03*
D23*
X254260000Y-128765000D03*
D22*
X254260000Y-127265000D03*
X182790000Y-144245000D03*
X182790000Y-145745000D03*
D23*
X187890000Y-145745000D03*
D22*
X187890000Y-144245000D03*
X87360000Y-93270000D03*
X87360000Y-94770000D03*
D23*
X92460000Y-94770000D03*
D22*
X92460000Y-93270000D03*
X37250000Y-127255000D03*
X37250000Y-128755000D03*
D23*
X42350000Y-128755000D03*
D22*
X42350000Y-127255000D03*
X187610000Y-127230000D03*
X187610000Y-128730000D03*
D23*
X192710000Y-128730000D03*
D22*
X192710000Y-127230000D03*
X253640000Y-93200000D03*
X253640000Y-94700000D03*
D23*
X258740000Y-94700000D03*
D22*
X258740000Y-93200000D03*
X196780000Y-93220000D03*
X196780000Y-94720000D03*
D23*
X201880000Y-94720000D03*
D22*
X201880000Y-93220000D03*
X219210000Y-144280000D03*
X219210000Y-145780000D03*
D23*
X224310000Y-145780000D03*
D22*
X224310000Y-144280000D03*
X215180000Y-93200000D03*
X215180000Y-94700000D03*
D23*
X220280000Y-94700000D03*
D22*
X220280000Y-93200000D03*
X78210000Y-127280000D03*
X78210000Y-128780000D03*
D23*
X83310000Y-128780000D03*
D22*
X83310000Y-127280000D03*
X35070000Y-110180000D03*
X35070000Y-111680000D03*
D23*
X40170000Y-111680000D03*
D22*
X40170000Y-110180000D03*
X123840000Y-93270000D03*
X123840000Y-94770000D03*
D23*
X128940000Y-94770000D03*
D22*
X128940000Y-93270000D03*
X105590000Y-93220000D03*
X105590000Y-94720000D03*
D23*
X110690000Y-94720000D03*
D22*
X110690000Y-93220000D03*
X132890000Y-127210000D03*
X132890000Y-128710000D03*
D23*
X137990000Y-128710000D03*
D22*
X137990000Y-127210000D03*
X205870000Y-127190000D03*
X205870000Y-128690000D03*
D23*
X210970000Y-128690000D03*
D22*
X210970000Y-127190000D03*
X92050000Y-144190000D03*
X92050000Y-145690000D03*
D23*
X97150000Y-145690000D03*
D22*
X97150000Y-144190000D03*
X151190000Y-127230000D03*
X151190000Y-128730000D03*
D23*
X156290000Y-128730000D03*
D22*
X156290000Y-127230000D03*
X119220000Y-144355000D03*
X119220000Y-145855000D03*
D23*
X124320000Y-145855000D03*
D22*
X124320000Y-144355000D03*
X178550000Y-93185000D03*
X178550000Y-94685000D03*
D23*
X183650000Y-94685000D03*
D22*
X183650000Y-93185000D03*
X35140000Y-144240000D03*
X35140000Y-145740000D03*
D23*
X40240000Y-145740000D03*
D22*
X40240000Y-144240000D03*
X110180000Y-110265000D03*
X110180000Y-111765000D03*
D23*
X115280000Y-111765000D03*
D22*
X115280000Y-110265000D03*
X246600000Y-110205000D03*
X246600000Y-111705000D03*
D23*
X251700000Y-111705000D03*
D22*
X251700000Y-110205000D03*
X114690000Y-127230000D03*
X114690000Y-128730000D03*
D23*
X119790000Y-128730000D03*
D22*
X119790000Y-127230000D03*
X164770000Y-110240000D03*
X164770000Y-111740000D03*
D23*
X169870000Y-111740000D03*
D22*
X169870000Y-110240000D03*
X55530000Y-144280000D03*
X55530000Y-145780000D03*
D23*
X60630000Y-145780000D03*
D22*
X60630000Y-144280000D03*
X60000000Y-127240000D03*
X60000000Y-128740000D03*
D23*
X65100000Y-128740000D03*
D22*
X65100000Y-127240000D03*
X50890000Y-93185000D03*
X50890000Y-94685000D03*
D23*
X55990000Y-94685000D03*
D22*
X55990000Y-93185000D03*
X32710000Y-93235000D03*
X32710000Y-94735000D03*
D23*
X37810000Y-94735000D03*
D22*
X37810000Y-93235000D03*
X73680000Y-144230000D03*
X73680000Y-145730000D03*
D23*
X78780000Y-145730000D03*
D22*
X78780000Y-144230000D03*
M02*
